<svg width="99" height="74" viewBox="0 0 99 74" fill="none" xmlns="http://www.w3.org/2000/svg">
<g clip-path="url(#clip0_0_334)">
<path d="M43.433 38.1562H55.6392V40.4688H43.433V38.1562Z" fill="#FFB400"/>
<path d="M48.0103 34.6875H51.0619V43.9375H48.0103V34.6875Z" fill="#FFB400"/>
<path d="M87.6804 38.1562H90.732V40.4688H87.6804V38.1562Z" fill="#FFB400"/>
<path d="M75.4742 38.1562H78.5258V40.4688H75.4742V38.1562Z" fill="#FFB400"/>
<path d="M81.5773 33.5312H84.6289V35.8438H81.5773V33.5312Z" fill="#FFB400"/>
<path d="M81.5773 42.7812H84.6289V45.0938H81.5773V42.7812Z" fill="#FFB400"/>
<path d="M14.7778 20.3789L7.91182 13.875L14.7778 7.37109L17.1603 8.81641L11.8201 13.875L17.1603 18.9336L14.7778 20.3789Z" fill="#FFB400"/>
<path d="M38.5212 20.3789L36.1386 18.9336L41.4803 13.875L36.1386 8.81641L38.5212 7.37109L45.3857 13.875L38.5212 20.3789Z" fill="#FFB400"/>
<path d="M20.159 17.7372L30.8424 8.4895L33.1385 10.0122L22.4551 19.2605L20.159 17.7372Z" fill="#FFB400"/>
<path d="M12.9175 50.875H6.81442V46.25H9.86597V48.5625H12.9175V50.875Z" fill="#FFB400"/>
<path d="M93.7835 2.3125H5.28865C2.76085 2.3125 0.711334 3.86565 0.711334 5.78125V52.0312C0.711334 53.9469 2.76085 55.5 5.28865 55.5H37.3299V61.2812C37.3299 63.1969 35.2804 64.75 32.7526 64.75H25.1237V71.6875H73.9485V64.75H66.3196C63.7918 64.75 61.7423 63.1969 61.7423 61.2812V55.5H93.7835C96.3113 55.5 98.3608 53.9469 98.3608 52.0312V5.78125C98.3608 3.86565 96.3113 2.3125 93.7835 2.3125ZM70.8969 67.0625V69.375H28.1753V67.0625H70.8969ZM49.5361 62.4861C52.0639 62.4861 54.1134 60.9329 54.1134 59.0173V55.5H58.6907V61.2812C58.6967 62.5363 59.2465 63.7552 60.256 64.75H38.8162C39.8257 63.7552 40.3755 62.5363 40.3814 61.2812V55.5H44.9588V59.0173C44.9588 60.9329 47.0083 62.4861 49.5361 62.4861ZM48.0103 59.0173V55.5H51.0619V59.0173C51.0619 59.6558 50.3787 60.1736 49.5361 60.1736C48.6935 60.1736 48.0103 59.6558 48.0103 59.0173ZM95.3093 52.0312C95.3093 52.6698 94.6261 53.1875 93.7835 53.1875H5.28865C4.44605 53.1875 3.76288 52.6698 3.76288 52.0312V41.625H34.5838C35.8473 46.3319 40.821 49.9553 47.0776 50.726C53.3334 51.4972 59.5661 49.2547 62.7324 45.0938H69.9038C72.4607 48.4626 77.0857 50.6288 82.2054 50.8558C87.325 51.0828 92.251 49.3399 95.3093 46.2201V52.0312ZM83.1031 48.5625C78.4654 48.571 74.2271 46.5758 72.1813 43.422L71.7589 42.7812H60.8803L60.4579 43.422C57.7818 47.5107 51.5707 49.5099 45.8304 48.1295C40.0894 46.7485 36.5357 42.4019 37.461 37.8915C38.3856 33.3816 43.5134 30.0574 49.5361 30.0625H83.1031C89.8447 30.0625 95.3093 34.2037 95.3093 39.3125C95.3093 44.4213 89.8447 48.5625 83.1031 48.5625V48.5625ZM95.3093 32.4049C92.4395 29.4793 87.9136 27.7534 83.1031 27.75H49.5361C41.113 27.7568 34.2873 32.9294 34.2783 39.3125H3.76288V5.78125C3.76288 5.14272 4.44605 4.625 5.28865 4.625H93.7835C94.6261 4.625 95.3093 5.14272 95.3093 5.78125V32.4049Z" fill="#FFB400"/>
<path d="M63.268 38.1562H69.3711V40.4688H63.268V38.1562Z" fill="#FFB400"/>
<path d="M46.4845 9.25H58.6907V11.5625H46.4845V9.25Z" fill="#FFB400"/>
<path d="M64.7938 9.25H89.2062V11.5625H64.7938V9.25Z" fill="#FFB400"/>
<path d="M67.8454 13.875H89.2062V16.1875H67.8454V13.875Z" fill="#FFB400"/>
<path d="M49.5361 13.875H61.7423V16.1875H49.5361V13.875Z" fill="#FFB400"/>
<path d="M46.4845 18.5H77V20.8125H46.4845V18.5Z" fill="#FFB400"/>
<path d="M83.1031 18.5H89.2062V20.8125H83.1031V18.5Z" fill="#FFB400"/>
<path d="M9.86597 23.125H25.1237V25.4375H9.86597V23.125Z" fill="#FFB400"/>
<path d="M31.2268 23.125H60.2165V25.4375H31.2268V23.125Z" fill="#FFB400"/>
<path d="M64.7938 23.125H89.2062V25.4375H64.7938V23.125Z" fill="#FFB400"/>
<path d="M9.86597 27.75H34.2783V30.0625H9.86597V27.75Z" fill="#FFB400"/>
<path d="M9.86597 32.375H22.0722V34.6875H9.86597V32.375Z" fill="#FFB400"/>
<path d="M25.1237 32.375H31.2268V34.6875H25.1237V32.375Z" fill="#FFB400"/>
</g>
<defs>
<clipPath id="clip0_0_334">
<rect width="97.6495" height="74" fill="white" transform="translate(0.711334)"/>
</clipPath>
</defs>
</svg>
