<svg width="170" height="97" viewBox="0 0 170 97" fill="none" xmlns="http://www.w3.org/2000/svg">
<path d="M74.4862 86.275C74.525 87.9697 72.1043 89.7573 69.5284 89.8542C69.8728 91.1656 70.2948 92.4447 69.606 93.7844C68.6067 95.8948 65.9192 97.0449 63.2656 96.7584C59.0016 96.2782 57.847 91.3875 61.9607 89.9187C63.4209 89.4063 65.6087 90.5886 63.9982 91.7709C63.1153 92.4407 61.6551 92.6344 62.3051 94.0386C62.6884 94.8053 63.7265 94.9667 64.5706 94.8376C66.0308 94.6157 66.836 93.5907 66.9137 92.4407C67.1077 91.4481 66.6468 90.4272 66.3364 89.4022C64.4154 88.6355 62.9552 86.8762 63.4937 85.0886C63.9157 83.523 66.2588 84.1605 65.3371 85.1532C64.915 85.823 65.5311 86.7834 66.22 87.2959C66.414 86.5615 66.7196 85.8593 67.2193 85.1855C69.1451 82.728 74.4085 82.5989 74.4862 86.275ZM71.6046 85.1249C69.9116 84.8707 69.2228 86.7229 69.184 87.7155C69.184 87.7801 69.184 87.8446 69.184 87.9092C69.7612 87.8446 70.3385 87.6873 70.7994 87.429C71.9879 86.7551 72.8756 85.476 71.6046 85.1249Z" fill="#767676"/>
<path d="M79.5222 85.9883C79.139 86.3716 78.4065 87.1383 77.6012 88.0987C77.868 88.0987 78.1009 88.131 78.2173 88.131C78.8334 88.1633 78.1785 89.5071 77.4508 89.5071C77.184 89.5071 76.796 89.4748 76.4127 89.4748C74.6082 91.6175 72.8036 93.9176 73.0704 94.1113C73.57 94.5592 75.9907 92.2914 76.99 91.331C77.6837 90.6934 78.5666 91.4279 77.8341 92.0977C76.1071 93.5989 73.5312 96.5406 71.455 96.2218C69.9172 96.0281 69.3011 94.5915 70.5721 93.155C71.1105 92.5174 72.2651 90.9799 73.4536 89.4142C73.2595 89.4142 73.0704 89.4142 72.8763 89.4142C72.1826 89.4142 72.9151 88.0382 73.6088 88.0059C73.8029 88.0059 74.1473 88.0059 74.5305 88.0059C75.7578 86.4079 76.8348 85.0319 77.184 84.7777C77.8001 84.2975 78.5278 83.9141 79.1439 84.0433C79.7502 84.1966 80.6719 84.9028 79.5222 85.9883Z" fill="#767676"/>
<path d="M87.7048 92.126C86.0118 93.6271 83.4795 96.5365 81.4033 96.25C80.6368 96.1209 80.3264 95.5479 80.404 94.8417C79.7491 95.447 78.8662 95.9918 77.9057 95.9918C74.7185 95.9918 75.6402 92.6344 77.5224 90.8145C79.4047 88.9906 81.7865 87.7154 83.2855 88.2238C83.7852 88.3853 84.0908 88.704 84.246 89.0551C84.3236 88.9583 84.3624 88.8937 84.4401 88.8332C85.0561 88.353 85.8226 87.9696 86.3999 88.131C87.0548 88.2602 87.9377 88.9946 86.8219 90.0801C85.517 91.2947 83.0575 93.7239 83.4407 94.0427C83.7852 94.3292 85.939 92.2833 86.9383 91.327C87.6272 90.6854 88.4325 91.4844 87.7048 92.126ZM81.2869 92.126C82.4802 90.9113 83.2079 89.8904 82.9411 89.6967C82.7131 89.503 81.5197 90.3989 80.2148 91.7103C78.9486 92.9895 78.2937 94.2364 78.449 94.3615C78.7886 94.648 80.0935 93.3406 81.2869 92.126Z" fill="#767676"/>
<path d="M94.469 85.9883C94.0858 86.3716 93.3533 87.1383 92.548 88.0987C92.8148 88.0987 93.0477 88.131 93.1641 88.131C93.7802 88.1633 93.1253 89.5071 92.3976 89.5071C92.1308 89.5071 91.7427 89.4748 91.3595 89.4748C89.5549 91.6175 87.7503 93.9176 88.0171 94.1113C88.5168 94.5592 90.9375 92.2914 91.9368 91.331C92.6305 90.6934 93.5134 91.4279 92.7809 92.0977C91.0539 93.5989 88.478 96.5406 86.4017 96.2218C84.8639 96.0281 84.2478 94.5915 85.5188 93.155C86.0573 92.5174 87.2118 90.9799 88.4003 89.4142C88.2063 89.4142 88.0171 89.4142 87.8231 89.4142C87.1294 89.4142 87.8619 88.0382 88.5556 88.0059C88.7496 88.0059 89.0941 88.0059 89.4773 88.0059C90.7046 86.4079 91.7815 85.0319 92.1308 84.7777C92.7469 84.2975 93.4746 83.9141 94.0907 84.0433C94.697 84.1966 95.6187 84.9028 94.469 85.9883Z" fill="#767676"/>
<path d="M97.3091 92.1261C95.5772 93.6272 93.0838 96.5366 90.9687 96.2501C89.4697 96.0282 89.3145 94.5876 90.5467 93.151C91.8516 91.6822 93.3118 89.4104 94.0055 88.8374C94.6216 88.3572 95.3881 87.9738 95.9653 88.1352C96.6202 88.2644 97.5419 88.9988 96.3874 90.0843C95.0824 91.2989 92.6229 93.7281 93.0062 94.0469C93.3506 94.3334 95.5433 92.2875 96.5426 91.3312C97.1927 90.6855 98.0367 91.4845 97.3091 92.1261ZM97.3867 87.2677C95.5433 87.2677 97.3479 83.878 99.4629 84.2614C101.418 84.6125 98.8469 87.651 97.3867 87.2677Z" fill="#767676"/>
<path d="M106.533 92.1258C105.956 92.606 105.344 93.2435 104.69 93.8529C103.229 95.1643 102.768 95.6445 101.347 95.4185C101.114 95.3863 100.964 95.3217 100.809 95.2249C99.887 95.7696 98.9653 96.0561 98.1939 96.0561C95.5792 96.0561 94.7351 93.8488 96.3117 91.6456C97.8883 89.41 100.459 87.9695 102.308 87.9695C104.267 87.9695 105.766 89.3132 104.229 91.8352C103.729 92.6342 103.152 93.3363 102.536 93.9457C102.802 93.8488 103.263 93.5623 103.729 93.1467C104.457 92.5374 105.228 91.8029 105.728 91.3228C106.417 90.6852 107.261 91.4842 106.533 92.1258ZM102.191 89.8539C101.075 89.8539 97.311 94.2645 98.388 94.2645C99.1933 94.2645 103.307 89.8539 102.191 89.8539Z" fill="#767676"/>
<path d="M115.52 92.1261C113.793 93.6271 111.295 96.5365 109.18 96.25C107.065 95.9312 107.603 94.2364 108.874 92.7999C110.101 91.3634 111.678 90.2739 111.411 89.9874C111.178 89.7009 108.874 91.6499 108.146 92.2875C107.302 93.3406 106.453 94.3656 105.92 94.9709C105.115 95.8989 104.765 96.25 103.844 96.25C102.422 96.25 102.805 94.6844 104.537 92.7999C105.803 91.3634 106.919 89.8583 107.113 89.5395C107.69 88.5791 107.88 88.103 108.69 88.103C109.306 88.103 110.072 88.4863 110.189 89.1562C111.11 88.5509 112.071 88.103 113.031 88.103C113.953 88.103 115.258 88.9988 114.031 90.4676C112.803 91.9364 110.844 93.728 111.227 94.0468C111.571 94.3333 113.725 92.2875 114.724 91.3311C115.404 90.6855 116.253 91.4845 115.52 92.1261Z" fill="#767676"/>
<path d="M16.9239 46.1202L18.2434 48.162C20.0577 50.9706 18.7867 54.5015 15.4492 55.9945L12.4949 57.3181L18.5005 66.5993C18.7916 67.0472 18.5927 67.5839 18.0591 67.826L15.3764 69.0285C14.838 69.2707 14.1927 69.1052 13.9017 68.6613L0.483642 47.932C0.192578 47.4841 0.391459 46.9474 0.925076 46.7053L7.51769 43.7514C10.8601 42.2543 15.1096 43.3156 16.9239 46.1202ZM12.2184 48.0208C11.7624 47.3186 10.7436 47.0362 9.89955 47.4155L6.94527 48.7391L10.0014 53.4604L12.9557 52.1368C13.7998 51.7575 14.0812 50.8939 13.6446 50.2241L12.2184 48.0208Z" fill="#767676"/>
<path d="M25.7422 41.5121L27.9834 46.5763L31.578 45.4747C32.1504 45.3012 32.7665 45.5352 32.9751 46.0114L33.9065 48.1178C34.1151 48.594 33.8338 49.1064 33.2613 49.28L29.6667 50.3816L32.8393 57.5522L38.5199 55.813C39.0923 55.6395 39.7084 55.8735 39.917 56.3497L40.8775 58.5247C41.0861 59.0008 40.8047 59.5133 40.2323 59.6868L30.6272 62.6285C30.0548 62.802 29.4387 62.568 29.2301 62.0918L19.4504 39.9989C19.2418 39.5228 19.5231 39.0103 20.0956 38.8368L29.6958 35.8951C30.2682 35.7216 30.8843 35.9556 31.0929 36.4318L32.0534 38.6068C32.262 39.0829 31.9807 39.5954 31.4082 39.7689L25.7422 41.5121Z" fill="#767676"/>
<path d="M49.698 32.3684L50.3917 34.6886C50.5372 35.1809 50.1443 35.6732 49.5961 35.7862L45.9627 36.5368L51.8227 56.1884C51.9683 56.6807 51.619 57.1649 51.0272 57.2859L48.068 57.8953C47.5198 58.0083 46.8941 57.7258 46.7485 57.2335L40.8884 37.5819L37.2938 38.3244C36.702 38.4454 36.1198 38.1549 35.9743 37.6626L35.2806 35.3423C35.1351 34.85 35.4844 34.3658 36.0762 34.2448L48.3736 31.7066C48.9315 31.5936 49.5524 31.8761 49.698 32.3684Z" fill="#767676"/>
<path d="M67.4993 42.836L72.3892 48.4127C72.6657 48.7476 72.8209 49.1673 72.8889 49.5627L73.4904 53.15C73.5728 53.6504 73.209 54.0983 72.6075 54.1669L69.5901 54.5179C68.9886 54.5865 68.4016 54.2516 68.3191 53.7513L67.8971 51.2414C67.8292 50.8459 67.6788 50.4626 67.3926 50.055L61.5859 43.4857L63.405 54.3565C63.4875 54.8569 63.08 55.3089 62.4784 55.3774L59.4611 55.7285C58.8984 55.7931 58.3162 55.4581 58.2338 54.9578L54.3238 31.6383C54.2413 31.1379 54.6925 30.6819 55.2503 30.6174L62.7113 29.7538C66.5048 29.314 70.0024 31.5414 70.5312 34.697L70.9096 36.9567C71.3171 39.394 69.8569 41.686 67.4993 42.836ZM63.4002 33.8778L60.0384 34.2692L60.9358 39.6159L64.2976 39.2245C65.2047 39.1196 65.8694 38.3852 65.7335 37.5579L65.3163 35.0844C65.1853 34.2934 64.3073 33.7729 63.4002 33.8778Z" fill="#767676"/>
<path d="M90.7088 32.8324L91.3636 48.8726C91.4704 51.4431 89.0303 53.5777 85.9838 53.6625L81.1959 53.7956C78.1057 53.8844 75.5395 51.891 75.4377 49.3205L74.7828 33.2803C74.676 30.7098 77.0725 28.5389 80.1626 28.4541L84.9506 28.321C87.9922 28.2362 90.602 30.266 90.7088 32.8324ZM85.4987 33.3449C85.4793 32.8364 84.9409 32.4894 84.3296 32.5096L81.1085 32.6024C80.4973 32.6185 79.9928 32.9978 80.0122 33.5023L80.6331 48.7072C80.6525 49.2156 81.1959 49.6353 81.8022 49.6151L85.0233 49.5223C85.6346 49.5061 86.1391 49.0542 86.1148 48.5498L85.4987 33.3449Z" fill="#767676"/>
<path d="M101.294 29.4622L99.8773 49.7474L105.961 50.042C106.567 50.0702 107.018 50.4939 106.984 50.9983L106.824 53.3105C106.79 53.8149 106.281 54.1902 105.674 54.1619L95.458 53.6696C94.8516 53.6414 94.4005 53.2177 94.4344 52.7133L96.0741 29.212C96.1081 28.7076 96.6174 28.3324 97.2238 28.3606L100.265 28.5059C100.877 28.5382 101.328 28.9578 101.294 29.4622Z" fill="#767676"/>
<path d="M117.385 34.0068L116.459 39.3494L120.252 39.8054C120.854 39.878 121.261 40.33 121.174 40.8303L120.791 43.0537C120.704 43.5541 120.16 43.8931 119.559 43.8204L115.765 43.3645L114.455 50.9304L120.447 51.6487C121.048 51.7214 121.456 52.1733 121.368 52.6736L120.97 54.9697C120.883 55.47 120.34 55.809 119.738 55.7364L109.609 54.5218C109.008 54.4491 108.6 53.9972 108.688 53.4968L112.724 30.1936C112.811 29.6932 113.354 29.3542 113.956 29.4269L124.085 30.6415C124.686 30.7141 125.094 31.166 125.007 31.6664L124.609 33.9624C124.521 34.4628 123.978 34.8018 123.377 34.7291L117.385 34.0068Z" fill="#767676"/>
<path d="M142.032 34.0066L144.986 34.632C145.578 34.7571 145.913 35.2777 145.762 35.77L139.883 54.9334C139.131 57.3909 136.055 58.9041 133.106 58.2787L128.463 57.2941C125.509 56.6686 123.685 54.1102 124.442 51.6568L130.321 32.4934C130.472 32.001 131.063 31.6782 131.655 31.8033L134.61 32.4288C135.201 32.5539 135.536 33.0744 135.386 33.5667L129.632 52.3105C129.482 52.8028 129.87 53.2951 130.462 53.4202L133.586 54.082C134.178 54.2071 134.804 53.9287 134.954 53.4364L140.707 34.6926C140.848 34.2043 141.44 33.8815 142.032 34.0066Z" fill="#767676"/>
<path d="M163.053 63.2341L161.477 66.3373C161.234 66.8013 160.565 66.995 160.046 66.8053L157.251 65.7925C156.693 65.5907 156.446 65.0661 156.689 64.6021L158.042 62.0114C158.149 61.8137 158.231 61.6442 158.299 61.4344L162.33 50.3737L155.403 59.7153C155.117 60.0866 154.559 60.2399 154.079 60.0664L151.042 58.9688C150.562 58.7953 150.28 58.3393 150.406 57.9116L153.904 47.327L146.919 57.3184C146.773 57.504 146.686 57.6695 146.584 57.8672L145.23 60.4578C144.988 60.9219 144.357 61.1277 143.799 60.9259L141.005 59.9131C140.447 59.7113 140.2 59.1867 140.442 58.7227L142.097 55.6478C142.15 55.5469 142.271 55.3169 142.451 55.0627L155.078 38.1871C155.364 37.8159 155.922 37.6625 156.441 37.8522L159.434 38.9377C159.953 39.1273 160.196 39.5672 160.07 39.9949L156.136 52.5931L164.581 41.6252C164.867 41.2539 165.425 41.1006 165.906 41.2741L168.942 42.3717C169.461 42.5613 169.704 43.0012 169.578 43.4289L163.339 62.6167C163.228 62.8992 163.107 63.1332 163.053 63.2341Z" fill="#767676"/>
<path d="M88.426 61.3579C88.4066 61.3579 88.3823 61.3579 88.3629 61.3579C88.3532 61.3579 88.3436 61.3579 88.329 61.3579C88.3193 61.3579 88.3096 61.3579 88.2951 61.3579C88.2756 61.3579 88.2514 61.3579 88.232 61.3579C57.4617 61.3579 30.2909 68.5325 13.8943 79.5002L21.6463 82.7163L22.5825 90.1855C25.3379 88.1396 28.6949 86.1704 32.6339 84.3304C47.2696 77.4826 67.0134 73.7097 88.2271 73.7097C88.2465 73.7097 88.2708 73.7097 88.2902 73.7097C88.2999 73.7097 88.3096 73.7097 88.3242 73.7097C88.3339 73.7097 88.3436 73.7097 88.3581 73.7097C88.3775 73.7097 88.4018 73.7097 88.4212 73.7097C109.64 73.7097 129.384 77.4826 144.014 84.3304C147.953 86.1744 151.31 88.1396 154.066 90.1855L155.002 82.7163L162.754 79.5002C146.367 68.5325 119.196 61.3579 88.426 61.3579Z" fill="#767676"/>
<path d="M55.2697 92.9655C56.8948 92.9655 56.8948 90.8713 55.2697 90.8713C53.6446 90.8713 53.6446 92.9655 55.2697 92.9655Z" fill="#767676"/>
<path d="M119.551 92.9655C121.176 92.9655 121.176 90.8713 119.551 90.8713C117.926 90.8713 117.926 92.9655 119.551 92.9655Z" fill="#767676"/>
<path d="M31.1077 78.9835C31.5588 79.6089 31.3163 80.4159 30.5643 80.7911C29.8221 81.1623 28.8422 80.9646 28.391 80.3392C27.9447 79.7219 28.1921 78.9028 28.9343 78.5316C29.6863 78.1563 30.6614 78.3662 31.1077 78.9835Z" fill="white"/>
<path d="M39.2148 76.3484L39.7873 77.3612C40.2142 78.1158 39.8309 79.0198 38.9238 79.3789L36.9639 80.1456C36.8184 80.2021 36.6534 80.1537 36.5855 80.0326L33.4275 74.4558C33.3596 74.3347 33.4178 74.1975 33.5633 74.141L35.3582 73.4389C36.2654 73.0837 37.3472 73.4146 37.7741 74.1693L38.0894 74.7261C38.2495 75.0086 38.3028 75.3032 38.2398 75.5897C38.6618 75.7229 39.0111 75.9852 39.2148 76.3484ZM35.8239 76.0094L36.6389 75.6906C36.8572 75.6058 36.9542 75.3799 36.8523 75.1983L36.5176 74.6051C36.4109 74.4154 36.1392 74.3347 35.9209 74.4194L35.106 74.7382L35.8239 76.0094ZM37.9487 76.7801C37.842 76.5905 37.5703 76.5098 37.352 76.5945L36.3721 76.9779L37.3811 78.7615L38.361 78.3781C38.5793 78.2934 38.6764 78.0674 38.5648 77.8697L37.9487 76.7801Z" fill="white"/>
<path d="M40.402 72.7774L41.0424 74.0888L41.9738 73.774C42.1242 73.7256 42.2842 73.7821 42.3473 73.9032L42.6141 74.4479C42.6723 74.573 42.6044 74.7062 42.4589 74.7586L41.5275 75.0734L42.4298 76.9295L43.8997 76.4332C44.0452 76.3848 44.2101 76.4413 44.2683 76.5623L44.5449 77.1232C44.6031 77.2483 44.5352 77.3815 44.3896 77.4339L41.9059 78.2692C41.7555 78.3176 41.5954 78.2611 41.5323 78.1401L38.7478 72.4263C38.6896 72.3052 38.7575 72.168 38.9031 72.1156L41.3868 71.2803C41.5323 71.2319 41.6973 71.2884 41.7555 71.4094L42.0272 71.9703C42.0854 72.0914 42.0174 72.2286 41.8719 72.281L40.402 72.7774Z" fill="white"/>
<path d="M46.2965 71.5827L46.2189 71.393C46.1364 71.1953 45.8793 71.0984 45.6416 71.167L45.1468 71.3123C44.9091 71.3809 44.7781 71.5907 44.8606 71.7885L45.0886 72.3332C45.1711 72.5309 45.4282 72.6278 45.6707 72.5673L46.1655 72.422C47.1261 72.1436 48.1545 72.5592 48.4892 73.3582L48.9501 74.4598C49.2799 75.2467 48.7754 76.1182 47.8295 76.3926L47.3347 76.5379C46.3887 76.8123 45.3408 76.3926 45.011 75.6017L44.7054 74.8673C44.652 74.7422 44.7296 74.6091 44.88 74.5647L45.6319 74.3468C45.7823 74.3024 45.9424 74.367 45.9958 74.4921L46.3208 75.2709C46.4032 75.4686 46.6652 75.5735 46.9029 75.5049L47.3977 75.3596C47.6354 75.291 47.7615 75.0731 47.6791 74.8754L47.1891 73.7092C47.1066 73.5115 46.8495 73.4147 46.6118 73.4833L46.117 73.6285C45.1662 73.8948 44.1281 73.4913 43.7982 72.7045L43.5848 72.192C43.2549 71.4051 43.7594 70.5335 44.7054 70.2591L45.2002 70.1138C46.1607 69.8354 47.194 70.2591 47.5238 71.05L47.5869 71.2034C47.6403 71.3284 47.5627 71.4616 47.4123 71.506L46.6604 71.7239C46.51 71.7723 46.3499 71.7078 46.2965 71.5827Z" fill="white"/>
<path d="M51.9436 68.6131L52.157 69.2143C52.2007 69.3434 52.1085 69.4725 51.963 69.5088L51.0219 69.7388L52.8313 74.823C52.875 74.9521 52.7925 75.0812 52.6373 75.1175L51.8708 75.3071C51.7301 75.3435 51.5604 75.2749 51.5167 75.1457L49.7072 70.0616L48.7807 70.2916C48.6255 70.3279 48.4702 70.2594 48.4266 70.1302L48.2131 69.529C48.1695 69.3999 48.2519 69.2708 48.4072 69.2345L51.5895 68.4517C51.735 68.4194 51.8999 68.4839 51.9436 68.6131Z" fill="white"/>
<path d="M60.9791 72.2526L61.4254 72.1719C61.5564 72.1477 61.7213 72.2244 61.7553 72.3535L61.9154 72.9548C61.9493 73.0839 61.8426 73.209 61.6873 73.2413L59.485 73.6489C58.6166 73.8103 57.758 73.3543 57.5688 72.64L56.5355 68.762C56.3414 68.0396 56.8896 67.3254 57.758 67.168L58.6942 66.9944C59.5626 66.833 60.4212 67.289 60.6104 68.0114L61.4594 71.2074C61.5661 71.611 61.3623 72.0186 60.9791 72.2526ZM59.2715 68.2535C59.2376 68.1244 59.0726 68.0356 58.9174 68.0679L58.0927 68.2212C57.9375 68.2495 57.8307 68.3867 57.8695 68.5158L58.9028 72.3979C58.9368 72.5189 59.0969 72.6037 59.2521 72.5754L60.363 72.3696L59.2715 68.2535Z" fill="white"/>
<path d="M64.9235 65.9979L65.7094 65.8849C65.8646 65.8607 66.015 65.9576 66.0393 66.0867L67.1113 71.1875C67.2472 71.8412 66.7087 72.4788 65.9228 72.5918L64.6858 72.7694C63.8999 72.8823 63.1334 72.4344 62.9976 71.7807L61.9255 66.6799C61.8964 66.5508 61.9983 66.4176 62.1535 66.3974L62.9394 66.2844C63.0946 66.2602 63.245 66.3571 63.2693 66.4862L64.3171 71.474C64.3462 71.6031 64.5014 71.6878 64.6567 71.6636L65.4862 71.5426C65.6415 71.5184 65.7579 71.3973 65.7288 71.2682L64.6809 66.2804C64.6664 66.1513 64.7682 66.0181 64.9235 65.9979Z" fill="white"/>
<path d="M72.4837 70.7196L72.6147 71.5468C72.6341 71.68 72.5274 71.797 72.3673 71.8131L71.562 71.9019C71.4165 71.918 71.2758 71.8293 71.2515 71.6961L71.1157 70.8406L69.6022 71.0061L69.738 71.8616C69.7574 71.9947 69.6507 72.1117 69.4906 72.1279L68.6999 72.2166C68.5398 72.2328 68.3991 72.144 68.3797 72.0109L68.2487 71.1836C68.2439 71.1473 68.239 71.1191 68.239 71.0585L68.3894 65.7603C68.3942 65.6352 68.5058 65.5383 68.6514 65.5222L70.3492 65.3366C70.4948 65.3204 70.6257 65.4132 70.6646 65.5141L72.4497 70.6025C72.4691 70.655 72.474 70.6833 72.4837 70.7196ZM70.7907 69.7955L69.6652 66.5391L69.5925 69.9246L70.7907 69.7955Z" fill="white"/>
<path d="M74.3239 65.2068L74.9352 70.5051L76.5264 70.376C76.6864 70.3638 76.8223 70.4567 76.8368 70.5898L76.9047 71.1951C76.9193 71.3283 76.8077 71.4413 76.6476 71.4534L73.9795 71.6672C73.8195 71.6793 73.6836 71.5865 73.6691 71.4534L72.9608 65.3158C72.9462 65.1826 73.0578 65.0696 73.2179 65.0575L74.0135 64.9929C74.1736 64.9808 74.3094 65.0736 74.3239 65.2068Z" fill="white"/>
<path d="M79.0491 71.3081L78.2535 71.3565C78.0935 71.3646 77.9625 71.2678 77.9479 71.1346L77.4288 64.993C77.4191 64.8599 77.5356 64.7388 77.6908 64.7307L78.4864 64.6823C78.6465 64.6743 78.7823 64.7792 78.792 64.9123L79.3111 71.0539C79.3256 71.1871 79.2092 71.3 79.0491 71.3081Z" fill="white"/>
<path d="M83.9153 64.6935L83.9492 65.319C83.9541 65.4522 83.8231 65.5611 83.6776 65.5652L82.6977 65.6015L82.9742 70.8999C82.979 71.0331 82.8626 71.142 82.7025 71.1461L81.9069 71.1743C81.7565 71.1783 81.6159 71.0815 81.611 70.9483L81.3345 65.6499L80.3643 65.6862C80.2042 65.6902 80.0732 65.5934 80.0684 65.4602L80.0344 64.8348C80.0296 64.7016 80.146 64.5926 80.3061 64.5886L83.6242 64.4675C83.7649 64.4595 83.9056 64.5603 83.9153 64.6935Z" fill="white"/>
<path d="M88.2589 64.4085L89.0593 64.4004C89.2194 64.4004 89.3455 64.5013 89.3455 64.6344L89.3552 65.5745C89.3552 65.6795 89.3358 65.7844 89.2776 65.8772L87.8562 68.3627L87.8853 70.8079C87.8853 70.941 87.764 71.0459 87.604 71.0459L86.8035 71.054C86.6435 71.054 86.5173 70.9531 86.5173 70.82L86.4882 68.3748L84.9989 65.9095C84.9504 65.8166 84.9165 65.7117 84.9165 65.6068L84.9068 64.6667C84.9068 64.5335 85.028 64.4286 85.1881 64.4286L85.9886 64.4206C86.1487 64.4206 86.2748 64.5214 86.2748 64.6546L86.2845 65.3768C86.2845 65.4535 86.3087 65.5302 86.3573 65.5947L87.1577 66.9343L87.929 65.5826C87.963 65.5181 87.9824 65.4414 87.9824 65.3647L87.9727 64.6425C87.9775 64.5174 88.0988 64.4125 88.2589 64.4085Z" fill="white"/>
<path d="M96.5983 67.923C96.5595 68.6536 95.8173 69.2145 94.9392 69.1782C94.0709 69.1459 93.3869 68.5284 93.4305 67.7979C93.4693 67.0755 94.2213 66.5064 95.0896 66.5427C95.9677 66.5791 96.6371 67.2046 96.5983 67.923Z" fill="white"/>
<path d="M105.086 69.2302L104.945 70.3439C104.843 71.1752 103.951 71.7845 102.951 71.6957L100.798 71.5101C100.638 71.498 100.526 71.381 100.545 71.2478L101.317 65.1184C101.331 64.9853 101.472 64.8925 101.632 64.9086L103.606 65.0781C104.606 65.1628 105.324 65.9134 105.222 66.7446L105.144 67.3579C105.105 67.6686 104.97 67.943 104.732 68.1609C105.003 68.4636 105.139 68.8348 105.086 69.2302ZM103.732 69.0567C103.757 68.8509 103.577 68.6613 103.34 68.6411L102.263 68.5483L102.015 70.5094L103.092 70.6022C103.33 70.6224 103.558 70.469 103.582 70.2552L103.732 69.0567ZM102.394 67.483L103.291 67.5597C103.529 67.5799 103.757 67.4265 103.781 67.2288L103.863 66.5792C103.888 66.3734 103.708 66.1837 103.471 66.1635L102.573 66.0869L102.394 67.483Z" fill="white"/>
<path d="M108.237 66.6437L107.995 68.044L108.989 68.161C109.149 68.1812 109.256 68.2982 109.232 68.4274L109.13 69.0085C109.106 69.1416 108.965 69.2304 108.81 69.2102L107.815 69.0932L107.476 71.0746L109.043 71.2602C109.203 71.2804 109.309 71.3975 109.285 71.5266L109.183 72.1279C109.159 72.261 109.018 72.3498 108.858 72.3297L106.205 72.0149C106.045 71.9947 105.943 71.8777 105.962 71.7485L107.01 65.6469C107.034 65.5137 107.175 65.429 107.335 65.4451L109.989 65.7599C110.149 65.7801 110.25 65.8971 110.231 66.0262L110.129 66.6275C110.105 66.7607 109.964 66.8455 109.804 66.8293L108.237 66.6437Z" fill="white"/>
<path d="M114.029 68.0399L114.072 67.8421C114.116 67.6363 113.951 67.4467 113.704 67.4104L113.19 67.3337C112.942 67.2974 112.704 67.4225 112.661 67.6283L112.535 68.1972C112.491 68.403 112.656 68.5927 112.903 68.637L113.418 68.7137C114.417 68.8671 115.067 69.6499 114.883 70.4771L114.63 71.623C114.451 72.4462 113.495 72.995 112.51 72.8457L111.996 72.769C111.011 72.6197 110.347 71.8248 110.526 71.0057L110.696 70.239C110.725 70.1099 110.871 70.0251 111.026 70.0493L111.812 70.1704C111.967 70.1946 112.069 70.3157 112.04 70.4448L111.86 71.2559C111.817 71.4616 111.982 71.6594 112.229 71.6957L112.743 71.7723C112.991 71.8087 113.228 71.6715 113.272 71.4657L113.539 70.2511C113.582 70.0453 113.418 69.8557 113.17 69.8193L112.656 69.7427C111.671 69.5853 111.007 68.8065 111.186 67.9874L111.302 67.4548C111.482 66.6356 112.438 66.0828 113.422 66.2321L113.937 66.3088C114.936 66.4581 115.586 67.253 115.402 68.0721L115.368 68.2295C115.339 68.3586 115.193 68.4434 115.038 68.4192L114.252 68.2981C114.102 68.2941 114 68.173 114.029 68.0399Z" fill="white"/>
<path d="M120.658 67.7371L120.494 68.3464C120.46 68.4755 120.299 68.5522 120.154 68.5239L119.198 68.3464L117.801 73.5195C117.767 73.6487 117.617 73.7294 117.462 73.6971L116.681 73.5518C116.535 73.5236 116.428 73.3985 116.467 73.2694L117.864 68.0962L116.918 67.9187C116.763 67.8904 116.666 67.7653 116.705 67.6362L116.87 67.0269C116.904 66.8978 117.054 66.8171 117.209 66.8493L120.445 67.4546C120.586 67.4829 120.692 67.608 120.658 67.7371Z" fill="white"/>
<path d="M128.409 70.8645L128.201 71.4456C127.915 72.2447 126.891 72.7047 125.94 72.4666L125.101 72.2568L124.15 74.9C124.107 75.0291 123.946 75.0977 123.796 75.0614L123.03 74.8717C122.874 74.8354 122.792 74.7022 122.84 74.5771L124.96 68.6693C125.004 68.5442 125.164 68.4715 125.314 68.5078L127.192 68.9759C128.143 69.214 128.696 70.0655 128.409 70.8645ZM127.114 70.4933C127.187 70.2915 127.061 70.0857 126.818 70.0252L125.979 69.8153L125.499 71.1591L126.338 71.369C126.581 71.4295 126.823 71.3125 126.891 71.1188L127.114 70.4933Z" fill="white"/>
<path d="M131.652 73.9313L131.982 75.7188C131.997 75.8238 131.972 75.9367 131.934 76.0376L131.555 76.9334C131.502 77.0585 131.352 77.1271 131.201 77.0827L130.449 76.8608C130.299 76.8164 130.212 76.6792 130.265 76.5541L130.532 75.9287C130.575 75.8318 130.595 75.7269 130.585 75.6018L130.187 73.4914L129.038 76.2031C128.984 76.3281 128.824 76.3927 128.674 76.3483L127.922 76.1264C127.781 76.086 127.694 75.9488 127.747 75.8238L130.216 70.0091C130.27 69.884 130.44 69.8235 130.58 69.8639L132.443 70.4086C133.389 70.687 133.879 71.5546 133.544 72.3414L133.307 72.9064C133.04 73.5116 132.37 73.899 131.652 73.9313ZM131.997 71.4376L131.158 71.1914L130.59 72.523L131.429 72.7692C131.657 72.8337 131.919 72.7328 132.006 72.5271L132.268 71.9097C132.356 71.712 132.225 71.5021 131.997 71.4376Z" fill="white"/>
<path d="M133.49 77.8417L132.747 77.5955C132.597 77.5471 132.529 77.4099 132.587 77.2888L135.333 71.5708C135.391 71.4457 135.561 71.3811 135.707 71.4295L136.449 71.6757C136.599 71.7241 136.662 71.8694 136.604 71.9945L133.858 77.7125C133.8 77.8336 133.64 77.8941 133.49 77.8417Z" fill="white"/>
<path d="M139.174 76.5382L139.902 76.8126C140.047 76.8691 140.106 77.0143 140.038 77.1354L139.242 78.6042C138.912 79.2095 138.049 79.488 137.311 79.2136L136.167 78.7858C135.439 78.5114 135.109 77.7851 135.434 77.1798L137.515 73.3422C137.85 72.7289 138.709 72.4585 139.446 72.7329L140.591 73.1607C141.328 73.4391 141.653 74.1533 141.323 74.7667L140.809 75.719C140.746 75.8401 140.571 75.9006 140.426 75.8481L139.698 75.5738C139.553 75.5173 139.494 75.372 139.562 75.2509L140.028 74.3955C140.091 74.2744 140.018 74.1332 139.887 74.0807L139.106 73.7902C138.961 73.7337 138.786 73.7821 138.718 73.9032L136.754 77.5349C136.69 77.656 136.763 77.7972 136.909 77.8537L137.69 78.1442C137.826 78.1967 138 78.1483 138.068 78.0272L138.806 76.6713C138.859 76.5463 139.029 76.4857 139.174 76.5382Z" fill="white"/>
<path d="M143.986 75.7393L143.2 76.9942L144.088 77.3816C144.229 77.4422 144.282 77.5834 144.209 77.7004L143.88 78.221C143.807 78.338 143.637 78.3824 143.496 78.3219L142.609 77.9345L141.493 79.71L142.9 80.3193C143.04 80.3799 143.094 80.5211 143.021 80.6381L142.681 81.1748C142.609 81.2919 142.439 81.3362 142.298 81.2757L139.921 80.2427C139.781 80.1821 139.727 80.0409 139.8 79.9239L143.234 74.456C143.307 74.339 143.477 74.2946 143.618 74.3551L145.995 75.3882C146.135 75.4487 146.189 75.59 146.116 75.707L145.776 76.2437C145.704 76.3607 145.534 76.4051 145.393 76.3446L143.986 75.7393Z" fill="white"/>
<path d="M148.217 80.3113C147.766 80.9368 146.795 81.1426 146.044 80.7673C145.301 80.396 145.044 79.5848 145.495 78.9593C145.942 78.3418 146.926 78.136 147.669 78.5032C148.425 78.8786 148.663 79.6938 148.217 80.3113Z" fill="white"/>
<path d="M91.8265 14.5529C91.8265 18.2491 88.2222 21.2473 83.7787 21.2473C79.3351 21.2473 75.7307 18.2491 75.7307 14.5529C75.7307 10.8567 83.7787 0.821167 83.7787 0.821167C83.7787 0.821167 91.8265 10.8567 91.8265 14.5529Z" fill="#767676"/>
<path d="M66.8198 23.7089C63.7151 23.7089 61.1877 21.6065 61.1877 19.024C61.1877 16.6634 65.6798 10.9939 66.194 10.3563L66.8247 9.57346L67.4553 10.3563C67.9695 10.9939 72.4616 16.6634 72.4616 19.024C72.4519 21.6065 69.9245 23.7089 66.8198 23.7089ZM66.8198 11.8574C65.2723 13.8871 62.6964 17.5673 62.6964 19.024C62.6964 20.9125 64.5446 22.4539 66.8198 22.4539C69.0901 22.4539 70.9432 20.9165 70.9432 19.024C70.9432 17.5673 68.3673 13.8831 66.8198 11.8574Z" fill="#767676"/>
<path d="M102.542 22.8977C99.4372 22.8977 96.9098 20.7953 96.9098 18.2128C96.9098 15.8522 101.402 10.1826 101.916 9.54508L102.547 8.76224L103.177 9.54508C103.692 10.1826 108.184 15.8522 108.184 18.2128C108.174 20.7953 105.647 22.8977 102.542 22.8977ZM102.542 11.0462C100.994 13.0759 98.4185 16.7561 98.4185 18.2128C98.4185 20.1053 100.267 21.6427 102.542 21.6427C104.812 21.6427 106.665 20.1053 106.665 18.2128C106.665 16.7561 104.089 13.0759 102.542 11.0462Z" fill="#767676"/>
</svg>
