<svg width="171" height="103" viewBox="0 0 171 103" fill="none" xmlns="http://www.w3.org/2000/svg">
<path d="M61.3009 68.9704C61.1623 68.8222 60.9009 68.7958 60.7226 68.9111C57.5897 70.9539 55.1301 72.4694 52.7497 73.817C52.5635 73.9224 52.5121 74.1366 52.6428 74.2914C52.722 74.3903 52.8527 74.4397 52.9834 74.4397C53.0626 74.4397 53.1458 74.4199 53.2131 74.3804C55.6093 73.0229 58.0808 71.5008 61.2296 69.4482C61.4118 69.3362 61.4395 69.1187 61.3009 68.9704Z" fill="#767676"/>
<path d="M48.635 77.055C48.7181 77.055 48.8013 77.0352 48.8766 76.9891L49.9738 76.3303C50.156 76.2183 50.1995 76.0075 50.0649 75.8526C49.9302 75.6978 49.6727 75.6649 49.4905 75.7769L48.3933 76.4357C48.2111 76.5477 48.1676 76.7585 48.3022 76.9133C48.3814 77.0056 48.5082 77.055 48.635 77.055Z" fill="#767676"/>
<path d="M73.9679 69.1185L71.227 72.6668C71.1042 72.825 71.1596 73.0391 71.3498 73.1413C71.4171 73.1775 71.4963 73.1973 71.5716 73.1973C71.7062 73.1973 71.8409 73.1413 71.9162 73.0391L74.6571 69.4908C74.7799 69.3327 74.7245 69.1185 74.5343 69.0164C74.3482 68.9143 74.0907 68.9604 73.9679 69.1185Z" fill="#767676"/>
<path d="M60.6044 85.6608C60.7312 85.6608 60.854 85.6114 60.9372 85.5191L70.4193 74.739C70.5539 74.5874 70.5143 74.3733 70.3282 74.2613C70.146 74.1492 69.8885 74.1822 69.7539 74.3371L60.2717 85.1172C60.1371 85.2687 60.1767 85.4829 60.3628 85.5949C60.4341 85.641 60.5213 85.6608 60.6044 85.6608Z" fill="#767676"/>
<path d="M81.7428 69.2008C80.7724 72.2483 79.6752 75.3222 78.6138 78.294C77.2552 82.1026 75.8492 86.0397 74.6926 89.9702C74.6372 90.1547 74.7719 90.3392 74.9937 90.3853C75.0254 90.3919 75.061 90.3952 75.0927 90.3952C75.2788 90.3952 75.4452 90.2898 75.4927 90.1349C76.6413 86.2209 78.0434 82.2904 79.402 78.4917C80.4634 75.5133 81.5645 72.4328 82.5388 69.3787C82.5983 69.1975 82.4676 69.0097 82.2458 68.9603C82.0319 68.9109 81.8022 69.0196 81.7428 69.2008Z" fill="#767676"/>
<path d="M54.5862 82.1913C54.6971 82.1913 54.804 82.155 54.8872 82.0825L63.1217 74.8378C63.2762 74.6995 63.2722 74.4853 63.1058 74.3535C62.9395 74.2251 62.682 74.2316 62.5236 74.3667L54.2891 81.6114C54.1347 81.7498 54.1386 81.9639 54.305 82.0957C54.3842 82.1616 54.4832 82.1913 54.5862 82.1913Z" fill="#767676"/>
<path d="M48.4202 68.8518L44.1267 70.6471C43.9247 70.7328 43.8416 70.937 43.9445 71.105C44.0158 71.2236 44.1624 71.2928 44.3129 71.2928C44.3763 71.2928 44.4396 71.2796 44.499 71.2566L48.7925 69.4612C48.9945 69.3755 49.0777 69.1713 48.9747 69.0033C48.8677 68.8353 48.6222 68.7661 48.4202 68.8518Z" fill="#767676"/>
<path d="M64.8853 73.006L68.7866 69.4941C68.9411 69.3557 68.9292 69.1382 68.7628 69.0097C68.5965 68.8813 68.3351 68.8911 68.1806 69.0295L64.2793 72.5415C64.1249 72.6798 64.1367 72.8973 64.3031 73.0258C64.3823 73.0851 64.4813 73.118 64.5803 73.118C64.6912 73.1147 64.8022 73.0785 64.8853 73.006Z" fill="#767676"/>
<path d="M78.688 69.4613C78.783 69.29 78.6919 69.0857 78.482 69.0066C78.2761 68.9308 78.0305 69.0033 77.9354 69.1779C76.5888 71.6456 75.1233 74.1199 73.7053 76.5117C71.6061 80.0567 69.4357 83.7204 67.6018 87.4466C67.5147 87.6212 67.6177 87.8221 67.8276 87.8913C67.8791 87.9078 67.9306 87.9177 67.9821 87.9177C68.1444 87.9177 68.2989 87.8386 68.3623 87.7035C70.1842 83.9971 72.3508 80.3434 74.442 76.8115C75.8679 74.4164 77.3374 71.9355 78.688 69.4613Z" fill="#767676"/>
<path d="M92.6651 91.5779C92.6928 91.7492 92.8711 91.8744 93.0731 91.8744C93.0889 91.8744 93.1087 91.8744 93.1285 91.8711C93.3543 91.848 93.5127 91.6734 93.485 91.4889C92.9107 87.8285 92.4988 84.0858 92.0987 80.4682C91.6908 76.7551 91.267 72.9168 90.6649 69.1543C90.6332 68.9665 90.4312 68.838 90.2015 68.8611C89.9758 68.8874 89.8173 69.0588 89.849 69.2466C90.4471 72.9959 90.8709 76.8276 91.2788 80.5341C91.6749 84.1583 92.0908 87.9043 92.6651 91.5779Z" fill="#767676"/>
<path d="M96.9979 78.4722C98.5585 82.3895 100.171 86.4418 101.501 90.4876C101.553 90.6391 101.715 90.7413 101.897 90.7413C101.933 90.7413 101.969 90.738 102.004 90.7281C102.222 90.6787 102.353 90.4909 102.293 90.3097C100.959 86.2441 99.3427 82.1852 97.7782 78.258C96.594 75.283 95.3701 72.2058 94.2769 69.155C94.2135 68.9738 93.9838 68.8717 93.766 68.9244C93.5481 68.9771 93.4253 69.1682 93.4887 69.3494C94.5858 72.4101 95.8137 75.4906 96.9979 78.4722Z" fill="#767676"/>
<path d="M111.741 87.5227C111.816 87.6347 111.955 87.6973 112.097 87.6973C112.165 87.6973 112.236 87.6842 112.299 87.6545C112.497 87.5623 112.569 87.3514 112.454 87.1899C111.012 85.0682 109.57 82.9003 108.176 80.8016C105.622 76.9566 102.98 72.9832 100.235 69.1416C100.12 68.9802 99.8666 68.9275 99.6725 69.023C99.4784 69.1186 99.4111 69.3294 99.5299 69.4909C102.271 73.3226 104.909 77.2927 107.459 81.131C108.857 83.2264 110.299 85.3976 111.741 87.5227Z" fill="#767676"/>
<path d="M117.712 73.8561C117.792 73.9122 117.887 73.9385 117.982 73.9385C118.097 73.9385 118.211 73.899 118.295 73.8199C118.441 73.6749 118.421 73.4608 118.251 73.3389L111.981 68.8679C111.811 68.746 111.549 68.7625 111.403 68.9041C111.256 69.0491 111.276 69.2633 111.446 69.3852L117.712 73.8561Z" fill="#767676"/>
<path d="M123.845 78.6465C123.924 78.7091 124.027 78.7388 124.126 78.7388C124.237 78.7388 124.344 78.7025 124.427 78.6301C124.582 78.4917 124.574 78.2743 124.408 78.1458L122.76 76.8578C122.594 76.7293 122.332 76.7359 122.178 76.8743C122.023 77.0126 122.031 77.23 122.198 77.3585L123.845 78.6465Z" fill="#767676"/>
<path d="M85.7705 68.9141C85.5487 68.901 85.3427 69.0327 85.3229 69.2238C84.7565 74.1626 84.1703 79.5164 83.4732 86.0662C83.4534 86.254 83.6197 86.422 83.8455 86.4385C83.8574 86.4385 83.8692 86.4385 83.8811 86.4385C84.0911 86.4385 84.2733 86.3034 84.2891 86.1255C84.9823 79.5757 85.5685 74.2252 86.1349 69.2864C86.1626 69.1019 86.0002 68.9339 85.7705 68.9141Z" fill="#767676"/>
<path d="M83.862 86.5738C83.6442 86.5606 83.4343 86.6957 83.4145 86.8835L82.8916 91.5419C82.8718 91.7297 83.0382 91.8977 83.2639 91.9142C83.2758 91.9142 83.2917 91.9175 83.3036 91.9175C83.5135 91.9175 83.6917 91.7857 83.7115 91.6078L84.2344 86.9494C84.2542 86.7583 84.0878 86.5903 83.862 86.5738Z" fill="#767676"/>
<path d="M118.648 83.8951C118.739 83.8951 118.83 83.8688 118.905 83.8193C119.084 83.7007 119.111 83.4866 118.969 83.3383C114.275 78.4458 109.629 73.6488 105.158 69.0792C105.015 68.9309 104.754 68.9111 104.579 69.0297C104.405 69.1483 104.377 69.3658 104.52 69.5107C108.988 74.0804 113.634 78.8741 118.323 83.7666C118.41 83.8523 118.529 83.8951 118.648 83.8951Z" fill="#767676"/>
<path d="M123.983 71.2109C124.121 71.2109 124.252 71.1549 124.331 71.0494C124.45 70.888 124.395 70.6771 124.201 70.5783L121.06 68.944C120.87 68.8451 120.612 68.8912 120.493 69.0527C120.374 69.2141 120.43 69.425 120.624 69.5239L123.765 71.1582C123.832 71.1911 123.907 71.2109 123.983 71.2109Z" fill="#767676"/>
<path d="M109.99 37.7729C110.069 37.8618 110.192 37.908 110.315 37.908C110.402 37.908 110.489 37.8849 110.564 37.8388L122.625 30.1523C122.807 30.037 122.839 29.8229 122.7 29.6713C122.562 29.5231 122.304 29.4934 122.122 29.6087L110.061 37.2951C109.887 37.4072 109.851 37.6246 109.99 37.7729Z" fill="#767676"/>
<path d="M104.008 30.8417C103.818 30.7395 103.564 30.7856 103.437 30.9438L98.4587 37.3912C98.3359 37.5493 98.3913 37.7602 98.5814 37.8656C98.6488 37.9019 98.728 37.9183 98.8032 37.9183C98.9379 37.9183 99.0726 37.8623 99.1478 37.7602L104.126 31.3128C104.253 31.1546 104.198 30.9438 104.008 30.8417Z" fill="#767676"/>
<path d="M114.421 18.4598L104.938 29.24C104.804 29.3915 104.843 29.6057 105.03 29.7177C105.101 29.7638 105.188 29.7836 105.271 29.7836C105.398 29.7836 105.525 29.7342 105.604 29.6419L115.086 18.8617C115.221 18.7102 115.181 18.496 114.995 18.384C114.813 18.2753 114.555 18.3082 114.421 18.4598Z" fill="#767676"/>
<path d="M100.667 14.0154C100.722 13.8309 100.591 13.6463 100.373 13.5969C100.156 13.5508 99.9299 13.6595 99.8705 13.8407C99.2328 15.8835 98.5595 17.9459 97.8743 20.0018C98.1317 20.0908 98.3812 20.1962 98.6228 20.3181C99.3199 18.2194 100.009 16.1075 100.667 14.0154Z" fill="#767676"/>
<path d="M92.0439 37.5031C91.9844 37.6843 92.1191 37.872 92.337 37.9215C92.3726 37.9281 92.4083 37.9314 92.4399 37.9314C92.6221 37.9314 92.7885 37.8292 92.836 37.6744C93.2004 36.5114 93.5807 35.3418 93.9609 34.1723H93.1093C92.7489 35.2858 92.3924 36.3961 92.0439 37.5031Z" fill="#767676"/>
<path d="M117.712 25.3194L121.067 22.3676C121.221 22.2292 121.217 22.0151 121.051 21.8833C120.884 21.7549 120.627 21.7614 120.468 21.8965L117.114 24.8483C116.959 24.9866 116.963 25.2008 117.13 25.3325C117.209 25.3951 117.312 25.4248 117.411 25.4248C117.522 25.4281 117.633 25.3918 117.712 25.3194Z" fill="#767676"/>
<path d="M107.526 16.0875C107.316 16.0183 107.074 16.104 106.991 16.2786C106.611 17.0792 106.163 17.8468 105.688 18.6606C105.347 19.2471 104.995 19.8533 104.67 20.4694C104.579 20.644 104.674 20.845 104.884 20.9208C104.939 20.9405 104.995 20.9504 105.05 20.9504C105.209 20.9504 105.359 20.8746 105.426 20.7461C105.743 20.1432 106.092 19.5436 106.428 18.9637C106.888 18.173 107.363 17.3593 107.755 16.5356C107.838 16.3577 107.735 16.1567 107.526 16.0875Z" fill="#767676"/>
<path d="M119.835 37.7172C119.907 37.8358 120.053 37.9049 120.204 37.9049C120.267 37.9049 120.33 37.8918 120.39 37.8687L130.304 33.7242C130.506 33.6386 130.589 33.4343 130.486 33.2663C130.383 33.0983 130.137 33.0291 129.935 33.1148L120.021 37.2592C119.812 37.3449 119.732 37.5491 119.835 37.7172Z" fill="#767676"/>
<path d="M103.382 37.8625C103.461 37.9251 103.56 37.9548 103.659 37.9548C103.77 37.9548 103.881 37.9185 103.96 37.8461L114.373 28.4794C114.528 28.341 114.516 28.1235 114.349 27.995C114.183 27.8665 113.922 27.8764 113.767 28.0148L103.354 37.3815C103.204 37.5166 103.216 37.734 103.382 37.8625Z" fill="#767676"/>
<path d="M95.2642 37.4667C95.1731 37.6413 95.2681 37.8423 95.4781 37.9181C95.5335 37.9378 95.589 37.9477 95.6444 37.9477C95.8029 37.9477 95.9534 37.872 96.0207 37.7435C96.7416 36.3728 97.5061 35.0153 98.2745 33.6711C97.9219 33.8226 97.5457 33.9445 97.1575 34.0302C96.5119 35.1636 95.8741 36.3102 95.2642 37.4667Z" fill="#767676"/>
<path d="M104.453 22.5024C104.536 22.3278 104.433 22.1268 104.223 22.0577C104.013 21.9885 103.771 22.0741 103.688 22.2487C103.023 23.6423 102.286 25.0391 101.518 26.4261V28.047C102.555 26.2153 103.565 24.3605 104.453 22.5024Z" fill="#767676"/>
<path d="M82.6938 12.4076C82.67 12.2199 82.468 12.0881 82.2383 12.1045C82.0125 12.1243 81.8501 12.2956 81.8739 12.4834C82.1947 14.8555 82.4918 17.2803 82.7809 19.6524H83.6087C83.3195 17.2606 83.0185 14.8061 82.6938 12.4076Z" fill="#767676"/>
<path d="M85.3048 37.6183C85.3365 37.7897 85.5108 37.9083 85.7128 37.9083C85.7326 37.9083 85.7524 37.9083 85.7762 37.905C86.002 37.8786 86.1564 37.704 86.1208 37.5162C85.9227 36.4124 85.7366 35.2955 85.5583 34.1753H84.7266C84.9088 35.3285 85.0989 36.4783 85.3048 37.6183Z" fill="#767676"/>
<path d="M81.8918 37.5227C81.9472 37.6709 82.1096 37.7632 82.2839 37.7632C82.3235 37.7632 82.3631 37.7599 82.4067 37.7467C82.6245 37.6907 82.7473 37.4996 82.68 37.3184L81.5155 34.1723H80.656L81.8918 37.5227Z" fill="#767676"/>
<path d="M75.2831 18.8487C75.3227 18.8487 75.3623 18.8454 75.4058 18.8322C75.6237 18.7762 75.7465 18.5851 75.6791 18.4039L73.8573 13.4817C73.7899 13.3005 73.5642 13.2017 73.3424 13.2544C73.1246 13.3104 73.0018 13.5015 73.0691 13.6827L74.891 18.6049C74.9464 18.7531 75.1088 18.8487 75.2831 18.8487Z" fill="#767676"/>
<path d="M77.3576 37.7303C77.4328 37.8423 77.5714 37.9049 77.718 37.9049C77.7853 37.9049 77.8526 37.8918 77.92 37.8621C78.118 37.7699 78.1893 37.5623 78.0784 37.3975C77.3536 36.3136 76.6327 35.2395 75.9119 34.1753H74.9692C75.7574 35.3482 76.5535 36.531 77.3576 37.7303Z" fill="#767676"/>
<path d="M68.9061 23.9557C67.1039 21.3693 65.3374 18.8652 63.6105 16.4534C63.4957 16.292 63.2422 16.2393 63.0481 16.3348C62.854 16.4304 62.7867 16.6412 62.9055 16.8027C64.8305 19.4912 66.8069 22.3017 68.8268 25.211V24.7794C68.8268 24.4993 68.8585 24.2259 68.9061 23.9557Z" fill="#767676"/>
<path d="M57.0673 30.1624C56.9208 30.3074 56.9406 30.5215 57.1109 30.6434L67.2147 37.849C67.2939 37.905 67.389 37.9314 67.4841 37.9314C67.5989 37.9314 67.7138 37.8918 67.7969 37.8127C67.9435 37.6678 67.9237 37.4536 67.7534 37.3317L57.6496 30.1262C57.4753 30.001 57.2139 30.0175 57.0673 30.1624Z" fill="#767676"/>
<path d="M49.5835 23.9125C49.4171 23.784 49.1557 23.7906 49.0013 23.929C48.8468 24.0673 48.8547 24.2848 49.0211 24.4133L54.2651 28.5087C54.3443 28.5713 54.4473 28.601 54.5463 28.601C54.6572 28.601 54.7641 28.5647 54.8473 28.4923C55.0018 28.3539 54.9939 28.1364 54.8275 28.0079L49.5835 23.9125Z" fill="#767676"/>
<path d="M41.8163 35.0583C41.6064 34.9825 41.3648 35.0616 41.2737 35.2362C41.1826 35.4108 41.2777 35.6118 41.4876 35.6876L47.7377 37.9445C47.7892 37.9643 47.8447 37.9742 47.9001 37.9742C48.0585 37.9742 48.209 37.8984 48.2764 37.7666C48.3675 37.592 48.2724 37.391 48.0625 37.3152L41.8163 35.0583Z" fill="#767676"/>
<path d="M88.7881 37.5623C88.7564 37.7501 88.9108 37.9214 89.1366 37.9478C89.1564 37.9511 89.1762 37.9511 89.196 37.9511C89.398 37.9511 89.5722 37.8292 89.6039 37.6579C89.802 36.4982 89.9564 35.3352 90.0911 34.1723H89.2633C89.1326 35.3056 88.9782 36.4389 88.7881 37.5623Z" fill="#767676"/>
<path d="M92.0984 12.0686C91.8805 12.0554 91.6706 12.1905 91.6508 12.3783L91.1279 17.0364C91.1081 17.2241 91.2745 17.3921 91.5003 17.4086C91.5121 17.4086 91.528 17.4086 91.5399 17.4086C91.7498 17.4086 91.928 17.2768 91.9478 17.099L92.4707 12.4408C92.4905 12.2531 92.3241 12.0851 92.0984 12.0686Z" fill="#767676"/>
<path d="M56.4494 19.5999L56.0493 19.1847C55.9067 19.0365 55.6493 19.0134 55.4711 19.132C55.2928 19.2506 55.2651 19.4648 55.4077 19.613L55.8077 20.0282C56.4612 20.7036 57.1385 21.4021 57.8118 22.0676C57.895 22.1467 58.0099 22.1895 58.1287 22.1895C58.2237 22.1895 58.3149 22.1631 58.3941 22.1104C58.5683 21.9885 58.5921 21.7744 58.4456 21.6294C57.7762 20.9672 57.1029 20.272 56.4494 19.5999Z" fill="#767676"/>
<path d="M73.2562 37.8222C73.3394 37.9012 73.4542 37.9441 73.573 37.9441C73.6681 37.9441 73.7592 37.9177 73.8384 37.865C74.0127 37.7431 74.0365 37.5289 73.8899 37.384C70.6342 34.1586 67.3507 30.7717 64.1741 27.4969L62.2848 25.5498C62.1422 25.4015 61.8848 25.3784 61.7065 25.497C61.5283 25.6156 61.5006 25.8298 61.6432 25.9781L63.5325 27.9252C66.709 31.2 69.9925 34.5902 73.2562 37.8222Z" fill="#767676"/>
<path d="M51.0259 32.9335C50.9071 33.0949 50.9625 33.3057 51.1566 33.4046L59.8227 37.9077C59.89 37.944 59.9653 37.9604 60.0405 37.9604C60.1792 37.9604 60.3099 37.9044 60.3891 37.799C60.5079 37.6376 60.4525 37.4268 60.2584 37.328L51.5962 32.8248C51.4021 32.726 51.1487 32.7721 51.0259 32.9335Z" fill="#767676"/>
<path d="M7.63975 47.7296C7.71896 47.4627 8.08334 47.0575 8.84381 46.7445C9.70329 46.3162 10.9113 46.0789 12.2382 46.0789C12.563 46.0789 12.8917 46.0921 13.2125 46.1218C15.6603 46.303 17.4149 47.2452 17.9971 48.0294L18.0644 48.1084L23.6214 45.0675L23.5937 45.0345C21.7004 42.6064 18.0526 40.959 13.8423 40.6263C13.3313 40.5933 12.8006 40.5604 12.2778 40.5604C9.87758 40.5604 7.59618 41.0183 5.67917 41.8815C2.98982 43.0808 1.29462 45.0444 1.02132 47.265C0.510388 51.7458 4.9187 55.1524 11.9886 55.7455C14.0086 55.9102 15.4702 56.3023 16.3574 56.9283C16.999 57.462 16.999 57.9661 16.9633 58.1802C16.9317 58.5196 16.4524 58.9545 15.7751 59.2543C14.876 59.6563 13.6759 59.8803 12.4006 59.8803C12.0758 59.8803 11.7431 59.8671 11.4223 59.8375C9.01412 59.6596 7.22784 58.7206 6.58223 57.9101L6.54658 57.8607L0.981727 60.8555L1.04115 60.9247C2.93439 63.3529 6.58222 65.0002 10.7965 65.333C11.2836 65.3659 11.8064 65.3989 12.357 65.3989C14.7097 65.3989 17.0386 64.9409 18.9081 64.114C21.637 62.862 23.3362 60.9017 23.5699 58.7272C24.0808 54.1344 19.7913 50.8068 12.6422 50.2467C10.84 50.0819 7.47339 49.3604 7.63182 47.7823L7.63578 47.7559L7.63975 47.7296ZM6.68125 50.8101C8.01207 51.7095 9.98848 52.2861 12.3966 52.4805C16.7851 52.8363 21.3241 54.5989 20.8845 58.4834C20.7142 59.9099 19.5695 61.1982 17.6565 62.1075C16.191 62.7697 14.3096 63.1321 12.361 63.1321C11.9094 63.1321 11.4817 63.1321 11.0539 63.0959C9.01413 62.918 7.10505 62.381 5.68314 61.5804L5.19597 61.3069L6.26932 60.7106L6.48718 60.8259C7.7467 61.4947 9.41417 61.9329 11.1807 62.068C11.545 62.1009 11.9332 62.1339 12.3649 62.1339C14.068 62.1339 15.7474 61.8077 17.0703 61.2245C18.6427 60.4733 19.5497 59.4882 19.6923 58.3878C19.8072 57.2907 19.2685 56.1606 18.2229 55.2908C16.9554 54.3024 14.9988 53.7061 12.2461 53.4755C9.06166 53.235 6.41192 52.2696 4.97021 50.8298C4.01963 49.8777 3.61167 48.7509 3.75425 47.4825C3.88496 46.0526 5.06131 44.7413 6.97831 43.888C8.44379 43.1928 10.2776 42.8238 12.2857 42.8238C12.7372 42.8238 13.165 42.8238 13.5928 42.86C15.589 43.0379 17.4941 43.575 18.9596 44.3756L19.4863 44.6622L18.3298 45.2421L18.1238 45.1334C16.8524 44.4744 15.2008 44.0198 13.47 43.855C13.0818 43.8221 12.6937 43.8221 12.2817 43.8221C10.4241 43.8221 8.80024 44.1482 7.55656 44.7709C5.98811 45.4398 5.06131 46.4315 4.95041 47.5681C4.79594 48.8234 5.39797 49.9436 6.68125 50.8101Z" fill="#767676"/>
<path d="M34.4155 65.3955H41.2241V46.2568H48.5793V40.557H27.0959V46.2568H34.4115V65.3955H34.4155ZM29.8645 43.9242V42.9259H45.779V43.9242H38.4238V63.0629H37.2237V43.9242H29.8645Z" fill="#767676"/>
<path d="M56.7917 57.9496H68.5196L62.8993 45.0674L56.7917 57.9496ZM59.4257 56.434L62.8518 49.2912L65.9293 56.434H59.4257Z" fill="#767676"/>
<path d="M65.1687 40.557H60.7327L48.9891 65.3955H56.2729L58.2335 61.2805H67.0382L68.7968 65.3955H76.0449L65.1687 40.557ZM68.971 58.9479H56.3165L54.3559 63.0629H53.0528L62.6418 42.8567H63.228L72.0565 63.0629H70.7653L68.971 58.9479Z" fill="#767676"/>
<path d="M89.9055 65.3955V46.2568H97.2606V40.557H75.7775V46.2568H83.093V65.3955H89.9055ZM78.5421 43.9242V42.9259H94.4564V43.9242H87.1012V63.0629H85.9012V43.9242H78.5421Z" fill="#767676"/>
<path d="M101.156 65.3955H107.925V40.557H101.156V65.3955ZM103.921 42.8567H105.161V63.0991H103.921V42.8567Z" fill="#767676"/>
<path d="M141.566 52.9419C141.566 46.0925 134.849 40.5246 126.595 40.5246C118.36 40.5246 111.663 46.0957 111.663 52.9419C111.663 59.8079 118.36 65.3955 126.595 65.3955C134.849 65.3955 141.566 59.8112 141.566 52.9419ZM114.427 52.9419C114.427 47.3609 119.885 42.8209 126.595 42.8209C133.324 42.8209 138.802 47.3609 138.802 52.9419C138.802 58.5428 133.324 63.0959 126.595 63.0959C119.885 63.0959 114.427 58.5428 114.427 52.9419Z" fill="#767676"/>
<path d="M137.639 52.9416C137.639 47.8942 132.684 43.7858 126.592 43.7858C120.524 43.7858 115.585 47.8942 115.585 52.9416C115.585 58.0087 120.524 62.1303 126.592 62.1303C132.684 62.1336 137.639 58.0087 137.639 52.9416ZM126.592 60.6477C121.507 60.6477 117.368 57.1916 117.368 52.9416C117.368 48.7113 121.507 45.2684 126.592 45.2684C131.702 45.2684 135.857 48.7113 135.857 52.9416C135.857 57.1916 131.702 60.6477 126.592 60.6477Z" fill="#767676"/>
<path d="M164.058 40.5246V54.0654L151.815 40.5246H146.155V65.3955H152.963V51.2452L165.816 65.3955H170.906V40.5246H164.058ZM168.066 63.03H167.187L150.207 44.3068V63.03H148.967V42.8571H150.421L166.87 61.0038V42.8571H168.07V63.03H168.066Z" fill="#767676"/>
<path d="M37.3929 72.443L37.1196 71.9685C37.0642 71.873 36.9335 71.8334 36.8186 71.8796L34.8778 72.6571L34.4262 71.8763L36.3671 71.0987C36.4819 71.0526 36.5255 70.9439 36.474 70.8483L36.2007 70.3739C36.1452 70.2783 36.0145 70.2388 35.8997 70.2849L30.6 72.41C30.4852 72.4561 30.4377 72.5648 30.4931 72.6604L30.7664 73.1348C30.8219 73.2304 30.9526 73.2699 31.0674 73.2238L33.5034 72.2486L33.9549 73.0294L31.519 74.0046C31.4041 74.0508 31.3605 74.1595 31.412 74.255L31.6853 74.7295C31.7368 74.8184 31.8715 74.8645 31.9863 74.8184L37.286 72.6933C37.4008 72.6472 37.4405 72.5286 37.3929 72.443Z" fill="#767676"/>
<path d="M38.445 74.0439L38.1361 73.5826C38.0727 73.4904 37.9301 73.4608 37.8192 73.5135L32.6899 75.8923C32.579 75.9451 32.5394 76.0571 32.6028 76.1493L32.9117 76.6106C32.9751 76.7029 33.1097 76.7358 33.2207 76.6831L38.3499 74.3042C38.4609 74.2515 38.5044 74.1362 38.445 74.0439Z" fill="#767676"/>
<path d="M38.6323 78.4456C38.7392 78.3896 38.7709 78.2743 38.6996 78.1853L38.0263 77.3089C37.959 77.22 37.8204 77.1936 37.7134 77.2529L37.2421 77.5033C37.1352 77.5593 37.0955 77.6779 37.1668 77.7669L37.3768 78.0403L35.9866 78.7783C35.8796 78.8343 35.737 78.8047 35.6697 78.7157L35.3053 78.2413C35.2419 78.1589 35.2657 78.037 35.3726 77.981L38.5769 76.281C38.6759 76.2283 38.8264 76.2546 38.8898 76.337L39.2541 76.8114C39.3215 76.9004 39.2898 77.0256 39.1908 77.0783L38.8858 77.2397C38.7789 77.2957 38.7472 77.4111 38.8184 77.5L39.1591 77.9448C39.2264 78.0337 39.365 78.0601 39.472 78.0008L39.8601 77.7932C40.4027 77.5066 40.5533 76.907 40.2126 76.4622L39.6779 75.7637C39.3334 75.3124 38.6204 75.1839 38.0778 75.4705L34.6914 77.2694C34.1567 77.5527 33.9983 78.1557 34.3389 78.6004L34.8736 79.2989C35.2142 79.7437 35.939 79.8754 36.4737 79.5921L38.6323 78.4456Z" fill="#767676"/>
<path d="M43.1828 79.9151L42.8026 79.4934C42.7273 79.4078 42.5887 79.3946 42.4857 79.4572L40.7668 80.5377L40.141 79.8459L41.8599 78.7654C41.9589 78.7028 41.9787 78.5875 41.9035 78.5018L41.5233 78.0801C41.448 77.9945 41.3094 77.9813 41.2064 78.0439L36.509 80.9924C36.4099 81.055 36.3901 81.1703 36.4654 81.2559L36.8456 81.6776C36.9209 81.7633 37.0595 81.7797 37.1625 81.7138L39.3211 80.3598L39.9469 81.0517L37.7883 82.409C37.6853 82.4716 37.6695 82.5902 37.7447 82.6725L38.1249 83.0942C38.1962 83.1733 38.3388 83.1963 38.4418 83.1304L43.1392 80.182C43.2422 80.1161 43.2541 79.9942 43.1828 79.9151Z" fill="#767676"/>
<path d="M44.7315 86.7914L46.9693 84.9826C47.4763 84.574 47.4882 83.9019 46.9971 83.4802L46.4663 83.0255C45.9752 82.6038 45.1672 82.5939 44.6602 83.0024L41.9392 85.2C41.4401 85.6053 41.4282 86.2741 41.9194 86.6958L43.167 87.7634C43.2542 87.8391 43.4007 87.8457 43.4918 87.7732L43.9156 87.4339C44.0067 87.3614 44.0027 87.2395 43.9275 87.1736L43.674 86.9561C44.0265 87.0748 44.4463 87.022 44.7315 86.7914ZM43.3294 86.6629L42.6997 86.1226C42.6125 86.0468 42.6125 85.9183 42.6957 85.8524L45.4167 83.6548C45.5078 83.5823 45.6623 83.5823 45.7494 83.6581L46.2168 84.0568C46.3039 84.1325 46.3039 84.261 46.2128 84.3335L43.3294 86.6629Z" fill="#767676"/>
<path d="M50.9656 86.5405L50.4903 86.1912C50.3952 86.122 50.2487 86.1352 50.1655 86.2143L46.9771 89.2356C46.894 89.3147 46.7474 89.318 46.6524 89.2488L46.1493 88.8798C46.0543 88.8106 46.0384 88.6887 46.1216 88.6096L49.31 85.5916C49.3932 85.5125 49.3892 85.3906 49.2942 85.3214L48.8189 84.9721C48.7238 84.903 48.5773 84.9161 48.4941 84.9952L45.2344 88.0824C44.8146 88.4778 44.8621 89.0939 45.3414 89.4432L46.0899 89.9901C46.5652 90.3393 47.3059 90.2965 47.7257 89.9011L50.9854 86.8139C51.0607 86.7316 51.0607 86.6097 50.9656 86.5405Z" fill="#767676"/>
<path d="M53.7147 88.3131L52.6295 87.6344C52.5344 87.5751 52.4077 87.5817 52.3206 87.6508L48.6965 90.5832C48.6569 90.6162 48.641 90.6327 48.6173 90.6557L48.138 91.1862C48.0627 91.2718 48.0825 91.3872 48.1816 91.4498L48.6886 91.7661C48.7915 91.8287 48.9302 91.8122 49.0054 91.7298L49.5005 91.1829L50.4709 91.7891L49.9758 92.3361C49.9005 92.4217 49.9203 92.5371 50.0154 92.5964L50.5303 92.916C50.6333 92.9786 50.7719 92.9621 50.8472 92.8797L51.3264 92.3493C51.3502 92.3262 51.366 92.3064 51.3898 92.2669L53.7741 88.5602C53.8217 88.4844 53.8098 88.3724 53.7147 88.3131ZM50.9897 91.0445L50.2214 90.5635L52.5226 88.6788L50.9897 91.0445Z" fill="#767676"/>
<path d="M54.3436 93.9929L53.2822 93.4164L56.0507 89.8748C56.118 89.7858 56.0903 89.6705 55.9834 89.6145L55.4526 89.3279C55.3457 89.2719 55.2071 89.295 55.1397 89.3839L51.9316 93.4888C51.8603 93.5778 51.892 93.6931 51.9989 93.7491L53.7812 94.7144C53.8881 94.7704 54.0268 94.7474 54.0941 94.6584L54.411 94.2532C54.4783 94.1642 54.4506 94.0489 54.3436 93.9929Z" fill="#767676"/>
<path d="M58.9563 91.1365L58.4097 90.873C58.2988 90.8202 58.1602 90.8565 58.0968 90.9487L55.1541 95.1756C55.0907 95.2678 55.1263 95.3798 55.2372 95.4325L55.7838 95.6961C55.8947 95.7488 56.0294 95.7192 56.0927 95.6269L59.0355 91.4001C59.0949 91.3078 59.0632 91.1892 58.9563 91.1365Z" fill="#767676"/>
<path d="M62.3157 93.384L62.5851 92.9426C62.6405 92.847 62.589 92.735 62.4861 92.6889L60.1373 91.6972C60.0264 91.6478 59.8918 91.6873 59.8324 91.7796L59.563 92.221C59.5076 92.3166 59.5512 92.4253 59.6621 92.4747L60.3473 92.7647L58.0579 96.5171C57.9985 96.6094 58.054 96.7247 58.157 96.7708L58.7233 97.0081C58.8382 97.0542 58.9689 97.0179 59.0283 96.9257L61.3177 93.1732L62.0108 93.4664C62.1177 93.5092 62.2603 93.4763 62.3157 93.384Z" fill="#767676"/>
<path d="M66.0567 94.9914L66.4052 94.3028C66.4528 94.2073 66.4013 94.0986 66.2824 94.0557L65.7002 93.8515C65.5814 93.8119 65.4546 93.8548 65.4032 93.9536L65.1378 94.4807C65.11 94.5368 65.0665 94.5862 65.015 94.6257L63.9416 95.4099L63.8624 94.2238C63.8545 94.1645 63.8664 94.1018 63.8941 94.0458L64.1594 93.5187C64.207 93.4198 64.1555 93.3144 64.0367 93.2716L63.4504 93.0673C63.3316 93.0278 63.2049 93.0706 63.1534 93.1661L62.8048 93.8548C62.7652 93.9305 62.7534 94.0162 62.7494 94.0986L62.9039 96.283L61.9968 98.0753C61.9493 98.1742 62.0008 98.2796 62.1196 98.3224L62.7019 98.5267C62.8207 98.5662 62.9474 98.5234 62.9989 98.4246L63.902 96.6322L65.8784 95.1924C65.9616 95.1364 66.0171 95.0672 66.0567 94.9914Z" fill="#767676"/>
<path d="M66.3134 98.734L65.7431 98.566C65.6242 98.5297 65.5014 98.5759 65.4579 98.6747L65.2519 99.1558C65.2084 99.2546 65.2717 99.3535 65.3945 99.3897L65.5569 99.4392L65.3826 99.5776C65.343 99.6072 65.3074 99.6435 65.2876 99.6863L65.2321 99.8214C65.2083 99.8774 65.2479 99.9466 65.3074 99.9631L65.5965 100.049C65.6559 100.065 65.7351 100.036 65.7629 99.9762L65.7787 99.94C65.7945 99.9038 65.8341 99.8774 65.85 99.8642L66.1114 99.6533C66.1431 99.6237 66.1669 99.5907 66.1827 99.5545L66.4362 98.9581C66.4719 98.8592 66.4164 98.7637 66.3134 98.734Z" fill="#767676"/>
<path d="M72.6356 100.266L71.4078 100.013L72.6356 95.9141C72.6672 95.812 72.592 95.7098 72.4692 95.6868L71.8553 95.5583C71.7326 95.5319 71.6137 95.5945 71.5821 95.6966L70.1602 100.447C70.1285 100.55 70.2038 100.648 70.3266 100.675L72.39 101.103C72.5128 101.129 72.6316 101.067 72.6633 100.965L72.8019 100.497C72.8296 100.391 72.7583 100.293 72.6356 100.266Z" fill="#767676"/>
<path d="M77.093 96.4938L76.1147 96.3521C75.481 96.2598 74.8829 96.619 74.772 97.1428L74.0869 100.428C73.976 100.955 74.3958 101.449 75.0295 101.541L76.0078 101.683C76.6336 101.772 77.2356 101.426 77.3465 100.899L78.0317 97.614C78.1426 97.0868 77.7148 96.5827 77.093 96.4938ZM76.2969 100.648C76.2771 100.754 76.1504 100.826 76.0236 100.807L75.3622 100.711C75.2354 100.695 75.1483 100.589 75.1721 100.484L75.8216 97.3702C75.8454 97.2647 75.9682 97.2087 76.091 97.2252L76.7524 97.3207C76.8791 97.3372 76.9702 97.4295 76.9465 97.5316L76.2969 100.648Z" fill="#767676"/>
<path d="M83.6665 97.0866L82.8744 97.0306C82.7912 97.024 82.7239 97.0734 82.7199 97.1393L82.6565 97.7917C82.6526 97.8445 82.6486 97.8741 82.6328 97.9334L82.1812 99.8214L81.9198 97.0702C81.9079 97.0076 81.8485 96.9581 81.7772 96.9548L81.092 96.9087C81.0207 96.9021 80.9534 96.945 80.9375 97.0043L80.1375 99.683L80.0543 97.7588C80.0503 97.6995 80.0543 97.6698 80.0583 97.6171L80.1216 96.9647C80.1295 96.8988 80.0701 96.8395 79.9909 96.8362L79.1988 96.7802C79.1195 96.7736 79.0483 96.823 79.0443 96.8889L78.973 97.6105C78.969 97.6467 78.9651 97.6929 78.9691 97.7621L79.2661 101.907C79.274 102.006 79.3572 102.078 79.476 102.088L80.181 102.138C80.288 102.144 80.3949 102.085 80.4147 101.986L81.2465 98.9087L81.4604 102.059C81.4683 102.157 81.5515 102.23 81.6703 102.24L82.3634 102.289C82.4822 102.296 82.5773 102.236 82.605 102.141L83.714 98.0916C83.7299 98.0257 83.7339 97.9795 83.7378 97.9433L83.8091 97.2217C83.8051 97.1492 83.7457 97.0932 83.6665 97.0866Z" fill="#767676"/>
<path d="M88.8662 97.0242L87.3096 97.0868C87.1828 97.0934 87.0878 97.179 87.0957 97.2845L87.3848 102.174C87.3927 102.279 87.4957 102.358 87.6225 102.352L88.2562 102.325C88.3829 102.319 88.478 102.233 88.4701 102.127L88.3394 99.9399L89.0365 99.9102C89.8247 99.8773 90.4425 99.3106 90.4029 98.6484L90.3752 98.1674C90.3356 97.5052 89.6504 96.9913 88.8662 97.0242ZM88.981 99.0009L88.2839 99.0306L88.2166 97.917L88.9137 97.8874C89.1117 97.8808 89.2741 98.0093 89.282 98.174L89.3137 98.6913C89.3256 98.8527 89.179 98.9911 88.981 99.0009Z" fill="#767676"/>
<path d="M94.9061 100.615L93.908 99.4424C94.4031 99.2085 94.716 98.7374 94.6368 98.2301L94.5655 97.759C94.4665 97.1001 93.7496 96.6291 92.9574 96.7114L91.4048 96.8728C91.286 96.886 91.191 96.9783 91.2068 97.0837L91.9316 101.94C91.9475 102.045 92.0663 102.114 92.1851 102.104L92.8149 102.038C92.9416 102.025 93.0287 101.933 93.0129 101.828L92.6723 99.5643L93.8565 100.945C93.9159 101.03 93.9437 101.109 93.9555 101.192L94.0348 101.715C94.0506 101.821 94.1694 101.89 94.2962 101.877L94.9259 101.811C95.0527 101.798 95.1279 101.706 95.1121 101.603L95.0012 100.856C94.9933 100.773 94.9616 100.684 94.9061 100.615ZM93.2585 98.6847L92.5574 98.7572L92.3911 97.6437L93.0921 97.5712C93.2822 97.5515 93.4605 97.6602 93.4842 97.8249L93.5595 98.3421C93.5872 98.5134 93.4486 98.6649 93.2585 98.6847Z" fill="#767676"/>
<path d="M96.1589 96.2896L95.537 96.3852C95.4142 96.4049 95.3349 96.5071 95.3587 96.6125L96.4203 101.419C96.4441 101.525 96.5589 101.591 96.6857 101.571L97.3076 101.476C97.4304 101.456 97.5135 101.36 97.4898 101.258L96.4282 96.4511C96.4044 96.3456 96.2856 96.2698 96.1589 96.2896Z" fill="#767676"/>
<path d="M101.471 98.3883C101.44 98.2861 101.317 98.2169 101.194 98.2433L100.58 98.3685C100.457 98.3949 100.386 98.5003 100.418 98.6024L100.754 99.7522C100.786 99.8544 100.703 99.9565 100.588 99.9796L99.9266 100.115C99.8038 100.141 99.6731 100.082 99.6454 99.9796L98.7423 96.909C98.7106 96.8068 98.7938 96.7047 98.9166 96.6784L99.5781 96.5433C99.6929 96.5202 99.8197 96.5795 99.8514 96.6816L100.065 97.4065C100.097 97.5086 100.22 97.5778 100.342 97.5514L100.956 97.4262C101.079 97.3999 101.151 97.2945 101.119 97.1923L100.881 96.3884C100.727 95.8679 100.105 95.5549 99.479 95.6801L98.5126 95.8778C97.8868 96.0062 97.5105 96.5235 97.661 97.0441L98.6156 100.293C98.7661 100.803 99.3998 101.126 100.018 101.001L100.984 100.803C101.61 100.675 101.986 100.151 101.836 99.6369L101.471 98.3883Z" fill="#767676"/>
<path d="M105.697 98.9383C105.657 98.8395 105.534 98.7835 105.411 98.8164L104.215 99.136L103.633 97.6238L104.39 97.4195C104.508 97.3866 104.576 97.2844 104.536 97.1823L104.366 96.7375C104.326 96.6387 104.203 96.5827 104.081 96.6156L103.324 96.8166L102.912 95.7491L104.108 95.4295C104.227 95.3966 104.295 95.2945 104.255 95.1923L104.077 94.7344C104.037 94.6355 103.914 94.5795 103.791 94.6125L101.768 95.1528C101.649 95.1857 101.581 95.2879 101.621 95.39L103.419 100.049C103.459 100.147 103.582 100.203 103.704 100.171L105.728 99.6302C105.847 99.5972 105.914 99.4951 105.875 99.393L105.697 98.9383Z" fill="#767676"/>
<path d="M108.159 98.9447C108.159 98.9052 108.151 98.8657 108.135 98.8327L107.866 98.2431C107.822 98.1442 107.704 98.1014 107.605 98.1343L107.038 98.3122C106.919 98.3485 106.86 98.4506 106.903 98.5494L107.121 99.0271C107.165 99.1259 107.292 99.1654 107.41 99.1292L107.573 99.0798L107.549 99.2807C107.541 99.3235 107.541 99.3697 107.561 99.4125L107.62 99.5476C107.644 99.6036 107.727 99.6332 107.787 99.6167L108.076 99.5245C108.135 99.5047 108.171 99.4388 108.147 99.3828L108.131 99.3466C108.116 99.3104 108.123 99.2676 108.127 99.2511L108.159 98.9447Z" fill="#767676"/>
<path d="M113.883 94.4049C113.713 94.1216 113.428 93.9206 113.091 93.8185C113.134 93.5878 113.087 93.3572 112.952 93.1365L112.687 92.6983C112.33 92.1053 111.463 91.8615 110.75 92.1613L109.344 92.751C109.229 92.7971 109.185 92.9092 109.245 93.0047L111.891 97.3767C111.946 97.4722 112.081 97.5085 112.196 97.459L113.733 96.8166C114.445 96.5201 114.727 95.7952 114.366 95.2022L113.883 94.4049ZM110.58 93.1991L111.217 92.9322C111.388 92.8598 111.606 92.9223 111.697 93.0673L111.978 93.5318C112.065 93.6735 111.99 93.8547 111.819 93.9272L111.182 94.1941L110.58 93.1991ZM113.257 96.0325L112.489 96.3553L111.641 94.9551L112.41 94.6323C112.58 94.5598 112.798 94.6224 112.889 94.7706L113.404 95.6239C113.499 95.7788 113.428 95.96 113.257 96.0325Z" fill="#767676"/>
<path d="M118.071 94.0031C118.007 93.9141 117.869 93.8845 117.762 93.9372L116.684 94.4742L115.702 93.1102L116.387 92.7708C116.494 92.7181 116.53 92.6028 116.466 92.5139L116.177 92.1119C116.11 92.0229 115.975 91.9933 115.868 92.046L115.183 92.3854L114.49 91.4233L115.571 90.8862C115.678 90.8335 115.714 90.7182 115.651 90.6292L115.354 90.2174C115.29 90.1284 115.152 90.0988 115.045 90.1515L113.219 91.0609C113.112 91.1136 113.076 91.2289 113.14 91.3179L116.162 95.5154C116.225 95.6043 116.364 95.634 116.47 95.5813L118.296 94.6719C118.403 94.6192 118.439 94.5039 118.376 94.4149L118.071 94.0031Z" fill="#767676"/>
<path d="M120.861 90.6519C120.398 90.1017 119.502 89.9732 118.845 90.3554L118.504 90.5531C118.338 90.642 118.116 90.6157 118.001 90.4806L117.684 90.105C117.57 89.9699 117.617 89.7854 117.779 89.6931L118.12 89.4954C118.282 89.3999 118.504 89.4262 118.619 89.5646L118.73 89.6931C118.801 89.7788 118.94 89.7986 119.047 89.7393L119.566 89.4361C119.669 89.3768 119.693 89.2615 119.621 89.1725L119.534 89.0671C119.079 88.5234 118.176 88.3884 117.518 88.7706L117.177 88.9683C116.524 89.3472 116.365 90.105 116.821 90.6454L117.118 90.9979C117.573 91.5415 118.473 91.6602 119.13 91.2878L119.471 91.0901C119.633 90.9946 119.855 91.0243 119.97 91.1593L120.643 91.96C120.758 92.0951 120.718 92.2829 120.556 92.3784L120.215 92.5761C120.053 92.6717 119.827 92.6387 119.712 92.5036L119.261 91.9666C119.19 91.8809 119.051 91.8612 118.944 91.9205L118.425 92.2236C118.322 92.2829 118.298 92.3982 118.37 92.4872L118.797 92.9913C119.253 93.5349 120.164 93.6667 120.813 93.2878L121.154 93.0901C121.808 92.7112 121.966 91.9534 121.511 91.413L120.861 90.6519Z" fill="#767676"/>
<path d="M121.566 87.2852L122.168 86.8767C122.259 86.8141 122.279 86.6921 122.2 86.6131L121.823 86.2276C121.744 86.1452 121.598 86.1386 121.506 86.2012L119.467 87.585C119.368 87.6509 119.356 87.7695 119.435 87.8486L119.811 88.2341C119.891 88.3165 120.033 88.3263 120.128 88.2604L120.722 87.8552L123.919 91.1137C123.998 91.1961 124.144 91.2027 124.235 91.1401L124.726 90.8073C124.825 90.7414 124.837 90.6228 124.758 90.5437L121.566 87.2852Z" fill="#767676"/>
<path d="M128.958 84.4088C128.867 84.3363 128.72 84.333 128.633 84.4088L128.193 84.7877C128.106 84.8635 128.114 84.9854 128.205 85.0579L129.227 85.8815C129.318 85.954 129.314 86.0792 129.231 86.1484L128.76 86.5536C128.673 86.6294 128.526 86.636 128.435 86.5635L125.702 84.3627C125.611 84.2902 125.615 84.165 125.702 84.0925L126.173 83.6872C126.257 83.6181 126.403 83.6082 126.494 83.684L127.14 84.2012C127.231 84.2737 127.377 84.277 127.465 84.2012L127.904 83.8223C127.991 83.7466 127.983 83.6247 127.892 83.5522L127.175 82.9756C126.712 82.6033 125.983 82.6132 125.536 82.9987L124.843 83.595C124.395 83.9805 124.407 84.5867 124.87 84.959L127.758 87.2851C128.213 87.6508 128.954 87.6409 129.397 87.262L130.09 86.6657C130.538 86.2802 130.518 85.6707 130.063 85.3017L128.958 84.4088Z" fill="#767676"/>
<path d="M129.202 79.7703C129.103 79.7044 128.961 79.7208 128.885 79.7966L128.481 80.2019C128.402 80.2842 128.414 80.3996 128.513 80.4688L130.173 81.612L129.507 82.2775L127.848 81.1343C127.748 81.0684 127.61 81.0783 127.527 81.1606L127.123 81.5659C127.043 81.6483 127.055 81.7636 127.154 81.8295L131.686 84.9495C131.785 85.0154 131.923 85.0055 132.006 84.9232L132.41 84.5179C132.49 84.4356 132.478 84.3203 132.379 84.2544L130.295 82.8179L130.961 82.1523L133.044 83.5888C133.143 83.6547 133.282 83.6449 133.361 83.5625L133.765 83.1572C133.84 83.0814 133.832 82.9595 133.733 82.8937L129.202 79.7703Z" fill="#767676"/>
<path d="M135.806 79.164L132.503 77.2729C131.972 76.9698 131.243 77.0818 130.883 77.5167L130.316 78.1987C129.952 78.6402 130.091 79.2398 130.621 79.5429L133.925 81.434C134.455 81.7371 135.172 81.6284 135.537 81.1869L136.103 80.5049C136.463 80.07 136.337 79.4671 135.806 79.164ZM135.152 80.1228L134.772 80.5807C134.701 80.6664 134.55 80.6894 134.443 80.6301L131.311 78.8379C131.208 78.7785 131.192 78.6599 131.263 78.5743L131.643 78.1163C131.715 78.0307 131.853 77.9977 131.956 78.057L135.089 79.8493C135.2 79.9119 135.228 80.0371 135.152 80.1228Z" fill="#767676"/>
<path d="M137.929 77.8261L132.935 75.2528C132.828 75.1968 132.681 75.2198 132.614 75.3088L132.281 75.7569C132.214 75.8459 132.254 75.9645 132.361 76.0205L137.355 78.5938C137.462 78.6499 137.601 78.6235 137.668 78.5312L138.001 78.0831C138.072 77.9942 138.04 77.8788 137.929 77.8261Z" fill="#767676"/>
<path d="M139.411 74.0475L138.057 73.4379C137.946 73.3885 137.803 73.4182 137.744 73.5104L137.443 73.975C137.384 74.0672 137.431 74.1826 137.542 74.232L138.794 74.7954C138.904 74.8448 138.94 74.9634 138.885 75.0491L138.564 75.5466C138.504 75.6389 138.366 75.6784 138.251 75.629L134.908 74.1233C134.797 74.0738 134.761 73.9552 134.821 73.863L135.146 73.3655C135.201 73.2798 135.34 73.2402 135.451 73.2897L136.239 73.6455C136.35 73.6949 136.492 73.6653 136.552 73.573L136.853 73.1084C136.912 73.0162 136.865 72.9009 136.754 72.8482L135.878 72.4528C135.312 72.1991 134.615 72.3704 134.31 72.8416L133.835 73.5697C133.53 74.0409 133.736 74.6208 134.302 74.8745L137.839 76.4658C138.397 76.7163 139.106 76.5416 139.407 76.0771L139.883 75.3489C140.188 74.881 139.97 74.2979 139.411 74.0475Z" fill="#767676"/>
<path d="M141.906 71.4052L141.379 71.2075C141.264 71.1647 141.133 71.2042 141.078 71.2997L140.559 72.2519L138.82 71.5963L139.149 70.9933C139.2 70.8978 139.153 70.789 139.038 70.7429L138.527 70.5518C138.412 70.509 138.281 70.5485 138.226 70.6441L137.897 71.247L136.669 70.7857L137.188 69.8336C137.24 69.738 137.192 69.6293 137.073 69.5832L136.547 69.3855C136.432 69.3426 136.301 69.3822 136.246 69.4777L135.37 71.0889C135.319 71.1844 135.366 71.2931 135.481 71.3393L140.84 73.3557C140.955 73.3985 141.086 73.359 141.141 73.2601L142.016 71.649C142.072 71.5567 142.02 71.448 141.906 71.4052Z" fill="#767676"/>
<path d="M30.7579 29.8033L35.9861 32.0435C36.097 32.0929 36.2317 32.0566 36.2911 31.9611L36.5802 31.4933C36.6396 31.3978 36.596 31.2891 36.4812 31.2397L34.1404 30.2382L34.4572 29.7242C34.8177 29.1411 34.5364 28.4131 33.8275 28.11L33.3126 27.8893C32.6036 27.5862 31.7283 27.8201 31.3678 28.4032L30.6549 29.5529C30.5995 29.6452 30.643 29.7572 30.7579 29.8033ZM32.2947 28.7952C32.3858 28.647 32.5996 28.5976 32.7779 28.6733L33.3324 28.9105C33.5027 28.983 33.574 29.1576 33.4869 29.3059L33.166 29.8198L31.9739 29.3092L32.2947 28.7952Z" fill="#767676"/>
<path d="M33.1495 26.0902L38.1362 28.6832C38.2431 28.7392 38.3857 28.7062 38.4491 28.6238L38.7857 28.1757C38.8531 28.0868 38.8214 27.9715 38.7145 27.9155L36.3895 26.7063L38.4213 26.8117C38.5362 26.8282 38.6313 26.8579 38.7145 26.904L39.2531 27.184C39.3601 27.24 39.5026 27.2071 39.57 27.1181L39.9066 26.67C39.974 26.5811 39.9383 26.4724 39.8314 26.4164L39.063 26.0177C38.9798 25.9749 38.8768 25.9386 38.7778 25.932L37.0549 25.8365C37.1499 25.3719 36.9044 24.8711 36.3855 24.601L35.9023 24.3506C35.225 23.998 34.3338 24.1661 33.91 24.7262L33.0822 25.8299C33.0148 25.9123 33.0425 26.0342 33.1495 26.0902ZM34.7893 25.1841C34.8883 25.0491 35.1062 25.0029 35.2765 25.0919L35.8072 25.3653C35.9815 25.4576 36.0369 25.6454 35.934 25.7772L35.5616 26.2747L34.417 25.6816L34.7893 25.1841Z" fill="#767676"/>
<path d="M40.6321 25.4711C40.735 25.5337 40.8737 25.5172 40.9489 25.4316L42.2085 24.0083C42.2837 23.9226 42.2639 23.8073 42.1609 23.7447L41.6935 23.458C41.5906 23.3954 41.4519 23.4119 41.3767 23.4976L40.6321 24.341L39.0953 23.3987L39.5666 22.865C39.6419 22.7793 39.6221 22.664 39.5191 22.6014L39.0675 22.3246C38.9646 22.262 38.8259 22.2785 38.7507 22.3642L38.2794 22.8979L37.1941 22.2324L37.9387 21.389C38.014 21.3033 37.9942 21.188 37.8912 21.1254L37.4238 20.8387C37.3209 20.7761 37.1822 20.7926 37.107 20.8783L35.8474 22.3016C35.7722 22.3873 35.792 22.5026 35.895 22.5652L40.6321 25.4711Z" fill="#767676"/>
<path d="M42.1697 22.3508C42.2172 22.3969 42.2647 22.4299 42.2845 22.4464L42.9103 22.9175C43.0054 22.9867 43.144 22.9801 43.2312 22.901L43.651 22.5057C43.7342 22.4266 43.7263 22.3113 43.6312 22.2388L43.1044 21.85C43.0648 21.8204 43.0292 21.794 42.9975 21.761L41.0686 19.972L43.3619 21.2273C43.4569 21.2767 43.5837 21.2603 43.655 21.1911L44.1105 20.7627C44.1818 20.6968 44.1818 20.5947 44.1105 20.5222L42.336 18.7826L44.7085 20.1565C44.7561 20.1796 44.7878 20.2059 44.8313 20.2356L45.3581 20.6244C45.4532 20.6936 45.5957 20.687 45.6789 20.6079L46.0988 20.2125C46.178 20.14 46.174 20.0148 46.079 19.9457L45.4413 19.4877C45.4215 19.4712 45.374 19.4383 45.3145 19.402L41.1557 17.1419C41.0606 17.0924 40.9418 17.1056 40.8626 17.1781L40.4071 17.6064C40.3358 17.6756 40.3358 17.7744 40.4071 17.8469L42.4707 19.9391L39.7298 18.4828C39.6348 18.4334 39.516 18.4466 39.4367 18.519L38.9852 18.9408C38.906 19.0133 38.9099 19.1154 38.9773 19.1879L42.1697 22.3508Z" fill="#767676"/>
<path d="M47.0722 19.1616C47.1593 19.2374 47.3019 19.2407 47.393 19.1649L47.8485 18.7992C47.9396 18.7267 47.9435 18.6081 47.8524 18.5324L43.7651 15.0236C43.6779 14.9478 43.5314 14.9412 43.4403 15.0137L42.9848 15.3794C42.8937 15.4519 42.8977 15.5738 42.9848 15.6495L47.0722 19.1616Z" fill="#767676"/>
<path d="M48.3906 17.0397C48.7985 17.4416 49.5392 17.4943 50.0225 17.155L50.7829 16.6213C51.2662 16.2819 51.3296 15.6658 50.9216 15.2639L47.7331 12.1242C47.6499 12.0452 47.5033 12.0287 47.4083 12.0946L46.925 12.4339C46.83 12.5031 46.8221 12.625 46.9052 12.7041L50.0264 15.7746C50.1096 15.8536 50.0898 15.9755 49.9908 16.0447L49.4798 16.4038C49.3848 16.473 49.2342 16.4664 49.155 16.3874L46.0338 13.3168C45.9507 13.2378 45.8041 13.2213 45.7091 13.2872L45.2258 13.6265C45.1308 13.6957 45.1228 13.8176 45.206 13.8967L48.3906 17.0397Z" fill="#767676"/>
<path d="M51.997 14.4668C52.0326 14.5195 52.0643 14.5623 52.0841 14.5821L52.5554 15.1619C52.6267 15.2476 52.7654 15.2707 52.8723 15.2114L53.3912 14.9115C53.4941 14.8522 53.5218 14.7369 53.4506 14.6513L53.0505 14.167C53.0189 14.1307 52.9951 14.0978 52.9713 14.0582L51.6167 11.9365L53.4783 13.6102C53.5535 13.6761 53.6842 13.686 53.7714 13.6332L54.3378 13.3071C54.4289 13.2543 54.4566 13.1588 54.4091 13.0731L53.1852 11.0305L55.0903 12.8359C55.1299 12.8689 55.1537 12.8985 55.1854 12.9381L55.5854 13.4224C55.6567 13.508 55.7953 13.5311 55.8983 13.4718L56.4211 13.172C56.5162 13.116 56.5518 12.9974 56.4766 12.9117L55.9894 12.3417C55.9736 12.322 55.9379 12.2791 55.8904 12.233L52.504 9.21511C52.4287 9.14922 52.3059 9.13604 52.2109 9.19205L51.6445 9.51823C51.5534 9.57094 51.5256 9.66978 51.5732 9.75214L52.9753 12.1935L50.7335 10.2365C50.6582 10.1706 50.5355 10.1574 50.4404 10.2134L49.8819 10.533C49.7869 10.589 49.7552 10.6878 49.8027 10.7702L51.997 14.4668Z" fill="#767676"/>
<path d="M59.6455 10.5165C59.9268 10.9909 60.6278 11.1886 61.1982 10.958L62.0933 10.5923C62.6637 10.3583 62.9014 9.77521 62.6241 9.30078L61.4953 7.38662C61.4398 7.29107 61.3052 7.25483 61.1903 7.30095L60.0694 7.75891C59.9545 7.80503 59.9109 7.91704 59.9664 8.00929L60.2159 8.42771C60.2714 8.52326 60.41 8.56609 60.5209 8.51996L60.8695 8.3783L61.5982 9.60718C61.6537 9.70272 61.5983 9.81475 61.4873 9.86087L60.8774 10.1113C60.7704 10.1541 60.6318 10.1211 60.5764 10.0256L58.9009 7.18564C58.8494 7.09668 58.8969 6.97809 59.0039 6.93526L59.6139 6.68486C59.7287 6.63874 59.8713 6.67827 59.9228 6.76723L60.0813 7.03739C60.1367 7.13293 60.2714 7.16917 60.3862 7.12304L60.9566 6.88913C61.0714 6.843 61.115 6.73098 61.0596 6.63873L60.8536 6.2928C60.5684 5.81179 59.8713 5.6207 59.301 5.85133L58.4058 6.21702C57.8275 6.45423 57.5938 7.0275 57.879 7.50852L59.6455 10.5165Z" fill="#767676"/>
<path d="M63.8555 8.86225C63.8673 8.90838 63.8753 8.92815 63.8911 8.95451L64.1802 9.57061C64.2278 9.66945 64.3545 9.71557 64.4733 9.67603L65.0634 9.48495C65.1823 9.44541 65.2377 9.33998 65.1902 9.24115L64.8892 8.60198L66.018 8.23298L66.319 8.87215C66.3665 8.97099 66.4932 9.01711 66.6041 8.98087L67.2022 8.78648C67.321 8.74695 67.3764 8.64152 67.3289 8.54268L67.0398 7.92657C67.0279 7.89692 67.016 7.87716 66.9883 7.83762L64.4495 4.20033C64.3981 4.12784 64.2753 4.07843 64.1644 4.11467L62.901 4.5265C62.7901 4.56274 62.7267 4.65499 62.7544 4.75054L63.8555 8.86225ZM65.5268 7.48509L64.6317 7.77502L63.9149 5.15577L65.5268 7.48509Z" fill="#767676"/>
<path d="M67.3427 4.90226C67.5684 5.53809 68.3764 5.88731 69.1408 5.70611L69.5408 5.60728C69.7309 5.56116 69.9329 5.64352 69.9884 5.80166L70.325 6.74058C70.3805 6.89872 70.2736 7.06673 70.0795 7.11615L69.6795 7.21498C69.4893 7.2611 69.2873 7.17215 69.2279 7.01072L69.0022 6.38148C68.9665 6.27935 68.8437 6.22335 68.721 6.253L68.115 6.40454C67.9922 6.43419 67.9249 6.53632 67.9645 6.63844L68.1744 7.23145C68.4002 7.86729 69.2121 8.23297 69.9765 8.04189L70.3765 7.94306C71.1409 7.75528 71.5766 7.0799 71.3508 6.44407L71.034 5.55457C70.8043 4.91215 70.0042 4.55304 69.2319 4.74412L68.8319 4.84296C68.6378 4.8825 68.4398 4.80014 68.3803 4.63871L68.2219 4.19725C68.1665 4.03912 68.2774 3.87768 68.4675 3.82826L68.8675 3.72943C69.0576 3.68331 69.2596 3.76567 69.3151 3.9238L69.3705 4.07535C69.4062 4.17747 69.5289 4.23349 69.6517 4.20384L70.2577 4.05229C70.3805 4.02264 70.4478 3.92051 70.4082 3.81838L70.3646 3.69648C70.1389 3.06065 69.3349 2.69497 68.5625 2.88605L68.1625 2.98488C67.3981 3.17266 66.9585 3.84803 67.1882 4.48387L67.3427 4.90226Z" fill="#767676"/>
<path d="M72.9084 6.37192C73.0391 6.89578 73.649 7.22855 74.2749 7.11982L75.2492 6.95179C75.8711 6.84636 76.279 6.33568 76.1483 5.81511L75.3403 2.55007C75.2096 2.02621 74.5917 1.68685 73.9699 1.79228L72.9955 1.96031C72.3657 2.06904 71.9657 2.58302 72.0964 3.10687L72.9084 6.37192ZM73.3678 2.78069L74.0253 2.66867C74.1481 2.64891 74.2749 2.70162 74.2986 2.80706L75.067 5.90408C75.0908 6.00621 75.0076 6.11493 74.8848 6.1347L74.2273 6.24673C74.1045 6.2665 73.9738 6.1973 73.9501 6.09517L73.1856 2.99814C73.1579 2.89601 73.245 2.80376 73.3678 2.78069Z" fill="#767676"/>
<path d="M78.1086 6.54298L80.2196 6.32223C80.3464 6.30906 80.4335 6.21681 80.4177 6.11138L80.3464 5.63365C80.3305 5.52822 80.2196 5.45904 80.0929 5.47222L78.8374 5.604L78.2036 1.4132C78.1878 1.30777 78.0769 1.23858 77.9502 1.25176L77.3204 1.31765C77.1936 1.33083 77.1105 1.42308 77.1263 1.52851L77.863 6.38483C77.8709 6.48697 77.9858 6.55616 78.1086 6.54298Z" fill="#767676"/>
<path d="M82.0418 6.19713L82.6755 6.1609C82.8023 6.15431 82.8933 6.06535 82.8854 5.95992L82.4973 1.0871C82.4894 0.981669 82.3824 0.896001 82.2557 0.905885L81.622 0.942132C81.4953 0.948721 81.4042 1.04427 81.4121 1.1497L81.8002 6.02252C81.8081 6.12795 81.9151 6.20372 82.0418 6.19713Z" fill="#767676"/>
<path d="M84.6836 6.07521H85.2698C85.3965 6.07521 85.4956 5.99284 85.4956 5.88741L85.4995 2.7872L86.6798 5.94342C86.7076 6.02579 86.7987 6.0785 86.8977 6.0785H87.567C87.6938 6.0785 87.7928 5.99614 87.7928 5.89071L87.8007 0.998224C87.8007 0.892797 87.7017 0.810439 87.575 0.810439H86.969C86.8422 0.810439 86.7432 0.892797 86.7432 0.998224L86.7393 3.6405L85.6857 0.935626C85.65 0.85985 85.5668 0.807142 85.4678 0.807142H84.6876C84.5608 0.807142 84.4618 0.889509 84.4618 0.994936L84.4539 5.88741C84.4578 5.99284 84.5568 6.07521 84.6836 6.07521Z" fill="#767676"/>
<path d="M89.5495 6.16103L91.6685 6.306C91.7953 6.31588 91.9022 6.2401 91.9141 6.13467L91.9616 5.65364C91.9735 5.54821 91.8824 5.45926 91.7557 5.44937L90.5001 5.36371L90.6546 3.77896L91.4467 3.83167C91.5735 3.84156 91.6804 3.76578 91.6923 3.66035L91.7398 3.1958C91.7517 3.09037 91.6606 3.00141 91.5339 2.99153L90.7377 2.93881L90.8487 1.8219L92.1042 1.90757C92.231 1.91745 92.3379 1.84168 92.3498 1.73625L92.3973 1.25521C92.4092 1.14978 92.3181 1.06083 92.1913 1.05094L90.0723 0.905974C89.9456 0.89609 89.8386 0.971874 89.8268 1.0773L89.3475 5.95676C89.3317 6.06219 89.4228 6.15115 89.5495 6.16103Z" fill="#767676"/>
<path d="M93.553 6.50349L93.7233 6.52326L93.5847 6.68799C93.553 6.72093 93.5253 6.76376 93.5174 6.80989L93.4936 6.95155C93.4818 7.01085 93.5372 7.07016 93.6006 7.07675L93.9055 7.11298C93.9689 7.11957 94.0401 7.07675 94.0481 7.01745L94.056 6.9812C94.0639 6.94496 94.0956 6.90873 94.1075 6.89555L94.3134 6.64516C94.3372 6.60891 94.353 6.57267 94.3609 6.53643L94.4678 5.91045C94.4837 5.80503 94.4084 5.71937 94.3015 5.70949L93.6996 5.63701C93.5729 5.62053 93.462 5.68642 93.4461 5.78856L93.359 6.29593C93.3431 6.40136 93.4263 6.48702 93.553 6.50349Z" fill="#767676"/>
<path d="M96.0733 6.8262L97.614 7.09637C98.3942 7.23474 99.1666 6.81302 99.329 6.16727L100.038 3.37669C100.204 2.72105 99.7013 2.07859 98.921 1.94022L97.3803 1.67005C97.2575 1.64699 97.1348 1.71947 97.111 1.8216L95.899 6.60217C95.8713 6.7076 95.9466 6.80314 96.0733 6.8262ZM98.0101 2.64857L98.7111 2.77047C98.9052 2.80342 99.0319 2.96486 98.9923 3.1263L98.2596 6.01242C98.22 6.17386 98.0259 6.27929 97.8318 6.24635L97.1308 6.12444L98.0101 2.64857Z" fill="#767676"/>
<path d="M100.66 7.71929L101.27 7.86096C101.393 7.89061 101.516 7.8313 101.547 7.73246L103.144 3.0277C103.179 2.92556 103.112 2.81685 102.989 2.7872L102.379 2.64552C102.256 2.61587 102.13 2.68176 102.098 2.7839L100.502 7.48866C100.466 7.5875 100.537 7.68964 100.66 7.71929Z" fill="#767676"/>
<path d="M103.223 8.35499L105.231 8.9381C105.349 8.97434 105.476 8.92163 105.52 8.8228L105.71 8.36816C105.753 8.26933 105.69 8.16391 105.571 8.12768L104.383 7.78175L105.013 6.28279L105.765 6.50022C105.884 6.53646 106.011 6.48375 106.054 6.38492L106.241 5.94346C106.284 5.84463 106.221 5.73921 106.102 5.70297L105.349 5.48553L105.797 4.42802L106.985 4.77395C107.104 4.81018 107.231 4.75747 107.274 4.65864L107.464 4.204C107.508 4.10517 107.445 3.99975 107.326 3.96351L105.318 3.3804C105.199 3.34416 105.072 3.39687 105.029 3.4957L103.084 8.1145C103.044 8.21662 103.104 8.32205 103.223 8.35499Z" fill="#767676"/>
<path d="M108.023 9.8874L108.403 10.0258C109.132 10.2927 109.991 10.0159 110.312 9.40962L110.76 8.5628C111.085 7.94992 110.756 7.24478 110.019 6.97459L109.639 6.83619C109.461 6.7637 109.374 6.59236 109.453 6.4375L109.675 6.01903C109.754 5.86746 109.968 5.80485 110.15 5.87075L110.53 6.00915C110.712 6.07505 110.799 6.24639 110.72 6.39796L110.645 6.54294C110.593 6.6385 110.645 6.74723 110.76 6.79007L111.338 7.00424C111.453 7.04708 111.584 7.00424 111.635 6.90868L111.698 6.79007C112.019 6.18378 111.695 5.47205 110.958 5.20186L110.578 5.06346C109.849 4.79657 108.989 5.07336 108.669 5.67964L108.459 6.07175C108.138 6.67804 108.478 7.37988 109.203 7.65337L109.583 7.79175C109.766 7.85765 109.853 8.029 109.774 8.18057L109.298 9.07682C109.219 9.22839 109.005 9.29759 108.819 9.23169L108.439 9.09329C108.257 9.02739 108.173 8.84946 108.253 8.6946L108.57 8.0949C108.621 7.99934 108.57 7.89061 108.455 7.84777L107.876 7.6336C107.762 7.59076 107.631 7.6336 107.579 7.72916L107.278 8.2926C106.961 8.90548 107.294 9.6205 108.023 9.8874Z" fill="#767676"/>
<path d="M111.209 11.1391L113.082 11.9793C113.193 12.0287 113.328 11.9957 113.387 11.9035L113.66 11.4785C113.72 11.3862 113.68 11.2742 113.569 11.2248L112.46 10.7273L113.367 9.33041L114.068 9.6434C114.179 9.69282 114.314 9.65987 114.373 9.56762L114.639 9.15579C114.698 9.06354 114.659 8.95153 114.548 8.90211L113.847 8.58912L114.484 7.60074L115.593 8.09823C115.704 8.14764 115.839 8.1147 115.902 8.02245L116.176 7.59744C116.235 7.50519 116.195 7.39318 116.084 7.34376L114.211 6.50363C114.1 6.45421 113.965 6.48715 113.906 6.5794L111.118 10.8855C111.054 10.9777 111.094 11.0897 111.209 11.1391Z" fill="#767676"/>
<path d="M114.733 12.7863L116.527 13.7352C116.634 13.7912 116.772 13.7648 116.84 13.6758L117.149 13.2706C117.216 13.1817 117.184 13.0664 117.081 13.0103L116.012 12.447L118.733 8.87894C118.8 8.78999 118.769 8.67467 118.662 8.61867L118.127 8.33534C118.02 8.27933 117.881 8.30568 117.814 8.39464L114.661 12.526C114.594 12.615 114.626 12.7303 114.733 12.7863Z" fill="#767676"/>
<path d="M118.28 13.9033L117.919 14.3184C117.844 14.4041 117.872 14.5128 117.975 14.5754L118.113 14.6578L117.9 14.75C117.852 14.7665 117.804 14.7961 117.773 14.8324L117.674 14.9477C117.63 14.9971 117.646 15.0696 117.697 15.1025L117.947 15.2508C117.999 15.2804 118.086 15.2705 118.129 15.2211L118.157 15.1915C118.185 15.1618 118.232 15.1421 118.252 15.1355L118.573 14.9938C118.613 14.9707 118.648 14.9444 118.676 14.9147L119.12 14.4008C119.195 14.3151 119.175 14.2097 119.084 14.157L118.593 13.8638C118.486 13.8045 118.351 13.8177 118.28 13.9033Z" fill="#767676"/>
<path d="M120.539 16.1898C120.638 16.2557 120.777 16.2426 120.856 16.1635L122.567 14.4107L123.193 14.8324C123.292 14.8983 123.431 14.8851 123.51 14.8061L123.871 14.4371C123.95 14.3547 123.938 14.2394 123.839 14.1735L123.213 13.7517L124.057 12.8885L125.039 13.5541C125.138 13.6199 125.277 13.6101 125.356 13.5277L125.72 13.1521C125.799 13.0697 125.784 12.9544 125.689 12.8885L124.037 11.7716C123.938 11.7057 123.799 11.7156 123.72 11.798L120.009 15.5968C119.93 15.6792 119.945 15.7945 120.04 15.8604L120.539 16.1898Z" fill="#767676"/>
<path d="M123.698 18.463L124.419 19.033C124.878 19.3954 125.619 19.3822 126.059 19.0001L129.465 16.0217C129.552 15.946 129.556 15.8241 129.461 15.7516L129.002 15.3891C128.91 15.3167 128.764 15.3266 128.677 15.4023L125.346 18.3148C125.259 18.3906 125.112 18.3906 125.021 18.3148L124.534 17.9293C124.443 17.8568 124.431 17.7349 124.518 17.6592L127.849 14.7467C127.936 14.6709 127.94 14.549 127.845 14.4765L127.386 14.1141C127.294 14.0416 127.148 14.0515 127.061 14.1273L123.655 17.1057C123.223 17.4845 123.239 18.1006 123.698 18.463Z" fill="#767676"/>
<path d="M126.463 20.7596L127.881 22.0773C127.964 22.1564 128.107 22.163 128.202 22.0905L128.634 21.7677C128.729 21.6985 128.737 21.5799 128.65 21.5008L127.81 20.72L129.232 19.6592L129.762 20.1534C129.846 20.2324 129.988 20.239 130.083 20.1665L130.499 19.8536C130.594 19.7844 130.602 19.6658 130.515 19.5867L129.984 19.0925L130.986 18.3447L131.826 19.1222C131.909 19.2013 132.052 19.2078 132.147 19.1354L132.578 18.8125C132.674 18.7433 132.681 18.6247 132.594 18.5457L131.176 17.2279C131.093 17.1488 130.951 17.1422 130.856 17.2147L126.475 20.4795C126.384 20.5652 126.38 20.6805 126.463 20.7596Z" fill="#767676"/>
<path d="M129.092 23.2962L130.395 24.6931C130.475 24.7754 130.613 24.7919 130.712 24.726L131.172 24.4295C131.271 24.3636 131.291 24.2483 131.211 24.166L130.435 23.3325L134.447 20.7464C134.546 20.6805 134.566 20.5652 134.487 20.4828L134.099 20.0677C134.02 19.9854 133.881 19.9689 133.782 20.0348L129.132 23.0294C129.033 23.0953 129.017 23.2106 129.092 23.2962Z" fill="#767676"/>
<path d="M133.466 28.5482L133.965 29.2631C134.282 29.7178 134.995 29.8792 135.549 29.6123L139.015 27.9354C139.569 27.6652 139.76 27.0689 139.443 26.6143L138.944 25.8993C138.619 25.4381 137.906 25.2865 137.351 25.5534L133.886 27.2303C133.327 27.5005 133.141 28.0869 133.466 28.5482ZM134.531 27.9617L137.815 26.3705C137.926 26.3177 138.056 26.3573 138.12 26.4495L138.456 26.9305C138.52 27.0228 138.496 27.1381 138.385 27.1908L135.098 28.7821C134.987 28.8348 134.84 28.8018 134.777 28.7129L134.44 28.2319C134.385 28.1397 134.424 28.0145 134.531 27.9617Z" fill="#767676"/>
<path d="M135.359 31.4243L135.64 31.8954C135.696 31.991 135.83 32.0272 135.941 31.9811L141.209 29.8166C141.324 29.7704 141.375 29.6551 141.32 29.5596L141.039 29.0885C140.983 28.9929 140.841 28.96 140.726 29.0061L135.458 31.1706C135.347 31.22 135.299 31.3321 135.359 31.4243Z" fill="#767676"/>
<path d="M142.337 31.3849C142.29 31.286 142.159 31.2432 142.04 31.2827L136.618 33.1804C136.503 33.22 136.448 33.3287 136.499 33.4275L137.323 35.0584C137.37 35.1539 137.501 35.2001 137.62 35.1572L138.155 34.9694C138.273 34.9299 138.325 34.8212 138.277 34.7223L137.786 33.7504L142.468 32.113C142.583 32.0734 142.638 31.9647 142.591 31.8659L142.337 31.3849Z" fill="#767676"/>
</svg>
