<svg width="177" height="92" viewBox="0 0 177 92" fill="none" xmlns="http://www.w3.org/2000/svg">
<path d="M33.614 31.402C33.6364 32.1669 33.5287 32.9579 33.2865 33.7751C33.0443 34.5923 32.7033 35.3833 32.2682 36.1483C31.712 37.1147 31.0391 37.9878 30.2496 38.764C29.4601 39.5401 28.6078 40.208 27.6882 40.7752C26.8404 41.2789 25.9522 41.6632 25.0191 41.9244C24.0861 42.1856 23.1844 42.3162 22.3142 42.3162H22.1706C21.0806 42.2976 20.0982 42.0886 19.2279 41.6968C18.3577 41.305 17.631 40.7341 17.0478 39.9879C16.6621 40.5326 16.3211 41.0215 16.0296 41.4543C15.738 41.8871 15.4958 42.2267 15.3029 42.4655C13.5085 44.9021 11.8174 46.7267 10.216 47.9357C9.29636 48.5999 8.37677 49.0999 7.45269 49.432C6.5331 49.7641 5.57763 49.932 4.58178 49.932C3.1508 49.932 2.0742 49.6185 1.3475 48.9954C0.670144 48.3909 0.329224 47.6148 0.329224 46.667C0.329224 45.8424 0.566973 44.9581 1.03798 44.0215C1.50899 43.0849 2.15943 42.1931 2.98034 41.3461C3.8775 40.4207 4.84643 39.7043 5.88714 39.2005C6.92785 38.6968 7.95959 38.4431 8.97338 38.4431C9.8212 38.4431 10.512 38.6446 11.0458 39.0476C11.5079 39.4095 11.7366 39.9058 11.7366 40.5289C11.7366 41.0513 11.5752 41.6073 11.2477 42.1894C10.9202 42.7752 10.4806 43.3162 9.91989 43.82C9.33673 44.3461 8.69526 44.7566 7.99548 45.0588C7.17009 45.4021 6.37161 45.5737 5.59557 45.5737C5.40268 45.5737 5.24567 45.5252 5.12455 45.4207C5.00344 45.32 4.94512 45.1894 4.94512 45.0289C4.94512 44.8685 5.00344 44.7416 5.12455 44.6521C5.24567 44.5625 5.40268 44.5177 5.59557 44.5177C6.17872 44.5177 6.76188 44.3983 7.35849 44.1558C7.95062 43.9133 8.50237 43.5625 9.00927 43.0998C9.44439 42.6968 9.79429 42.264 10.0634 41.8013C10.3281 41.3386 10.4627 40.917 10.4627 40.5326C10.4627 40.4319 10.4492 40.3199 10.4268 40.2005C10.4044 40.0811 10.3371 39.9692 10.2249 39.8685C10.1173 39.7677 9.96475 39.6819 9.77186 39.611C9.57897 39.5401 9.30982 39.5065 8.97338 39.5065C8.14799 39.5065 7.30018 39.7229 6.42993 40.1558C5.55968 40.5886 4.73429 41.208 3.95825 42.014C3.23155 42.7603 2.65736 43.5439 2.23121 44.3722C1.80505 45.1969 1.59422 45.9655 1.59422 46.6708C1.59422 47.3573 1.81403 47.8797 2.24915 48.2417C2.7067 48.6633 3.48275 48.876 4.5728 48.876C6.19667 48.876 7.78016 48.2902 9.33225 47.1223C10.8574 45.9954 12.4813 44.2603 14.1994 41.9244C14.3922 41.6632 14.6524 41.305 14.9799 40.8498C15.3073 40.3983 15.6707 39.8796 16.0699 39.2938C16.4692 38.708 16.8819 38.0811 17.3035 37.4057C17.7252 36.7304 18.1334 36.0401 18.5192 35.3348C19.1023 34.3087 19.5554 33.4169 19.8829 32.6594C20.2103 31.9057 20.4391 31.2527 20.5737 30.7116C20.7083 30.1669 20.7666 29.7266 20.7531 29.3833C20.7397 29.04 20.6993 28.7676 20.6275 28.5661C20.484 28.2042 20.2148 27.9616 19.829 27.8422C19.2728 27.6594 18.7211 27.596 18.1783 27.6445C17.631 27.6967 17.1106 27.8161 16.6172 28.0064C16.1193 28.1967 15.6617 28.4542 15.2356 28.7788C14.8094 29.0997 14.4416 29.443 14.1276 29.8049C13.6207 30.4505 13.3022 31.0736 13.1811 31.6781C13.1317 31.8796 13.1272 32.0997 13.1631 32.3423C13.199 32.5848 13.3246 32.8162 13.5444 33.0363C14.0289 33.5214 14.621 33.5587 15.3253 33.1557C15.8322 32.8945 16.2225 32.5214 16.4871 32.0363C16.7518 31.6146 16.8011 31.2602 16.6307 30.9803C16.4602 30.6594 16.5679 30.4281 16.9581 30.2863C17.1017 30.2266 17.2587 30.2154 17.4291 30.2564C17.5996 30.2975 17.7207 30.387 17.7925 30.5288C17.963 30.8124 18.0302 31.1184 17.9944 31.4505C17.9585 31.7826 17.8508 32.1109 17.6669 32.4318C17.4875 32.7527 17.2542 33.0624 16.9761 33.3535C16.6979 33.6445 16.3884 33.8833 16.0475 34.0624C15.5137 34.346 14.935 34.4841 14.3025 34.4841C13.6745 34.4654 13.0914 34.2117 12.5575 33.7303C11.9744 33.1445 11.7591 32.4094 11.9026 31.5251C12.0462 30.7378 12.4364 29.9654 13.0644 29.1967C13.4502 28.7527 13.9123 28.3348 14.4461 27.943C14.9799 27.5512 15.5586 27.2377 16.1911 27.0064C16.8191 26.775 17.483 26.6333 18.1693 26.5847C18.8601 26.5362 19.5554 26.6183 20.2597 26.8422C20.9864 27.0847 21.5067 27.5362 21.8207 28.2004C21.9419 28.5437 22.0092 28.9318 22.0226 29.3646C22.0361 29.7975 21.9688 30.2863 21.8207 30.8311C22.4757 30.2452 23.1306 29.7415 23.7811 29.3198C24.6782 28.6967 25.5754 28.2004 26.4681 27.8385C27.3652 27.4765 28.1996 27.2452 28.9756 27.1444C30.3572 26.984 31.4338 27.2452 32.2099 27.9318C33.1519 28.693 33.614 29.8497 33.614 31.402ZM31.1064 35.693C31.9766 34.2639 32.3893 32.8423 32.34 31.4318C32.34 30.8087 32.2547 30.2602 32.0843 29.7863C31.9138 29.3124 31.6581 28.9467 31.3217 28.6818C30.8597 28.2377 30.1464 28.0773 29.1775 28.1967C28.5226 28.2788 27.7959 28.484 26.9974 28.8161C26.1989 29.1482 25.4004 29.5885 24.5975 30.1296C23.7721 30.6743 23.0274 31.2714 22.3635 31.9281C21.6951 32.5848 21.1344 33.2527 20.6724 33.9393C20.6724 33.958 20.6679 33.9692 20.6544 33.9692C20.641 33.9692 20.6365 33.9803 20.6365 33.999C20.4929 34.2826 20.3449 34.5699 20.2014 34.8609C20.0578 35.152 19.8874 35.4617 19.6945 35.7826C19.0665 36.8908 18.425 37.9281 17.7701 38.8946C18.2052 39.6595 18.8063 40.2379 19.5689 40.6334C20.3315 41.0252 21.2107 41.2341 22.202 41.2528C22.9781 41.2714 23.7721 41.167 24.584 40.9356C25.3959 40.7043 26.1899 40.3573 26.966 39.8946C27.8138 39.3908 28.5898 38.7863 29.2896 38.0811C29.9894 37.3759 30.595 36.5811 31.1064 35.693Z" fill="#767676"/>
<path d="M41.2407 44.0926C41.3618 44.1933 41.4291 44.3127 41.4426 44.4545C41.456 44.5963 41.3977 44.7157 41.2811 44.8164C41.2587 44.8575 40.9895 45.1 40.4826 45.5403C39.9757 45.9844 39.2939 46.477 38.446 47.0217C36.0955 48.4919 33.9647 49.227 32.0538 49.227C31.0355 49.227 30.2684 49.0778 29.7481 48.7755C29.2277 48.4733 28.8464 48.1598 28.6042 47.8389C28.1421 47.1747 28.012 46.3426 28.2049 45.3463C28.3978 44.35 28.9182 43.2455 29.766 42.0365C30.9503 40.2828 32.2422 38.8536 33.6373 37.7454C35.0279 36.6372 36.3422 35.9916 37.5803 35.8125C38.5268 35.6931 39.3118 35.8423 39.9398 36.2677C40.4243 36.611 40.689 37.0737 40.7383 37.6596C40.7607 38.264 40.532 38.9357 40.0475 39.6708C39.563 40.4059 38.8587 41.1559 37.9392 41.9209C36.9209 42.7866 35.8443 43.4209 34.7049 43.8239C33.7584 44.1672 32.8522 44.3388 31.982 44.3388C31.5469 44.3388 31.1566 44.309 30.8202 44.2493C30.4792 44.1896 30.2011 44.1187 29.9858 44.0366C29.8647 44.2978 29.7615 44.5441 29.6763 44.7754C29.5911 45.0068 29.5238 45.2344 29.4744 45.4545C29.3309 46.2605 29.4116 46.8762 29.7301 47.2979C30.1159 47.8837 30.8919 48.1747 32.0538 48.1747C33.0451 48.1747 34.032 47.9695 35.0144 47.5553C35.9968 47.1411 36.8805 46.6859 37.6655 46.1822C38.4505 45.6784 39.092 45.2157 39.5899 44.7903C40.0879 44.3687 40.3346 44.1448 40.3346 44.1261C40.4557 44.0254 40.5992 43.9694 40.7697 43.9582C40.9402 43.947 41.0972 43.9918 41.2407 44.0926ZM30.8516 42.5515C30.8022 42.6522 30.7439 42.7418 30.6721 42.8239C30.6004 42.906 30.5376 42.9955 30.4882 43.0963C30.6811 43.1373 30.9054 43.1784 31.1611 43.2157C31.4168 43.2567 31.7128 43.2754 32.0493 43.2754C33.7225 43.2567 35.3912 42.5589 37.0644 41.1895C37.8405 40.544 38.4371 39.9171 38.8632 39.3014C39.2849 38.6857 39.4868 38.1596 39.4643 37.7155C39.415 37.4543 39.3073 37.2416 39.1369 37.0812C38.7959 36.8386 38.3474 36.7677 37.7911 36.8685C37.3067 36.9282 36.7863 37.1073 36.2301 37.3984C35.6738 37.6894 35.1041 38.07 34.521 38.5327C33.2111 39.5813 31.991 40.9208 30.8516 42.5515Z" fill="#767676"/>
<path d="M50.0324 36.4169C50.4451 36.458 50.6515 36.6483 50.6515 36.9916C50.6291 37.152 50.5483 37.2789 50.4137 37.3685C50.2792 37.458 50.1311 37.4953 49.9607 37.4729C49.4269 37.4319 48.7989 37.4132 48.0722 37.4132C47.3455 37.4132 46.6188 37.4244 45.8921 37.4431C45.3582 38.167 44.8424 38.8984 44.3489 39.6335C43.851 40.3685 43.4249 41.0402 43.0615 41.6447C42.3572 42.7716 41.8459 43.7156 41.5184 44.4694C41.1909 45.2231 40.9666 45.8351 40.8455 46.2978C40.7244 46.7605 40.6885 47.115 40.7379 47.3538C40.7872 47.5964 40.8455 47.7568 40.9218 47.8389C40.9442 47.8799 41.007 47.9359 41.1012 48.0068C41.1999 48.0777 41.4018 48.1113 41.7203 48.1113C42.1329 48.1113 42.6354 47.9956 43.2275 47.7643C43.8196 47.5329 44.4701 47.2045 45.1698 46.7829C45.753 46.4209 46.3361 46.0105 46.9328 45.559C47.5249 45.1038 48.0408 44.656 48.4759 44.2157C48.597 44.1149 48.7405 44.0552 48.911 44.0328C49.0815 44.0142 49.2385 44.0515 49.382 44.1522C49.5031 44.253 49.5749 44.3724 49.6018 44.5142C49.6242 44.656 49.5794 44.7866 49.4583 44.906C48.9738 45.3687 48.422 45.8388 47.8075 46.3127C47.1885 46.7866 46.556 47.2232 45.901 47.6262C44.2547 48.6524 42.8597 49.1673 41.7247 49.1673C41.1685 49.1673 40.7424 49.0815 40.4553 48.9098C40.1637 48.7382 39.9573 48.5628 39.8362 48.38C39.3742 47.7755 39.3652 46.809 39.8003 45.4769C40.1637 44.35 40.8769 42.9096 41.9445 41.1559C42.2855 40.6111 42.6578 40.0215 43.0705 39.3872C43.4832 38.7528 43.9318 38.1036 44.4162 37.4394C44.0753 37.458 43.7658 37.4729 43.4877 37.4841C43.2095 37.4953 42.9718 37.4991 42.7789 37.4991C42.5367 37.5177 42.3169 37.5289 42.124 37.5289H42.0881C41.7023 37.5289 41.4825 37.3573 41.4332 37.014C41.4332 36.8535 41.487 36.7229 41.5947 36.6222C41.7023 36.5214 41.8548 36.4692 42.0477 36.4692C42.0971 36.4692 42.4156 36.458 43.0122 36.4393C43.6043 36.4207 44.3265 36.3983 45.1743 36.3796C45.6094 35.7751 46.0266 35.2005 46.4259 34.6557C46.8251 34.1109 47.175 33.6295 47.48 33.2042C47.7806 32.7825 48.126 32.3198 48.5163 31.8123C48.6149 31.6929 48.745 31.6108 48.9155 31.5698C49.0859 31.5287 49.2429 31.5511 49.3865 31.6295C49.7498 31.831 49.8216 32.0847 49.6063 32.387C49.2654 32.8086 48.9648 33.2042 48.7002 33.5661C48.4355 33.9281 48.126 34.346 47.7716 34.8199C47.4217 35.2938 47.0494 35.8013 46.6636 36.346C47.2916 36.346 47.9062 36.346 48.4983 36.346C49.0815 36.3572 49.5973 36.3759 50.0324 36.4169Z" fill="#767676"/>
<path d="M61.0747 44.1559C61.1959 44.2567 61.2676 44.3761 61.2946 44.5179C61.317 44.6597 61.2721 44.7903 61.151 44.9097C61.1017 44.9507 61.0433 44.9992 60.9716 45.0589C60.8998 45.1186 60.837 45.1783 60.7921 45.2418C59.6797 46.3686 58.6614 47.3089 57.7418 48.0515C56.8222 48.7977 55.9744 49.1709 55.1983 49.1709C54.521 49.1709 54.023 48.9507 53.709 48.5067C53.395 48.0216 53.395 47.3201 53.709 46.391C54.023 45.4843 54.7004 44.2753 55.7456 42.7641C55.9385 42.4806 55.952 42.0253 55.7815 41.391C55.611 40.7567 55.2746 40.0067 54.7632 39.141C54.1083 39.9059 53.3502 40.7641 52.4934 41.7082C51.6321 42.6559 50.6363 43.7119 49.4969 44.8798C49.3757 44.9992 49.2322 45.0701 49.0617 45.0925C48.8913 45.1112 48.7477 45.0739 48.6266 44.9731C48.4831 44.8724 48.3978 44.7529 48.3709 44.6112C48.3485 44.4694 48.3934 44.3388 48.5145 44.2194C50.9368 41.7007 52.7895 39.6671 54.0724 38.1149C53.8526 37.7343 53.7943 37.2753 53.893 36.7418C53.9872 36.2082 54.0993 35.7716 54.2204 35.4283C54.2698 35.3276 54.3371 35.1708 54.4223 34.9582C54.5075 34.7455 54.6241 34.5216 54.7677 34.2791C54.9112 34.0365 55.0772 33.794 55.2566 33.5552C55.4406 33.3126 55.6514 33.1111 55.8936 32.9507C56.1583 32.7679 56.4364 32.6746 56.728 32.6634C57.0196 32.6522 57.2842 32.738 57.5265 32.9209C58.0334 33.2828 58.1455 33.8798 57.8539 34.7044C57.5893 35.35 57.0913 36.1671 56.3646 37.1522C56.2435 37.3126 56.1179 37.4806 55.9833 37.6522C55.8488 37.8238 55.7097 37.9992 55.5662 38.1821C57.1407 40.5813 57.5624 42.2903 56.8357 43.3201C56.2076 44.2268 55.7411 44.9731 55.4361 45.5552C55.131 46.141 54.9337 46.6074 54.835 46.9619C54.7363 47.3164 54.7004 47.5664 54.7273 47.7156C54.7497 47.8686 54.7767 47.9619 54.7991 48.003C54.8215 48.0216 54.8574 48.0477 54.9068 48.0776C54.9561 48.1074 55.0503 48.1224 55.1983 48.1224C55.3194 48.1224 55.5393 48.0552 55.8533 47.9246C56.1673 47.794 56.6159 47.488 57.199 47.003C57.661 46.6597 58.1051 46.2716 58.5448 45.8388C58.9799 45.4059 59.406 44.988 59.8142 44.585C59.8636 44.5253 59.9219 44.4656 59.9937 44.4022C60.0654 44.3425 60.1282 44.2828 60.1731 44.2194C60.2942 44.1186 60.4378 44.0589 60.6082 44.0365C60.7742 44.0141 60.9312 44.0552 61.0747 44.1559ZM55.1894 36.7194C55.2118 36.6783 55.2297 36.6559 55.2432 36.6447C55.2566 36.6335 55.2746 36.6112 55.297 36.5701C55.6828 36.0477 55.9744 35.6149 56.1673 35.2716C56.3602 34.9283 56.5082 34.6485 56.6024 34.4246C56.7011 34.2044 56.7459 34.044 56.7459 33.9395C56.7459 33.8388 56.7325 33.7679 56.71 33.7268C56.6114 33.7865 56.4723 33.9171 56.2929 34.1186C56.109 34.3201 55.925 34.6223 55.7277 35.0253C55.5841 35.3276 55.4675 35.6261 55.3823 35.9171C55.306 36.2119 55.2387 36.4768 55.1894 36.7194Z" fill="#767676"/>
<path d="M70.8143 44.3052C70.5003 44.7679 70.1011 45.2828 69.6166 45.8462C69.1321 46.4097 68.5759 46.9507 67.9434 47.4619C67.3154 47.9769 66.6156 48.4022 65.853 48.7455C65.0904 49.0888 64.274 49.2605 63.3993 49.2605C62.529 49.2605 61.8561 49.1187 61.3806 48.8388C60.9096 48.5552 60.5642 48.2642 60.3444 47.9619C59.8106 47.2157 59.676 46.2492 59.9452 45.0589C60.2098 43.9321 60.7795 42.7231 61.6543 41.4321C61.9952 40.947 62.4527 40.3761 63.0359 39.7082C63.619 39.044 64.2964 38.3984 65.0725 37.7753C65.364 37.5328 65.696 37.2865 66.0728 37.0365C66.4496 36.7865 66.8354 36.5589 67.2346 36.3574C67.6339 36.1559 68.0466 35.9917 68.4682 35.8574C68.8899 35.7268 69.3116 35.6596 69.7198 35.6596C69.9127 35.6596 70.0697 35.7119 70.1908 35.8126C70.3119 35.9134 70.3702 36.044 70.3702 36.2044C70.3702 36.3649 70.3119 36.4917 70.1908 36.5813C70.0697 36.6708 69.9127 36.7156 69.7198 36.7156C69.2353 36.7156 68.6656 36.8723 68.0107 37.1858C67.3558 37.4992 66.6784 37.947 65.9741 38.529C65.2474 39.1149 64.6059 39.7193 64.0497 40.3425C63.4934 40.9656 63.0583 41.503 62.7398 41.9433C61.9414 43.1112 61.43 44.2082 61.2146 45.238C60.9948 46.1448 61.0801 46.8686 61.4703 47.4134C61.7844 47.9395 62.4258 48.2007 63.3948 48.2007C63.9017 48.2007 64.3861 48.1149 64.8482 47.9433C65.3102 47.7716 65.7498 47.5552 66.176 47.294C66.5976 47.0328 66.9924 46.7418 67.3557 46.4172C67.7191 46.0963 68.0466 45.7828 68.3381 45.4806C68.531 45.2791 68.7015 45.0813 68.845 44.891C68.9886 44.7007 69.1366 44.5141 69.2802 44.3313C68.7733 44.2903 68.3651 44.1895 68.0645 44.0291C67.7595 43.8686 67.5262 43.7082 67.3557 43.544C66.8488 43.0589 66.5932 42.4358 66.5932 41.6708C66.5932 41.2082 66.6784 40.7343 66.8488 40.2492C67.0193 39.7641 67.2705 39.3238 67.6114 38.9208C68.4099 37.9544 69.3205 37.4693 70.3343 37.4693C71.1104 37.4693 71.7025 37.7417 72.1152 38.2865C72.501 38.7902 72.667 39.447 72.6042 40.2492C72.5414 41.0552 72.2229 41.9619 71.6397 42.9694C71.4468 43.2903 71.2898 43.5477 71.1687 43.7418C71.0565 43.9395 70.9354 44.1261 70.8143 44.3052ZM70.3433 38.5328C70.0517 38.5328 69.7601 38.6223 69.473 38.8052C69.1815 38.988 68.9168 39.2268 68.6746 39.529C68.4323 39.8313 68.2395 40.1671 68.0914 40.5403C67.9479 40.9134 67.8716 41.2903 67.8716 41.6746C67.8716 41.835 67.894 42.0291 67.9434 42.2492C67.9927 42.4694 68.1138 42.6709 68.3067 42.8537C68.6207 43.1559 69.1276 43.3089 69.8319 43.3089H70.0158C70.137 43.1074 70.2356 42.9507 70.3074 42.8388C70.3792 42.7268 70.4285 42.6634 70.451 42.641C70.7919 42.0179 71.0207 41.4843 71.1418 41.0402C71.2629 40.5962 71.3212 40.2231 71.3212 39.9208C71.3212 39.6186 71.2898 39.3835 71.2315 39.2119C71.1732 39.0402 71.1149 38.9246 71.07 38.8649C70.8726 38.6447 70.6349 38.5328 70.3433 38.5328Z" fill="#767676"/>
<path d="M74.8837 50.8017C74.1795 50.8017 73.6501 50.6823 73.2868 50.4398C72.9234 50.1972 72.6453 49.9547 72.4524 49.7159C71.8962 48.9099 71.8603 47.7308 72.3448 46.1785C72.5646 45.4546 72.901 44.6635 73.3631 43.8053C73.8251 42.9508 74.3813 42.059 75.0363 41.1299C75.3503 40.6858 75.7316 40.1485 76.1802 39.5142C76.6287 38.8798 77.0953 38.2194 77.5797 37.5328C78.0642 36.8499 78.5487 36.1671 79.0331 35.4917C79.5176 34.8163 79.9482 34.2081 80.3206 33.6633C80.6974 33.1185 81.0069 32.6819 81.2491 32.3498C81.4914 32.0177 81.6125 31.8424 81.6125 31.82C81.8323 31.5364 82.1194 31.4767 82.4827 31.6371C82.8237 31.82 82.8954 32.0588 82.7026 32.361C82.7026 32.3797 82.5814 32.5588 82.3392 32.8909C82.097 33.223 81.7874 33.6558 81.4106 34.1894C81.0338 34.723 80.6032 35.335 80.1232 36.0178C79.6387 36.7044 79.1543 37.3873 78.6698 38.0738C78.1853 38.7604 77.7188 39.4172 77.2702 40.0552C76.8216 40.6896 76.4403 41.2306 76.1263 41.6709C75.4983 42.559 74.9645 43.4023 74.5294 44.2083C74.0942 45.0143 73.7668 45.7606 73.547 46.4434C73.1612 47.6935 73.1702 48.6114 73.5829 49.1935C73.8251 49.5554 74.2602 49.7383 74.8927 49.7383C75.3503 49.7383 75.7809 49.6189 76.1802 49.3763C76.5794 49.1338 76.9382 48.8428 77.2523 48.4995C77.5663 48.1562 77.8399 47.8054 78.0687 47.4435C78.2975 47.0815 78.4859 46.7793 78.6339 46.5367L78.7057 46.477C78.8761 46.1748 79.1543 46.0927 79.54 46.2345C79.7105 46.2942 79.8182 46.3949 79.8675 46.5367C79.9168 46.6785 79.9034 46.8091 79.8316 46.9285L79.7957 47.0181C79.6253 47.3017 79.3965 47.6524 79.1049 48.0741C78.8133 48.4957 78.4679 48.9099 78.0687 49.3129C77.6694 49.7159 77.2029 50.0629 76.6691 50.354C76.1308 50.6562 75.5387 50.8017 74.8837 50.8017Z" fill="#767676"/>
<path d="M96.1387 36.5106C95.2685 37.6599 94.4969 38.7905 93.833 39.9099C93.1647 41.0294 92.6398 42.1003 92.254 43.1302C91.8682 44.1563 91.6484 45.0631 91.5991 45.8504C91.5498 46.6377 91.6843 47.2609 91.9983 47.7236C92.3841 48.3468 93.1377 48.6602 94.2502 48.6602C95.8741 48.6602 97.7761 47.5706 99.9562 45.3952C100.903 44.4287 101.773 43.4324 102.571 42.4025C103.37 41.3764 104.047 40.4771 104.608 39.7121C104.752 39.5106 104.886 39.3241 105.007 39.1524C105.128 38.9808 105.249 38.8241 105.371 38.6823C105.371 38.6636 105.375 38.6524 105.389 38.6524C105.402 38.6524 105.406 38.6412 105.406 38.6226C105.869 37.936 106.308 37.2792 106.734 36.6412C107.156 36.0068 107.564 35.4284 107.95 34.9023C108.022 34.7605 108.143 34.6709 108.313 34.6299C108.484 34.5889 108.654 34.6113 108.82 34.6896C108.964 34.7717 109.062 34.8799 109.112 35.0217C109.161 35.1635 109.134 35.2941 109.04 35.4135C108.506 36.1598 107.945 36.9844 107.349 37.8912C106.757 38.7979 106.151 39.7233 105.532 40.6711C104.913 41.6189 104.303 42.5667 103.697 43.5108C103.092 44.4586 102.527 45.3429 102.006 46.1713C101.486 46.996 101.024 47.7385 100.625 48.3915C100.225 49.0483 99.9158 49.5445 99.696 49.8878C99.9607 49.7684 100.234 49.6416 100.512 49.511C100.791 49.3804 101.078 49.2348 101.365 49.0744C102.284 48.5893 103.303 47.9661 104.415 47.2012C105.528 46.4362 106.645 45.44 107.757 44.2086C107.878 44.0892 108.022 44.0183 108.192 43.9959C108.363 43.9772 108.52 44.0071 108.663 44.0854C108.784 44.1862 108.865 44.3056 108.901 44.4474C108.937 44.5892 108.896 44.7198 108.775 44.8392C107.587 46.1303 106.407 47.1713 105.232 47.9661C104.056 48.7609 102.998 49.4214 102.051 49.9475C101.423 50.2908 100.822 50.5856 100.252 50.8394C99.6826 51.0931 99.1443 51.2983 98.6374 51.4588C97.8613 52.4849 97.0628 53.3208 96.2374 53.9663C95.0756 54.8731 94.0439 55.3358 93.1512 55.3581H93.0435C92.3393 55.3581 91.8324 55.138 91.5184 54.694C91.2761 54.3917 91.2268 54.0298 91.3748 53.6044C91.5184 53.2014 91.8279 52.817 92.3034 52.4551C92.7744 52.0931 93.3486 51.8095 94.0304 51.608C94.174 51.567 94.3444 51.5222 94.5373 51.4737C94.7302 51.4215 94.9365 51.3692 95.1564 51.3058C95.4973 51.2237 95.8831 51.1304 96.3182 51.0185C96.7533 50.9065 97.2378 50.7722 97.7716 50.6117C97.8434 50.511 97.9241 50.399 98.0093 50.2796C98.0946 50.1602 98.1708 50.0371 98.2471 49.9177C98.2964 49.8767 98.5028 49.5595 98.8661 48.9662C99.2295 48.3729 99.6915 47.6228 100.248 46.7161C99.4224 47.4811 98.6015 48.1154 97.7761 48.6191C96.5425 49.343 95.3672 49.7087 94.2502 49.7087C93.2544 49.7087 92.5007 49.5483 91.9804 49.2237C91.46 48.9027 91.0922 48.5706 90.8724 48.2273C90.0739 47.0183 90.1233 45.2161 91.0159 42.8167C91.4286 41.7495 91.9804 40.6264 92.6667 39.4472C93.3575 38.2681 94.1605 37.0964 95.0846 35.9247C95.6677 35.1784 96.3944 34.3836 97.2647 33.5366C97.0718 33.3351 96.9013 33.1336 96.7578 32.9321C96.1298 31.9246 95.9817 30.6969 96.3227 29.2454C96.4662 28.5999 96.7084 27.9469 97.0494 27.2827C97.3903 26.6185 97.7985 25.9916 98.283 25.4095C98.5476 25.1259 98.8527 25.0774 99.1891 25.2565C99.3327 25.3572 99.4269 25.4766 99.4627 25.6184C99.4986 25.7602 99.4583 25.8908 99.3371 26.0102C98.902 26.5326 98.5252 27.0924 98.2112 27.6894C97.8972 28.2827 97.6774 28.8723 97.5563 29.4581C97.4352 30.0439 97.3993 30.585 97.4486 31.0888C97.498 31.5925 97.655 32.044 97.9196 32.447C97.9421 32.4881 97.9735 32.5366 98.0093 32.6C98.0452 32.6597 98.0901 32.7119 98.1349 32.753C99.2474 31.7679 100.423 30.8499 101.661 30.0029C102.047 29.7417 102.522 29.4432 103.078 29.1111C103.635 28.779 104.222 28.4618 104.841 28.1596C105.46 27.8573 106.084 27.6073 106.712 27.4058C107.34 27.2043 107.936 27.0924 108.493 27.0737C109.049 27.0327 109.484 27.0924 109.803 27.2565C110.117 27.417 110.345 27.5775 110.493 27.7416C110.758 28.0252 110.879 28.376 110.857 28.7976C110.834 29.2193 110.677 29.6932 110.386 30.2193C110.045 30.7828 109.587 31.3425 109.004 31.8985C108.421 32.4545 107.757 32.9507 107.008 33.3948C106.38 33.7567 105.59 34.115 104.648 34.4657C103.702 34.8202 102.612 34.9956 101.378 34.9956C100.311 34.9956 99.3551 34.8053 98.5073 34.4209C98.4579 34.4023 98.4086 34.3799 98.3637 34.3612C98.3144 34.3426 98.265 34.3127 98.2202 34.2717C97.4352 34.9993 96.7443 35.7419 96.1387 36.5106ZM95.3762 53.22C95.8113 52.8581 96.2105 52.4849 96.5739 52.1006C96.381 52.1416 96.1926 52.1827 96.0087 52.22C95.8247 52.261 95.6498 52.3021 95.4838 52.3394C95.2909 52.3805 95.1025 52.4215 94.9186 52.4588C94.7347 52.4999 94.5867 52.5409 94.4655 52.5782C93.9317 52.7611 93.5011 52.9775 93.1736 53.2275C92.8462 53.4775 92.6488 53.7051 92.5725 53.9066C92.5501 54.026 92.5501 54.0969 92.5725 54.1193C92.6219 54.1604 92.6802 54.2051 92.752 54.2537C92.8237 54.3022 92.9359 54.3171 93.0794 54.2984C93.694 54.2686 94.4566 53.9066 95.3762 53.22ZM102.459 30.8574C101.248 31.6447 100.122 32.5179 99.0814 33.4881C99.6646 33.7903 100.427 33.9396 101.369 33.9396C102.289 33.9396 103.168 33.8052 104.002 33.5329C104.837 33.2605 105.599 32.9172 106.29 32.5067C106.981 32.0925 107.573 31.641 108.071 31.1485C108.569 30.6559 108.95 30.1857 109.215 29.7417C109.435 29.3984 109.556 29.1111 109.578 28.8797C109.601 28.6484 109.578 28.4917 109.507 28.4096C109.457 28.3685 109.372 28.3088 109.251 28.2267C109.13 28.1446 108.901 28.1148 108.56 28.1372C107.856 28.1558 106.972 28.4058 105.909 28.876C104.846 29.3499 103.697 30.0104 102.459 30.8574Z" fill="#767676"/>
<path d="M123.385 44.1561C123.507 44.2569 123.578 44.3763 123.605 44.5181C123.628 44.6599 123.583 44.7905 123.462 44.9099C123.412 44.9509 123.359 44.9994 123.3 45.0591C123.237 45.1189 123.175 45.1786 123.098 45.242C121.986 46.3689 120.968 47.3092 120.048 48.0518C119.128 48.7981 118.281 49.1712 117.505 49.1712C116.948 49.1712 116.531 49.0854 116.253 48.9138C115.975 48.7421 115.773 48.5667 115.652 48.3839C115.387 47.9809 115.289 47.4883 115.36 46.9025C113.687 48.5145 112.077 49.3205 110.529 49.3205C109.681 49.3205 109.04 49.1787 108.605 48.8988C108.17 48.6152 107.855 48.3354 107.658 48.0518C107.151 47.2868 107.066 46.3279 107.402 45.1823C107.546 44.6188 107.779 44.0405 108.093 43.4434C108.407 42.8501 108.798 42.2494 109.255 41.6449C110.565 39.9508 112.041 38.6112 113.687 37.6261C114.414 37.2044 115.118 36.8761 115.795 36.6447C116.473 36.4134 117.092 36.2977 117.648 36.2977C118.276 36.2977 118.77 36.3872 119.119 36.5701C119.469 36.7529 119.73 36.9432 119.9 37.1447C120.165 37.4283 120.335 37.7604 120.407 38.141C120.6 37.8985 120.757 37.6858 120.878 37.5067C120.999 37.3238 121.12 37.1634 121.241 37.0216C121.34 36.8611 121.448 36.7193 121.569 36.5999C121.667 36.4805 121.797 36.4022 121.968 36.3723C122.138 36.3425 122.295 36.3686 122.439 36.4469C122.583 36.529 122.681 36.6372 122.731 36.779C122.78 36.9208 122.744 37.0514 122.623 37.1708C122.623 37.1895 122.309 37.6074 121.676 38.4246C121.048 39.2418 120.259 40.3239 119.317 41.6747C118.689 42.5815 118.177 43.3837 117.792 44.0778C117.406 44.7718 117.119 45.3763 116.939 45.8913C116.755 46.4062 116.652 46.8241 116.63 47.145C116.607 47.466 116.652 47.701 116.773 47.8391C116.796 47.8801 116.85 47.9361 116.935 48.007C117.02 48.0779 117.208 48.1115 117.5 48.1115C117.621 48.1115 117.841 48.0443 118.155 47.9137C118.469 47.7831 118.931 47.4771 119.537 46.992C119.972 46.6487 120.407 46.2607 120.847 45.8278C121.282 45.395 121.708 44.9771 122.116 44.5741C122.188 44.5144 122.255 44.4547 122.318 44.3912C122.376 44.3315 122.434 44.2718 122.479 44.2084C122.6 44.1076 122.744 44.0479 122.914 44.0255C123.085 44.0143 123.242 44.0554 123.385 44.1561ZM114.634 45.9995C115.239 45.395 115.724 44.8465 116.087 44.3539C116.45 43.8613 116.643 43.6039 116.67 43.5815C116.67 43.5628 116.675 43.5516 116.688 43.5516C116.702 43.5516 116.706 43.5404 116.706 43.5218C117.069 42.8389 117.576 42.0404 118.231 41.1336C118.352 40.9508 118.478 40.7717 118.613 40.5889C118.747 40.406 118.873 40.2381 118.994 40.0739V40.0142C119.016 39.9135 119.052 39.7679 119.102 39.5776C119.151 39.3873 119.178 39.1858 119.191 38.9731C119.205 38.7605 119.191 38.5515 119.155 38.3388C119.119 38.1261 119.03 37.9395 118.882 37.7791C118.617 37.4955 118.204 37.3574 117.648 37.3574C117.307 37.3574 116.859 37.4432 116.302 37.6149C115.746 37.7865 115.141 38.0664 114.486 38.4619C113.831 38.8537 113.14 39.3575 112.413 39.9732C111.686 40.5889 110.982 41.3389 110.305 42.2233C109.457 43.3315 108.901 44.3875 108.632 45.395C108.412 46.3428 108.461 47.0555 108.775 47.5406C109.067 48.0257 109.645 48.2645 110.52 48.2645C111.736 48.2645 113.104 47.5107 114.634 45.9995Z" fill="#767676"/>
<path d="M135.048 44.1559C135.169 44.2567 135.241 44.3761 135.268 44.5179C135.29 44.6597 135.245 44.7903 135.124 44.9097C135.075 44.9507 135.016 44.9992 134.94 45.0589C134.868 45.1186 134.806 45.1783 134.761 45.2418C133.648 46.3686 132.63 47.3089 131.71 48.0515C130.791 48.7977 129.943 49.1709 129.167 49.1709C128.49 49.1709 127.992 48.9507 127.678 48.5067C127.364 48.0216 127.364 47.3201 127.678 46.391C127.992 45.4843 128.669 44.2753 129.714 42.7641C129.907 42.4806 129.921 42.0253 129.75 41.391C129.58 40.7567 129.243 40.0067 128.732 39.141C128.077 39.9059 127.319 40.7641 126.462 41.7082C125.601 42.6559 124.605 43.7119 123.465 44.8798C123.344 44.9992 123.201 45.0701 123.03 45.0925C122.86 45.1112 122.716 45.0739 122.595 44.9731C122.452 44.8724 122.366 44.7529 122.34 44.6112C122.317 44.4694 122.362 44.3388 122.483 44.2194C124.905 41.7007 126.758 39.6671 128.041 38.1149C127.821 37.7343 127.763 37.2753 127.857 36.7418C127.956 36.2082 128.063 35.7716 128.185 35.4283C128.234 35.3276 128.301 35.1708 128.386 34.9582C128.472 34.7455 128.588 34.5216 128.732 34.2791C128.875 34.0365 129.041 33.794 129.221 33.5552C129.405 33.3126 129.616 33.1111 129.858 32.9507C130.122 32.7679 130.405 32.6746 130.692 32.6634C130.984 32.6522 131.248 32.738 131.491 32.9209C131.998 33.2828 132.11 33.8798 131.818 34.7044C131.553 35.35 131.055 36.1671 130.329 37.1522C130.208 37.3126 130.082 37.4806 129.947 37.6522C129.813 37.8238 129.674 37.9992 129.53 38.1821C131.105 40.5813 131.527 42.2903 130.8 43.3201C130.172 44.2268 129.705 44.9731 129.4 45.5552C129.095 46.141 128.898 46.6074 128.799 46.9619C128.7 47.3164 128.665 47.5664 128.691 47.7156C128.714 47.8686 128.741 47.9619 128.763 48.003C128.786 48.0216 128.822 48.0477 128.871 48.0776C128.92 48.1074 129.014 48.1224 129.162 48.1224C129.284 48.1224 129.503 48.0552 129.817 47.9246C130.131 47.794 130.58 47.488 131.163 47.003C131.621 46.6597 132.069 46.2716 132.509 45.8388C132.944 45.4059 133.37 44.988 133.778 44.585C133.828 44.5253 133.886 44.4656 133.962 44.4022C134.034 44.3425 134.097 44.2828 134.146 44.2194C134.267 44.1186 134.411 44.0589 134.581 44.0365C134.747 44.0141 134.904 44.0552 135.048 44.1559ZM129.162 36.7194C129.185 36.6783 129.203 36.6559 129.216 36.6447C129.23 36.6335 129.248 36.6112 129.27 36.5701C129.656 36.0477 129.948 35.6149 130.14 35.2716C130.333 34.9283 130.481 34.6485 130.576 34.4246C130.674 34.2044 130.719 34.044 130.719 33.9395C130.719 33.8388 130.706 33.7679 130.683 33.7268C130.584 33.7865 130.445 33.9171 130.266 34.1186C130.082 34.3201 129.898 34.6223 129.701 35.0253C129.557 35.3276 129.441 35.6261 129.355 35.9171C129.279 36.2119 129.212 36.4768 129.162 36.7194Z" fill="#767676"/>
<path d="M149.761 44.1561C149.882 44.2569 149.954 44.3763 149.981 44.5181C150.003 44.6599 149.958 44.7905 149.837 44.9099C149.788 44.9509 149.734 44.9994 149.676 45.0591C149.617 45.1189 149.55 45.1786 149.474 45.242C148.361 46.3689 147.343 47.3092 146.423 48.0518C145.504 48.7981 144.656 49.1712 143.88 49.1712C143.324 49.1712 142.907 49.0854 142.628 48.9138C142.35 48.7421 142.148 48.5667 142.027 48.3839C141.763 47.9809 141.664 47.4883 141.736 46.9025C140.062 48.5145 138.452 49.3205 136.904 49.3205C136.057 49.3205 135.415 49.1787 134.98 48.8988C134.545 48.6152 134.231 48.3354 134.034 48.0518C133.527 47.2868 133.441 46.3279 133.778 45.1823C133.921 44.6188 134.155 44.0405 134.469 43.4434C134.783 42.8501 135.173 42.2494 135.631 41.6449C136.94 39.9508 138.416 38.6112 140.062 37.6261C140.789 37.2044 141.493 36.8761 142.171 36.6447C142.848 36.4134 143.467 36.2977 144.023 36.2977C144.651 36.2977 145.145 36.3872 145.495 36.5701C145.845 36.7529 146.105 36.9432 146.275 37.1447C146.54 37.4283 146.71 37.7604 146.782 38.141C146.975 37.8985 147.132 37.6858 147.253 37.5067C147.374 37.3238 147.495 37.1634 147.617 37.0216C147.715 36.8611 147.823 36.7193 147.944 36.5999C148.043 36.4805 148.173 36.4022 148.343 36.3723C148.514 36.3425 148.671 36.3686 148.814 36.4469C148.958 36.529 149.057 36.6372 149.106 36.779C149.155 36.9208 149.119 37.0514 148.998 37.1708C148.998 37.1895 148.684 37.6074 148.052 38.4246C147.424 39.2418 146.634 40.3239 145.692 41.6747C145.064 42.5815 144.553 43.3837 144.167 44.0778C143.781 44.7718 143.494 45.3763 143.315 45.8913C143.135 46.4062 143.028 46.8241 143.005 47.145C142.983 47.466 143.028 47.701 143.149 47.8391C143.171 47.8801 143.225 47.9361 143.31 48.007C143.395 48.0779 143.584 48.1115 143.875 48.1115C143.997 48.1115 144.216 48.0443 144.53 47.9137C144.844 47.7831 145.306 47.4771 145.912 46.992C146.347 46.6487 146.782 46.2607 147.222 45.8278C147.657 45.395 148.083 44.9771 148.491 44.5741C148.563 44.5144 148.63 44.4547 148.693 44.3912C148.752 44.3315 148.81 44.2718 148.855 44.2084C148.976 44.1076 149.119 44.0479 149.29 44.0255C149.46 44.0143 149.617 44.0554 149.761 44.1561ZM141.005 45.9995C141.61 45.395 142.095 44.8465 142.458 44.3539C142.821 43.8613 143.014 43.6039 143.041 43.5815C143.041 43.5628 143.046 43.5516 143.059 43.5516C143.072 43.5516 143.077 43.5404 143.077 43.5218C143.44 42.8389 143.947 42.0404 144.602 41.1336C144.723 40.9508 144.849 40.7717 144.983 40.5889C145.118 40.406 145.244 40.2381 145.365 40.0739V40.0142C145.387 39.9135 145.423 39.7679 145.472 39.5776C145.522 39.3873 145.549 39.1858 145.562 38.9731C145.576 38.7605 145.562 38.5515 145.526 38.3388C145.49 38.1261 145.401 37.9395 145.253 37.7791C144.988 37.4955 144.575 37.3574 144.019 37.3574C143.678 37.3574 143.229 37.4432 142.673 37.6149C142.117 37.7865 141.511 38.0664 140.856 38.4619C140.202 38.8537 139.511 39.3575 138.784 39.9732C138.057 40.5889 137.353 41.3389 136.676 42.2233C135.828 43.3315 135.272 44.3875 135.002 45.395C134.783 46.3428 134.832 47.0555 135.146 47.5406C135.438 48.0257 136.016 48.2645 136.891 48.2645C138.111 48.2645 139.479 47.5107 141.005 45.9995Z" fill="#767676"/>
<path d="M164.8 44.1559C164.944 44.2567 165.029 44.376 165.056 44.5178C165.078 44.6596 165.034 44.7902 164.912 44.9096C164.863 44.9507 164.823 44.9917 164.787 45.029C164.751 45.0701 164.706 45.1111 164.661 45.1485C164.419 45.391 164.109 45.6932 163.733 46.0552C163.356 46.4171 162.921 46.794 162.423 47.1896C161.925 47.5814 161.387 47.9694 160.808 48.3538C160.225 48.7381 159.597 49.059 158.919 49.3202C158.457 49.503 157.986 49.6635 157.502 49.8053C157.017 49.9471 156.533 50.0889 156.048 50.2269C155.394 51.1934 154.68 52.0292 153.904 52.7345C152.792 53.7419 151.747 54.2942 150.778 54.3949C150.728 54.3949 150.679 54.3987 150.634 54.4099C150.585 54.4211 150.535 54.4248 150.49 54.4248C149.862 54.4248 149.365 54.2233 149.001 53.8203C148.71 53.5591 148.624 53.1859 148.745 52.7009C148.867 52.2568 149.158 51.8389 149.616 51.4471C150.078 51.0553 150.656 50.7158 151.361 50.4359C151.818 50.2755 152.316 50.1225 152.85 49.9807C153.384 49.8389 153.927 49.6896 154.483 49.5291C154.604 49.4881 154.721 49.4583 154.828 49.4396C154.936 49.4209 155.053 49.3874 155.174 49.35C155.272 49.1896 155.362 49.0291 155.447 48.865C155.533 48.7045 155.622 48.5441 155.721 48.3799C155.743 48.3388 155.806 48.212 155.9 48.003C155.999 47.7903 156.143 47.503 156.336 47.141C154.591 48.5926 153.016 49.3165 151.612 49.3165C150.764 49.3165 150.123 49.1747 149.688 48.8948C149.252 48.6112 148.938 48.3314 148.741 48.0478C148.234 47.2828 148.149 46.3239 148.485 45.1783C148.629 44.6149 148.862 44.0365 149.176 43.4395C149.49 42.8462 149.88 42.2454 150.338 41.6409C151.648 39.9469 153.124 38.6073 154.77 37.6222C155.497 37.2005 156.196 36.8722 156.878 36.6408C157.556 36.4095 158.175 36.2938 158.731 36.2938C159.359 36.2938 159.852 36.3833 160.202 36.5662C160.552 36.749 160.812 36.9393 160.983 37.1408C161.126 37.2826 161.261 37.4729 161.382 37.7155C161.503 37.4953 161.624 37.2826 161.745 37.0811C161.867 36.8796 161.988 36.6669 162.109 36.4468C162.302 36.1445 162.593 36.0624 162.979 36.2042C163.123 36.2639 163.226 36.3647 163.289 36.5065C163.347 36.6483 163.342 36.7789 163.271 36.8983C162.93 37.4841 162.598 38.0625 162.27 38.6371C161.943 39.2117 161.611 39.7901 161.27 40.376L161.234 40.4357C160.628 41.5439 160.059 42.5962 159.525 43.5925C158.991 44.5887 158.534 45.4768 158.143 46.253C157.758 47.0291 157.448 47.6448 157.215 48.0963C156.986 48.5478 156.869 48.7866 156.869 48.8052C156.869 48.8463 156.856 48.865 156.833 48.865C157.098 48.7829 157.354 48.7045 157.596 48.6224C157.838 48.5403 158.081 48.4508 158.323 48.35C158.928 48.1075 159.503 47.8164 160.05 47.4731C160.593 47.1299 161.095 46.7716 161.557 46.3985C162.015 46.0254 162.423 45.6671 162.773 45.3276C163.123 44.9843 163.419 44.6932 163.661 44.4507C163.71 44.4096 163.751 44.3686 163.787 44.3313C163.822 44.2902 163.863 44.2529 163.912 44.2119C164.033 44.1111 164.177 44.0514 164.347 44.029C164.536 44.0141 164.679 44.0552 164.8 44.1559ZM155.972 45.9358C156.578 45.3723 157.085 44.8537 157.497 44.3798C157.91 43.9059 158.139 43.6186 158.188 43.5178C158.48 42.973 158.789 42.4059 159.117 41.8088C159.444 41.2155 159.776 40.6036 160.117 39.9804C160.14 39.861 160.175 39.708 160.225 39.5289C160.274 39.3461 160.297 39.152 160.297 38.9394C160.297 38.7267 160.279 38.5177 160.243 38.305C160.207 38.0923 160.117 37.9169 159.969 37.7752C159.704 37.4916 159.292 37.3535 158.735 37.3535C158.395 37.3535 157.946 37.4393 157.39 37.611C156.833 37.7826 156.228 38.0625 155.573 38.458C154.918 38.8498 154.227 39.3535 153.5 39.9692C152.774 40.5849 152.069 41.3349 151.392 42.2193C150.544 43.3275 149.988 44.3835 149.719 45.391C149.499 46.3388 149.548 47.0515 149.862 47.5366C150.154 48.0217 150.733 48.2605 151.607 48.2605C152.213 48.2605 152.877 48.0627 153.604 47.6709C154.339 47.2828 155.124 46.7045 155.972 45.9358ZM152.958 52.0106C153.178 51.8277 153.388 51.6262 153.595 51.4061C153.801 51.1859 153.998 50.9508 154.196 50.712C153.326 50.9322 152.563 51.1673 151.908 51.4061C151.325 51.6262 150.872 51.8837 150.544 52.1785C150.217 52.4695 150.028 52.727 149.979 52.9509C149.957 53.0703 149.957 53.1412 149.979 53.1636C150.028 53.2233 150.1 53.2792 150.199 53.3315C150.298 53.38 150.441 53.3875 150.634 53.3464C151.311 53.283 152.087 52.8389 152.958 52.0106Z" fill="#767676"/>
<path d="M176.647 44.0926C176.769 44.1933 176.836 44.3127 176.849 44.4545C176.863 44.5963 176.809 44.7157 176.688 44.8164C176.665 44.8575 176.396 45.1 175.889 45.5403C175.382 45.9844 174.701 46.477 173.853 47.0217C171.502 48.4919 169.371 49.227 167.46 49.227C166.442 49.227 165.675 49.0778 165.155 48.7755C164.634 48.4733 164.253 48.1598 164.011 47.8389C163.549 47.1747 163.419 46.3426 163.612 45.3463C163.805 44.35 164.325 43.2455 165.173 42.0365C166.357 40.2828 167.649 38.8536 169.044 37.7454C170.435 36.6372 171.749 35.9916 172.987 35.8125C173.934 35.6931 174.719 35.8423 175.347 36.2677C175.831 36.611 176.096 37.0737 176.145 37.6596C176.167 38.264 175.939 38.9357 175.454 39.6708C174.97 40.4059 174.265 41.1559 173.346 41.9209C172.328 42.7866 171.251 43.4209 170.112 43.8239C169.165 44.1672 168.259 44.3388 167.389 44.3388C166.954 44.3388 166.563 44.309 166.227 44.2493C165.886 44.1896 165.608 44.1187 165.392 44.0366C165.271 44.2978 165.168 44.5441 165.083 44.7754C164.998 45.0068 164.93 45.2344 164.881 45.4545C164.738 46.2605 164.818 46.8762 165.137 47.2979C165.523 47.8837 166.299 48.1747 167.46 48.1747C168.452 48.1747 169.439 47.9695 170.421 47.5553C171.404 47.1411 172.287 46.6859 173.072 46.1822C173.857 45.6784 174.499 45.2157 174.997 44.7903C175.495 44.3687 175.741 44.1448 175.741 44.1261C175.862 44.0254 176.006 43.9694 176.176 43.9582C176.342 43.947 176.499 43.9918 176.647 44.0926ZM166.254 42.5515C166.204 42.6522 166.146 42.7418 166.074 42.8239C166.003 42.906 165.94 42.9955 165.89 43.0963C166.083 43.1373 166.308 43.1784 166.563 43.2157C166.819 43.2567 167.115 43.2754 167.451 43.2754C169.125 43.2567 170.793 42.5589 172.467 41.1895C173.243 40.544 173.839 39.9171 174.265 39.3014C174.687 38.6857 174.889 38.1596 174.867 37.7155C174.817 37.4543 174.71 37.2416 174.539 37.0812C174.198 36.8386 173.75 36.7677 173.193 36.8685C172.709 36.9282 172.189 37.1073 171.632 37.3984C171.076 37.6894 170.506 38.07 169.923 38.5327C168.618 39.5813 167.393 40.9208 166.254 42.5515Z" fill="#767676"/>
<path d="M57.5456 70.5406C57.4649 70.5406 57.3841 70.5107 57.3303 70.451C57.2406 70.3503 57.263 70.2085 57.3841 70.1339C59.1515 69.0294 60.9952 67.8056 63.0228 66.3915C63.1394 66.3132 63.3099 66.3244 63.4041 66.4214C63.4983 66.5184 63.4849 66.6602 63.3682 66.7385C61.3317 68.1564 59.479 69.3839 57.7071 70.4958C57.6578 70.5257 57.5994 70.5406 57.5456 70.5406Z" fill="#767676"/>
<path d="M52.8127 73.6754C52.7319 73.6754 52.6557 73.6455 52.6018 73.5896C52.5076 73.4926 52.5301 73.3508 52.6467 73.2724L53.8399 72.4815C53.9566 72.4031 54.127 72.418 54.2212 72.5188C54.3154 72.6158 54.2975 72.7576 54.1764 72.8359L52.9831 73.6269C52.9293 73.6605 52.871 73.6754 52.8127 73.6754Z" fill="#767676"/>
<path d="M52.6643 67.2648C52.5387 67.2648 52.4266 67.1902 52.3997 67.0857C52.3683 66.9626 52.4625 66.8432 52.6105 66.8208C54.1805 66.5521 55.8493 66.22 57.7154 65.8095C57.859 65.7759 58.007 65.8506 58.0474 65.97C58.0877 66.0894 57.998 66.2125 57.8545 66.2461C55.9839 66.6566 54.3017 66.9924 52.7226 67.2611C52.7002 67.2648 52.6823 67.2648 52.6643 67.2648Z" fill="#767676"/>
<path d="M48.3798 68.1119C48.2587 68.1119 48.1465 68.041 48.1151 67.9403C48.0793 67.8209 48.169 67.6978 48.317 67.668L49.3981 67.4553C49.5416 67.4292 49.6896 67.5001 49.7255 67.6232C49.7614 67.7426 49.6717 67.8657 49.5237 67.8955L48.4426 68.1082C48.4202 68.1119 48.3977 68.1119 48.3798 68.1119Z" fill="#767676"/>
<path d="M139.679 68.0483C139.661 68.0483 139.643 68.0483 139.625 68.0446C137.732 67.7386 136.05 67.4288 134.48 67.1004C134.337 67.0706 134.247 66.9474 134.283 66.828C134.319 66.7086 134.467 66.6339 134.61 66.6638C136.171 66.9922 137.849 67.2982 139.728 67.6042C139.877 67.6266 139.971 67.746 139.944 67.8692C139.921 67.9737 139.805 68.0483 139.679 68.0483Z" fill="#767676"/>
<path d="M131.332 66.5148C131.314 66.5148 131.291 66.5148 131.273 66.511L130.192 66.3132C130.044 66.2871 129.954 66.1676 129.986 66.0445C130.017 65.925 130.161 65.8466 130.309 65.8728L131.39 66.0706C131.538 66.0967 131.628 66.2162 131.596 66.3393C131.569 66.4439 131.457 66.5148 131.332 66.5148Z" fill="#767676"/>
<path d="M77.775 69.0408C77.7301 69.0408 77.6808 69.0296 77.6404 69.011C77.5103 68.9475 77.4655 68.8094 77.5417 68.7012L78.5689 67.231C78.6452 67.1227 78.8112 67.0854 78.9413 67.1489C79.0713 67.2123 79.1162 67.3504 79.0399 67.4586L78.0127 68.9289C77.9589 68.9998 77.8647 69.0408 77.775 69.0408Z" fill="#767676"/>
<path d="M65.8354 84.0151C65.7861 84.0151 65.7322 84.0039 65.6874 83.9778C65.5618 83.9106 65.5304 83.7688 65.6111 83.6643L75.9284 70.7127C76.0137 70.6082 76.1797 70.5821 76.3053 70.6492C76.4309 70.7164 76.4622 70.8582 76.3815 70.9627L66.0642 83.9144C66.0104 83.9815 65.9251 84.0151 65.8354 84.0151Z" fill="#767676"/>
<path d="M81.6012 89.702C81.5833 89.702 81.5609 89.702 81.5429 89.6982C81.3949 89.6721 81.3052 89.5527 81.3366 89.4296C82.5926 84.7094 84.1223 79.978 85.6026 75.4033C86.5356 72.5227 87.4956 69.5451 88.3793 66.601C88.4152 66.4816 88.5632 66.407 88.7068 66.4369C88.8503 66.4667 88.94 66.5899 88.9042 66.7093C88.0204 69.657 87.056 72.6347 86.1229 75.519C84.6426 80.09 83.1174 84.8139 81.8614 89.5229C81.839 89.6311 81.7268 89.702 81.6012 89.702Z" fill="#767676"/>
<path d="M59.2901 79.8475C59.2273 79.8475 59.1645 79.8288 59.1152 79.7915C59.003 79.7094 58.9896 79.5676 59.0838 79.4743L68.042 70.7729C68.1407 70.6796 68.3111 70.6684 68.4233 70.7467C68.5354 70.8288 68.5489 70.9706 68.4547 71.0639L59.4965 79.7654C59.4426 79.8214 59.3664 79.8475 59.2901 79.8475Z" fill="#767676"/>
<path d="M73.8679 86.7281C73.8365 86.7281 73.8051 86.7243 73.7737 86.7131C73.6346 86.6683 73.5628 86.5415 73.6122 86.4221C75.5994 81.963 77.9679 77.5525 80.2557 73.2875C80.9869 71.9293 81.7136 70.5673 82.4358 69.2053C82.4941 69.0934 82.6556 69.0412 82.7947 69.0897C82.9337 69.1382 82.992 69.2725 82.9337 69.3882C82.216 70.7539 81.4848 72.1121 80.7536 73.4741C78.4703 77.7316 76.1063 82.1384 74.1236 86.5825C74.0832 86.6721 73.98 86.7281 73.8679 86.7281Z" fill="#767676"/>
<path d="M70.1671 68.9402C70.1043 68.9402 70.046 68.9215 69.9922 68.8879C69.8756 68.8096 69.8621 68.6678 69.9563 68.5708L72.1454 66.399C72.2396 66.302 72.4146 66.2908 72.5267 66.3691C72.6433 66.4475 72.6568 66.5893 72.5626 66.6863L70.3735 68.8581C70.3197 68.9141 70.2434 68.9402 70.1671 68.9402Z" fill="#767676"/>
<path d="M73.8679 86.7281C73.8365 86.7281 73.8051 86.7243 73.7737 86.7131C73.6346 86.6683 73.5628 86.5415 73.6122 86.4221C75.5994 81.963 77.9679 77.5525 80.2557 73.2875C80.9869 71.9293 81.7136 70.5673 82.4358 69.2053C82.4941 69.0934 82.6556 69.0412 82.7947 69.0897C82.9337 69.1382 82.992 69.2725 82.9337 69.3882C82.216 70.7539 81.4848 72.1121 80.7536 73.4741C78.4703 77.7316 76.1063 82.1384 74.1236 86.5825C74.0832 86.6721 73.98 86.7281 73.8679 86.7281Z" fill="#767676"/>
<path d="M101.17 91.4818C101.035 91.4818 100.919 91.396 100.901 91.2841C100.273 86.8735 99.8241 82.3735 99.389 78.0227C99.0167 74.2987 98.6309 70.4442 98.1375 66.668C98.1195 66.5449 98.2272 66.4329 98.3752 66.4217C98.5232 66.4068 98.6578 66.4964 98.6758 66.6195C99.1692 70.4032 99.555 74.2577 99.9273 77.9853C100.362 82.3324 100.811 86.8288 101.439 91.2318C101.457 91.3549 101.349 91.4669 101.201 91.4818C101.192 91.4818 101.183 91.4818 101.17 91.4818Z" fill="#767676"/>
<path d="M110.774 90.1161C110.653 90.1161 110.541 90.049 110.51 89.9445C109.065 85.0899 107.307 80.2129 105.607 75.5002C104.839 73.3733 104.045 71.1755 103.292 69.0039C103.252 68.8844 103.332 68.7576 103.476 68.724C103.619 68.6904 103.772 68.7576 103.812 68.877C104.566 71.0449 105.36 73.2427 106.122 75.3659C107.823 80.0861 109.586 84.963 111.03 89.8325C111.066 89.9519 110.976 90.075 110.833 90.1049C110.819 90.1124 110.797 90.1161 110.774 90.1161Z" fill="#767676"/>
<path d="M121.877 86.459C121.778 86.459 121.684 86.4143 121.635 86.3359C120.065 83.7836 118.495 81.1791 116.979 78.6604C114.776 75.0037 112.502 71.2237 110.183 67.5446C110.115 67.4326 110.165 67.2983 110.295 67.2423C110.429 67.1864 110.591 67.2274 110.658 67.3356C112.982 71.0222 115.256 74.8021 117.459 78.4589C118.975 80.9776 120.545 83.5821 122.11 86.1307C122.178 86.2426 122.124 86.377 121.994 86.4329C121.962 86.4516 121.922 86.459 121.877 86.459Z" fill="#767676"/>
<path d="M128.276 69.933C128.209 69.933 128.142 69.9143 128.092 69.8695L124.113 66.7352C124.006 66.6494 124.001 66.5076 124.104 66.418C124.208 66.3285 124.378 66.3247 124.486 66.4106L128.465 69.5449C128.572 69.6307 128.577 69.7725 128.474 69.862C128.42 69.9106 128.348 69.933 128.276 69.933Z" fill="#767676"/>
<path d="M134.964 75.6978C134.893 75.6978 134.821 75.6754 134.772 75.6306L132.977 74.0857C132.874 73.9961 132.874 73.8543 132.982 73.7685C133.089 73.6826 133.26 73.6863 133.363 73.7722L135.157 75.3171C135.261 75.4067 135.261 75.5485 135.153 75.6344C135.099 75.6791 135.032 75.6978 134.964 75.6978Z" fill="#767676"/>
<path d="M91.1693 84.9514C91.1603 84.9514 91.1558 84.9514 91.1469 84.9514C90.9988 84.9402 90.8867 84.8319 90.9001 84.7088C91.3891 79.6155 91.8242 75.1602 92.2369 71.0892C92.2503 70.9661 92.3849 70.8802 92.5284 70.884C92.6765 70.8952 92.7886 71.0034 92.7752 71.1265C92.367 75.1975 91.9274 79.6528 91.4384 84.7461C91.4294 84.8618 91.3128 84.9514 91.1693 84.9514Z" fill="#767676"/>
<path d="M90.5342 91.5302C90.5252 91.5302 90.5207 91.5302 90.5117 91.5302C90.3637 91.519 90.2516 91.4108 90.265 91.2876L90.8347 85.6907C90.8482 85.5676 90.9828 85.478 91.1263 85.4855C91.2743 85.4967 91.3865 85.6049 91.373 85.728L90.8033 91.325C90.7943 91.4406 90.6732 91.5302 90.5342 91.5302Z" fill="#767676"/>
<path d="M129.004 81.8955C128.919 81.8955 128.838 81.8619 128.785 81.8022C124.29 76.6267 119.835 71.5445 115.542 66.69C115.453 66.5892 115.48 66.4474 115.601 66.3765C115.722 66.3019 115.892 66.3243 115.977 66.425C120.266 71.2796 124.72 76.3655 129.22 81.541C129.309 81.6417 129.282 81.7835 129.157 81.8544C129.116 81.8805 129.058 81.8955 129.004 81.8955Z" fill="#767676"/>
<path d="M121.427 29.8202C121.351 29.8202 121.274 29.794 121.221 29.7418C121.122 29.6485 121.14 29.503 121.252 29.4246L138.572 17.2415C138.688 17.1594 138.859 17.1744 138.953 17.2677C139.052 17.3609 139.034 17.5065 138.922 17.5848L121.602 29.7679C121.552 29.8015 121.49 29.8202 121.427 29.8202Z" fill="#767676"/>
<path d="M111.796 24.6147C111.751 24.6147 111.702 24.6035 111.662 24.5848C111.531 24.5214 111.487 24.3833 111.563 24.2751L112.599 22.7975C112.675 22.6893 112.841 22.6557 112.971 22.7154C113.102 22.7788 113.146 22.9169 113.07 23.0251L112.034 24.5027C111.98 24.5736 111.886 24.6147 111.796 24.6147Z" fill="#767676"/>
<path d="M114.452 21.1111C114.403 21.1111 114.349 21.0999 114.304 21.0738C114.179 21.0066 114.147 20.8648 114.228 20.7603L124.546 7.80834C124.631 7.70386 124.797 7.67775 124.922 7.74491C125.048 7.81208 125.079 7.95389 124.999 8.05837L114.681 21.0103C114.623 21.0738 114.538 21.1111 114.452 21.1111Z" fill="#767676"/>
<path d="M103.205 21.7154C103.183 21.7154 103.16 21.7117 103.138 21.7079C102.994 21.6781 102.904 21.555 102.94 21.4356C103.429 19.8274 103.923 18.2229 104.416 16.6184C105.87 11.8982 107.368 7.02134 108.732 2.20042C108.767 2.08102 108.911 2.00266 109.059 2.03251C109.203 2.06236 109.297 2.18176 109.261 2.30489C107.897 7.12954 106.394 12.0139 104.941 16.7341C104.448 18.3385 103.954 19.9468 103.465 21.5512C103.434 21.6483 103.326 21.7154 103.205 21.7154Z" fill="#767676"/>
<path d="M127.664 15.876C127.601 15.876 127.538 15.8574 127.489 15.82C127.377 15.7379 127.363 15.5961 127.457 15.5029L131.109 11.9543C131.208 11.8611 131.378 11.8499 131.49 11.9282C131.602 12.0103 131.616 12.1521 131.522 12.2454L127.87 15.7939C127.816 15.8499 127.74 15.876 127.664 15.876Z" fill="#767676"/>
<path d="M114.204 10.4949C114.173 10.4949 114.137 10.4912 114.105 10.48C113.966 10.4352 113.899 10.3046 113.953 10.1889C114.303 9.45386 114.689 8.72625 115.056 8.02103C115.572 7.0397 116.061 6.11432 116.478 5.14791C116.528 5.03224 116.685 4.96881 116.824 5.01359C116.963 5.05463 117.039 5.18524 116.985 5.30091C116.559 6.28225 116.048 7.25984 115.55 8.20387C115.182 8.90162 114.801 9.62551 114.451 10.3568C114.41 10.4427 114.312 10.4949 114.204 10.4949Z" fill="#767676"/>
<path d="M127.214 30.0961C127.115 30.0961 127.021 30.0513 126.976 29.9767C126.909 29.8647 126.958 29.7304 127.088 29.6744L139.003 24.4766C139.137 24.4207 139.299 24.4617 139.366 24.5699C139.433 24.6819 139.384 24.8162 139.254 24.8722L127.339 30.07C127.299 30.0886 127.259 30.0961 127.214 30.0961Z" fill="#767676"/>
<path d="M139.855 24.5663C139.756 24.5663 139.662 24.5215 139.617 24.4469C139.545 24.3349 139.599 24.2006 139.729 24.1446L142.676 22.861C142.811 22.805 142.972 22.8461 143.04 22.9543C143.112 23.0662 143.058 23.2006 142.928 23.2565L139.98 24.5439C139.945 24.5588 139.9 24.5663 139.855 24.5663Z" fill="#767676"/>
<path d="M133.31 31.7117C133.198 31.7117 133.091 31.652 133.055 31.5588C133.005 31.4394 133.082 31.3125 133.225 31.2715L143.193 28.4545C143.332 28.4172 143.489 28.4769 143.538 28.5963C143.587 28.7157 143.511 28.8425 143.368 28.8836L133.4 31.7006C133.369 31.708 133.342 31.7117 133.31 31.7117Z" fill="#767676"/>
<path d="M113.712 29.9134C113.649 29.9134 113.59 29.8947 113.537 29.8611C113.42 29.7828 113.407 29.641 113.501 29.5439L123.814 19.3014C123.912 19.2044 124.083 19.1932 124.195 19.2716C124.312 19.3499 124.325 19.4917 124.231 19.5887L113.918 29.8313C113.869 29.8835 113.792 29.9134 113.712 29.9134Z" fill="#767676"/>
<path d="M108.189 22.6518C108.153 22.6518 108.117 22.6443 108.081 22.6331C107.942 22.5846 107.884 22.4503 107.942 22.3346C109.8 18.8122 111.45 15.6257 112.886 12.316C112.935 12.2004 113.092 12.1369 113.231 12.1817C113.37 12.2228 113.446 12.3534 113.393 12.469C111.957 15.7899 110.297 18.9839 108.436 22.5137C108.391 22.6033 108.292 22.6518 108.189 22.6518Z" fill="#767676"/>
<path d="M92.1673 24.1438C92.0328 24.1438 91.9162 24.058 91.8982 23.9423C91.2837 19.3489 90.7633 14.666 90.2654 10.1398C89.9155 6.97555 89.5522 3.7031 89.1619 0.486621C89.1484 0.363485 89.2561 0.251552 89.4041 0.240358C89.5522 0.229164 89.6867 0.31871 89.7002 0.441846C90.0949 3.65833 90.4538 6.93451 90.8037 10.0988C91.3016 14.6212 91.8219 19.3004 92.4365 23.8901C92.4544 24.0132 92.3468 24.1251 92.1987 24.1401C92.1898 24.1438 92.1808 24.1438 92.1673 24.1438Z" fill="#767676"/>
<path d="M87.5762 25.1596C87.4596 25.1596 87.3474 25.0924 87.316 24.9954L82.7808 11.4801C82.7405 11.3607 82.8257 11.2376 82.9692 11.204C83.1128 11.1704 83.2608 11.2413 83.3012 11.3607L87.8364 24.876C87.8767 24.9954 87.7915 25.1186 87.648 25.1521C87.6211 25.1596 87.5986 25.1596 87.5762 25.1596Z" fill="#767676"/>
<path d="M81.8141 7.97246C81.6974 7.97246 81.5853 7.90529 81.5539 7.80828L79.5712 1.89408C79.5308 1.77468 79.616 1.65155 79.7596 1.61796C79.9031 1.58438 80.0512 1.65527 80.0915 1.77467L82.0742 7.68887C82.1146 7.80828 82.0294 7.93143 81.8859 7.96501C81.8589 7.96874 81.8365 7.97246 81.8141 7.97246Z" fill="#767676"/>
<path d="M82.4106 27.4993C82.3119 27.4993 82.2177 27.4545 82.1683 27.3762C77.3775 19.529 72.9006 12.4057 68.4866 5.59955C68.4148 5.49134 68.4642 5.35327 68.5942 5.29357C68.7243 5.23386 68.8903 5.27491 68.9621 5.38312C73.3761 12.193 77.853 19.32 82.6483 27.1709C82.7156 27.2829 82.6618 27.4172 82.5317 27.4732C82.4913 27.4918 82.4509 27.4993 82.4106 27.4993Z" fill="#767676"/>
<path d="M72.0355 29.8871C71.9682 29.8871 71.901 29.8684 71.8516 29.8236L62.1443 22.1819C62.0366 22.096 62.0322 21.9543 62.1353 21.8647C62.2385 21.7752 62.409 21.7714 62.5166 21.8572L72.2239 29.499C72.3316 29.5848 72.3361 29.7266 72.2329 29.8162C72.1791 29.861 72.1073 29.8871 72.0355 29.8871Z" fill="#767676"/>
<path d="M59.2443 19.6892C59.1726 19.6892 59.1008 19.6668 59.0514 19.6221L53.3455 14.7003C53.2423 14.6107 53.2468 14.4689 53.3544 14.3831C53.4621 14.2972 53.6326 14.301 53.7357 14.3905L59.4417 19.3123C59.5449 19.4019 59.5404 19.5437 59.4327 19.6295C59.3789 19.6668 59.3116 19.6892 59.2443 19.6892Z" fill="#767676"/>
<path d="M54.0012 29.6148C53.9608 29.6148 53.9204 29.6073 53.8845 29.5924L44.2444 25.7491C44.1099 25.6969 44.0515 25.5625 44.1188 25.4469C44.1816 25.3349 44.3476 25.2864 44.4822 25.3424L54.1223 29.1857C54.2569 29.2379 54.3152 29.3723 54.2479 29.4879C54.203 29.5663 54.1043 29.6148 54.0012 29.6148Z" fill="#767676"/>
<path d="M97.8711 22.3424C97.8667 22.3424 97.8577 22.3424 97.8532 22.3424C97.7052 22.335 97.593 22.2268 97.602 22.1036C97.6469 21.5327 97.6917 20.9656 97.7321 20.3947C97.9743 17.1969 98.2255 13.8946 98.6965 10.6557C98.7145 10.5326 98.849 10.4468 98.9971 10.458C99.1451 10.4729 99.2528 10.5848 99.2348 10.708C98.7638 13.9319 98.5126 17.2304 98.2704 20.4208C98.2255 20.9917 98.1851 21.5626 98.1403 22.1298C98.1313 22.2492 98.0102 22.3424 97.8711 22.3424Z" fill="#767676"/>
<path d="M99.5 6.24515C99.4911 6.24515 99.4866 6.24515 99.4776 6.24515C99.3296 6.23395 99.2174 6.12575 99.2309 6.00261L99.8006 0.405347C99.8141 0.282207 99.9531 0.196387 100.092 0.200119C100.24 0.211313 100.352 0.319513 100.339 0.442653L99.7692 6.03992C99.7557 6.1556 99.6391 6.24515 99.5 6.24515Z" fill="#767676"/>
<path d="M63.143 11.9875C63.0622 11.9875 62.9815 11.9577 62.9276 11.898C62.192 11.092 61.4518 10.2488 60.7341 9.4316L60.3124 8.95398C60.2227 8.85323 60.2496 8.71146 60.3707 8.64056C60.4918 8.56967 60.6623 8.58833 60.7475 8.68907L61.1692 9.16666C61.8869 9.98009 62.6226 10.8234 63.3583 11.6256C63.448 11.7263 63.4256 11.8644 63.3044 11.9428C63.2596 11.9726 63.2013 11.9875 63.143 11.9875Z" fill="#767676"/>
<path d="M78.3309 29.1335C78.2502 29.1335 78.1694 29.1036 78.1156 29.0439C75.0921 25.7006 72.0777 22.2678 69.1619 18.9468L67.0984 16.5961C67.0087 16.4954 67.0356 16.3536 67.1567 16.2827C67.2778 16.208 67.4483 16.2304 67.5335 16.3312L69.597 18.6819C72.5128 22.0028 75.5228 25.4319 78.5462 28.7752C78.6359 28.876 78.6135 29.0178 78.4924 29.0924C78.4431 29.1185 78.3847 29.1335 78.3309 29.1335Z" fill="#767676"/>
<path d="M63.3042 29.8351C63.2503 29.8351 63.1965 29.8239 63.1517 29.7941L55.6424 25.484C55.5213 25.4131 55.4899 25.2713 55.5751 25.1705C55.6603 25.0697 55.8308 25.0436 55.9519 25.1145L63.4612 29.4246C63.5823 29.4955 63.6137 29.6373 63.5285 29.7381C63.4746 29.8015 63.3894 29.8351 63.3042 29.8351Z" fill="#767676"/>
<path d="M53.5386 24.2079C53.4847 24.2079 53.4309 24.1967 53.3861 24.1668L48.9047 21.5923C48.7836 21.5214 48.7522 21.3797 48.8374 21.2789C48.9227 21.1782 49.0931 21.152 49.2142 21.2229L53.6956 23.7975C53.8167 23.8684 53.8481 24.0101 53.7629 24.1109C53.709 24.1743 53.6238 24.2079 53.5386 24.2079Z" fill="#767676"/>
<path d="M47.5175 59.4007V60.3411C47.5175 61.0426 46.8357 61.6173 45.9923 61.6173H44.1711C44.0365 61.6173 43.9333 61.5278 43.9333 61.4196V56.2399C43.9333 56.128 44.0365 56.0422 44.1711 56.0422H45.8398C46.6832 56.0422 47.365 56.6168 47.365 57.3184V57.8371C47.365 58.0983 47.2798 58.3372 47.1048 58.5387C47.365 58.7626 47.5175 59.0686 47.5175 59.4007ZM45.0862 58.1356H45.8443C46.0462 58.1356 46.2166 57.9938 46.2166 57.8259V57.2773C46.2166 57.102 46.0462 56.9602 45.8443 56.9602H45.0862V58.1356ZM46.3692 59.3559C46.3692 59.1805 46.1987 59.0387 45.9968 59.0387H45.0862V60.6956H45.9968C46.1987 60.6956 46.3692 60.5538 46.3692 60.3672V59.3559Z" fill="#767676"/>
<path d="M49.7312 56.9471V58.1337H50.5745C50.7091 58.1337 50.8123 58.2195 50.8123 58.3315V58.8241C50.8123 58.936 50.7091 59.0218 50.5745 59.0218H49.7312V60.7047H51.0635C51.1981 60.7047 51.3012 60.7906 51.3012 60.9025V61.4137C51.3012 61.5257 51.1981 61.6115 51.0635 61.6115H48.8116C48.677 61.6115 48.5739 61.5219 48.5739 61.4137V56.2344C48.5739 56.1224 48.677 56.0366 48.8116 56.0366H51.0635C51.1981 56.0366 51.3012 56.1262 51.3012 56.2344V56.7456C51.3012 56.8575 51.1981 56.9434 51.0635 56.9434H49.7312V56.9471Z" fill="#767676"/>
<path d="M54.6169 57.4474V57.2795C54.6169 57.1041 54.4464 56.9698 54.2356 56.9698H53.796C53.5852 56.9698 53.4147 57.1041 53.4147 57.2795V57.7646C53.4147 57.9399 53.5852 58.0743 53.796 58.0817H54.2356C55.0879 58.0817 55.7697 58.6489 55.7697 59.3579V60.3392C55.7697 61.0407 55.0789 61.6153 54.2356 61.6153H53.796C52.9527 61.6153 52.2618 61.0407 52.2618 60.3392V59.6862C52.2618 59.5743 52.365 59.4884 52.4996 59.4884H53.168C53.3026 59.4884 53.4057 59.578 53.4057 59.6862V60.3802C53.4057 60.5556 53.5762 60.6974 53.787 60.6974H54.2266C54.4375 60.6974 54.6079 60.5556 54.6079 60.3802V59.3429C54.6079 59.1676 54.4375 59.0332 54.2266 59.0332H53.787C52.9437 59.0258 52.2529 58.4661 52.2529 57.7646V57.3094C52.2529 56.6079 52.9437 56.0333 53.787 56.0333H54.2266C55.0789 56.0333 55.7608 56.6079 55.7608 57.3094V57.4437C55.7608 57.5556 55.6531 57.6415 55.523 57.6415H54.8546C54.7201 57.6489 54.6169 57.5594 54.6169 57.4474Z" fill="#767676"/>
<path d="M59.8489 56.2379V56.764C59.8489 56.8759 59.7323 56.9618 59.6112 56.9618H58.7858V61.4171C58.7858 61.5291 58.6826 61.6149 58.548 61.6149H57.8752C57.7496 61.6149 57.6374 61.5253 57.6374 61.4171V56.9618H56.821C56.6864 56.9618 56.5833 56.8722 56.5833 56.764V56.2379C56.5833 56.1259 56.6864 56.0401 56.821 56.0401H59.6067C59.7323 56.0364 59.8489 56.1259 59.8489 56.2379Z" fill="#767676"/>
<path d="M66.1321 60.6975H66.5133C66.63 60.6975 66.7421 60.7871 66.7421 60.8953V61.414C66.7421 61.5259 66.6255 61.6117 66.4909 61.6117H64.5934C63.8443 61.6117 63.2432 61.108 63.2432 60.496V57.1564C63.2432 56.5332 63.8487 56.0333 64.5934 56.0333H65.3964C66.1455 56.0333 66.7466 56.537 66.7466 57.1564V59.9065C66.7556 60.2609 66.4954 60.5632 66.1321 60.6975ZM65.6027 57.1601C65.6027 57.0482 65.4861 56.9549 65.3515 56.9549H64.6427C64.5082 56.9549 64.396 57.0519 64.396 57.1601V60.4998C64.396 60.6042 64.5127 60.6975 64.6427 60.6975H65.6027V57.1601Z" fill="#767676"/>
<path d="M70.5024 56.0366H71.1708C71.3054 56.0366 71.4086 56.1336 71.4086 56.2456V60.5964C71.4086 61.1524 70.8523 61.6151 70.1839 61.6151H69.1297C68.4569 61.6151 67.9051 61.1524 67.9051 60.5964V56.2456C67.9051 56.1336 68.0083 56.0366 68.1428 56.0366H68.8157C68.9503 56.0366 69.0535 56.1336 69.0535 56.2456V60.4994C69.0535 60.6113 69.1701 60.6972 69.3047 60.6972H70.0135C70.148 60.6972 70.2647 60.6113 70.2647 60.4994V56.2456C70.2602 56.1336 70.3679 56.0366 70.5024 56.0366Z" fill="#767676"/>
<path d="M75.953 60.7158V61.4173C75.953 61.5293 75.8454 61.6151 75.7153 61.6151H75.0334C74.9078 61.6151 74.8047 61.5255 74.8047 61.4173V60.6934H73.5217V61.4173C73.5217 61.5293 73.4185 61.6151 73.284 61.6151H72.6111C72.4765 61.6151 72.3734 61.5255 72.3734 61.4173V60.7158C72.3734 60.6822 72.3733 60.6598 72.3823 60.6113L73.2077 56.212C73.2257 56.1075 73.3333 56.0366 73.4589 56.0366H74.8944C75.02 56.0366 75.1142 56.1262 75.1321 56.212L75.9441 60.6113C75.953 60.6598 75.953 60.6822 75.953 60.7158ZM74.6701 59.7904L74.1632 56.9769L73.6563 59.7904H74.6701Z" fill="#767676"/>
<path d="M78.0604 56.2379V60.7081H79.4017C79.5363 60.7081 79.6394 60.794 79.6394 60.9059V61.4171C79.6394 61.5291 79.5363 61.6149 79.4017 61.6149H77.1498C77.0152 61.6149 76.912 61.5253 76.912 61.4171V56.2379C76.912 56.1259 77.0152 56.0401 77.1498 56.0401H77.8227C77.9573 56.0364 78.0604 56.1259 78.0604 56.2379Z" fill="#767676"/>
<path d="M81.462 61.6151H80.7937C80.6591 61.6151 80.5559 61.5255 80.5559 61.4173V56.2456C80.5559 56.1336 80.6636 56.0366 80.7937 56.0366H81.462C81.5966 56.0366 81.6998 56.1336 81.6998 56.2456V61.4173C81.7043 61.5293 81.5966 61.6151 81.462 61.6151Z" fill="#767676"/>
<path d="M85.8782 56.2379V56.764C85.8782 56.8759 85.7616 56.9618 85.6405 56.9618H84.8151V61.4171C84.8151 61.5291 84.7119 61.6149 84.5773 61.6149H83.9045C83.7789 61.6149 83.6667 61.5253 83.6667 61.4171V56.9618H82.8503C82.7157 56.9618 82.6125 56.8722 82.6125 56.764V56.2379C82.6125 56.1259 82.7157 56.0401 82.8503 56.0401H85.636C85.7616 56.0364 85.8782 56.1259 85.8782 56.2379Z" fill="#767676"/>
<path d="M89.3654 56.0366H90.0338C90.1683 56.0366 90.2715 56.1262 90.2715 56.2344V57.0218C90.2715 57.1076 90.2536 57.1971 90.2042 57.2755L88.9885 59.354V61.4101C88.9885 61.5221 88.8809 61.6079 88.7508 61.6079H88.0824C87.9478 61.6079 87.8447 61.5184 87.8447 61.4101V59.354L86.62 57.2755C86.5796 57.1971 86.5527 57.1076 86.5527 57.0218V56.2344C86.5527 56.1224 86.6559 56.0366 86.7905 56.0366H87.4634C87.5979 56.0366 87.7011 56.1262 87.7011 56.2344V56.8389C87.7011 56.9023 87.7191 56.9658 87.7594 57.0218L88.4188 58.1524L89.0783 57.0218C89.1052 56.9658 89.1276 56.9023 89.1276 56.8389V56.2344C89.1276 56.1262 89.2308 56.0366 89.3654 56.0366Z" fill="#767676"/>
<path d="M96.2469 58.828C96.2469 59.44 95.6547 59.9364 94.9146 59.9364C94.1879 59.9364 93.5823 59.4438 93.5823 58.828C93.5823 58.2235 94.1879 57.7197 94.9146 57.7197C95.6503 57.7197 96.2469 58.2197 96.2469 58.828Z" fill="#767676"/>
<path d="M103.374 59.3985V60.3388C103.374 61.0403 102.693 61.6149 101.849 61.6149H100.028C99.8935 61.6149 99.7903 61.5253 99.7903 61.4171V56.2381C99.7903 56.1261 99.8979 56.0403 100.028 56.0403H101.697C102.54 56.0403 103.222 56.6149 103.222 57.3164V57.835C103.222 58.0962 103.137 58.335 102.962 58.5365C103.217 58.7604 103.374 59.0664 103.374 59.3985ZM100.939 58.1335H101.697C101.899 58.1335 102.069 57.9918 102.069 57.8239V57.2754C102.069 57.1 101.899 56.9582 101.697 56.9582H100.939V58.1335ZM102.222 59.3537C102.222 59.1783 102.051 59.0365 101.849 59.0365H100.939V60.6932H101.849C102.051 60.6932 102.222 60.5515 102.222 60.3649V59.3537Z" fill="#767676"/>
<path d="M105.586 56.9471V58.1337H106.429C106.564 58.1337 106.667 58.2195 106.667 58.3315V58.8241C106.667 58.936 106.564 59.0218 106.429 59.0218H105.586V60.7047H106.918C107.053 60.7047 107.156 60.7906 107.156 60.9025V61.4137C107.156 61.5257 107.053 61.6115 106.918 61.6115H104.666C104.532 61.6115 104.429 61.5219 104.429 61.4137V56.2344C104.429 56.1224 104.532 56.0366 104.666 56.0366H106.918C107.053 56.0366 107.156 56.1262 107.156 56.2344V56.7456C107.156 56.8575 107.053 56.9434 106.918 56.9434H105.586V56.9471Z" fill="#767676"/>
<path d="M110.472 57.4474V57.2795C110.472 57.1041 110.301 56.9698 110.091 56.9698H109.651C109.44 56.9698 109.27 57.1041 109.27 57.2795V57.7646C109.27 57.9399 109.44 58.0743 109.651 58.0817H110.091C110.943 58.0817 111.625 58.6489 111.625 59.3579V60.3392C111.625 61.0407 110.934 61.6153 110.091 61.6153H109.651C108.808 61.6153 108.117 61.0407 108.117 60.3392V59.6862C108.117 59.5743 108.22 59.4884 108.355 59.4884H109.023C109.157 59.4884 109.261 59.578 109.261 59.6862V60.3802C109.261 60.5556 109.431 60.6974 109.642 60.6974H110.082C110.292 60.6974 110.463 60.5556 110.463 60.3802V59.3429C110.463 59.1676 110.292 59.0332 110.082 59.0332H109.642C108.799 59.0258 108.108 58.4661 108.108 57.7646V57.3094C108.108 56.6079 108.799 56.0333 109.642 56.0333H110.082C110.934 56.0333 111.616 56.6079 111.616 57.3094V57.4437C111.616 57.5556 111.508 57.6415 111.378 57.6415H110.71C110.579 57.6489 110.472 57.5594 110.472 57.4474Z" fill="#767676"/>
<path d="M115.701 56.2379V56.764C115.701 56.8759 115.584 56.9618 115.463 56.9618H114.638V61.4171C114.638 61.5291 114.535 61.6149 114.4 61.6149H113.727C113.602 61.6149 113.489 61.5253 113.489 61.4171V56.9618H112.673C112.538 56.9618 112.435 56.8722 112.435 56.764V56.2379C112.435 56.1259 112.538 56.0401 112.673 56.0401H115.459C115.589 56.0364 115.701 56.1259 115.701 56.2379Z" fill="#767676"/>
<path d="M122.515 57.3127V57.8239C122.515 58.5254 121.824 59.1 120.989 59.1H120.254V61.4171C120.254 61.5291 120.146 61.6149 120.016 61.6149H119.348C119.213 61.6149 119.11 61.5253 119.11 61.4171V56.2381C119.11 56.1261 119.217 56.0403 119.348 56.0403H120.994C121.824 56.0366 122.515 56.6112 122.515 57.3127ZM121.366 57.2716C121.366 57.0963 121.205 56.9545 120.994 56.9545H120.258V58.1336H120.994C121.205 58.1336 121.366 57.9918 121.366 57.8239V57.2716Z" fill="#767676"/>
<path d="M125.932 59.0104L126.793 60.3499C126.843 60.4283 126.861 60.5253 126.861 60.6111V61.4096C126.861 61.5216 126.766 61.6074 126.632 61.6074H125.963C125.829 61.6074 125.712 61.5216 125.712 61.4096V60.8537C125.712 60.7641 125.694 60.6783 125.645 60.5813L124.622 59.003V61.4171C124.622 61.5291 124.515 61.6149 124.384 61.6149H123.716C123.59 61.6149 123.478 61.5253 123.478 61.4171V56.2381C123.478 56.1261 123.595 56.0403 123.716 56.0403H125.371C126.215 56.0403 126.892 56.6149 126.892 57.3164V57.8201C126.892 58.3574 126.488 58.8164 125.932 59.0104ZM125.367 56.9545H124.618V58.141H125.367C125.569 58.141 125.739 57.9992 125.739 57.8127V57.2642C125.744 57.0888 125.569 56.9545 125.367 56.9545Z" fill="#767676"/>
<path d="M128.759 61.6151H128.09C127.956 61.6151 127.853 61.5255 127.853 61.4173V56.2456C127.853 56.1336 127.96 56.0366 128.09 56.0366H128.759C128.893 56.0366 128.997 56.1336 128.997 56.2456V61.4173C129.001 61.5293 128.893 61.6151 128.759 61.6151Z" fill="#767676"/>
<path d="M132.647 59.033H133.316C133.45 59.033 133.554 59.13 133.554 59.2382V60.5928C133.554 61.1488 133.006 61.6115 132.329 61.6115H131.275C130.602 61.6115 130.05 61.1488 130.05 60.5928V57.0553C130.05 56.4881 130.597 56.0366 131.275 56.0366H132.329C133.011 56.0366 133.554 56.4919 133.554 57.0553V57.9322C133.554 58.0442 133.446 58.1412 133.316 58.1412H132.647C132.513 58.1412 132.41 58.0442 132.41 57.9322V57.1449C132.41 57.0329 132.293 56.9471 132.172 56.9471H131.454C131.32 56.9471 131.203 57.0367 131.203 57.1449V60.492C131.203 60.604 131.32 60.6898 131.454 60.6898H132.172C132.298 60.6898 132.41 60.604 132.41 60.492V59.242C132.41 59.13 132.517 59.033 132.647 59.033Z" fill="#767676"/>
<path d="M135.776 56.9471V58.1337H136.619C136.753 58.1337 136.857 58.2195 136.857 58.3315V58.8241C136.857 58.936 136.753 59.0218 136.619 59.0218H135.776V60.7047H137.108C137.242 60.7047 137.346 60.7906 137.346 60.9025V61.4137C137.346 61.5257 137.242 61.6115 137.108 61.6115H134.856C134.721 61.6115 134.618 61.5219 134.618 61.4137V56.2344C134.618 56.1224 134.721 56.0366 134.856 56.0366H137.108C137.242 56.0366 137.346 56.1262 137.346 56.2344V56.7456C137.346 56.8575 137.242 56.9434 137.108 56.9434H135.776V56.9471Z" fill="#767676"/>
<path d="M140.917 56.9024C147.838 56.9024 154.76 56.9024 161.681 56.9024C162.556 56.9024 162.556 55.7758 161.681 55.7758C154.76 55.7758 147.838 55.7758 140.917 55.7758C140.046 55.7758 140.046 56.9024 140.917 56.9024Z" fill="#767676"/>
<path d="M140.917 59.3057C145.429 59.3057 149.942 59.3057 154.459 59.3057C155.334 59.3057 155.334 58.1788 154.459 58.1788C149.946 58.1788 145.434 58.1788 140.917 58.1788C140.046 58.1788 140.046 59.3057 140.917 59.3057Z" fill="#767676"/>
<path d="M140.917 61.5594C142.962 61.5594 145.008 61.5594 147.053 61.5594C147.928 61.5594 147.928 60.4323 147.053 60.4323C145.008 60.4323 142.962 60.4323 140.917 60.4323C140.046 60.4323 140.046 61.5594 140.917 61.5594Z" fill="#767676"/>
<path d="M39.6262 55.776C32.7046 55.776 25.7829 55.776 18.8613 55.776C17.9866 55.776 17.9866 56.9025 18.8613 56.9025C25.7829 56.9025 32.7046 56.9025 39.6262 56.9025C40.5009 56.9025 40.5009 55.776 39.6262 55.776Z" fill="#767676"/>
<path d="M39.6282 58.1788C35.1155 58.1788 30.6027 58.1788 26.0855 58.1788C25.2108 58.1788 25.2108 59.3057 26.0855 59.3057C30.5982 59.3057 35.111 59.3057 39.6282 59.3057C40.5029 59.3057 40.5029 58.1788 39.6282 58.1788Z" fill="#767676"/>
<path d="M39.6272 60.4323C37.5817 60.4323 35.5361 60.4323 33.4906 60.4323C32.6158 60.4323 32.6158 61.5594 33.4906 61.5594C35.5361 61.5594 37.5817 61.5594 39.6272 61.5594C40.5019 61.5594 40.5019 60.4323 39.6272 60.4323Z" fill="#767676"/>
</svg>
