<svg width="99" height="74" viewBox="0 0 99 74" fill="none" xmlns="http://www.w3.org/2000/svg">
<g clip-path="url(#clip0_0_323)">
<path d="M49.464 0C38.9306 0 30.3586 6.7533 30.3586 15.0526V37C30.3586 45.3009 38.9306 52.0526 49.464 52.0526C59.9974 52.0526 68.5693 45.3009 68.5693 37V15.0526C68.5693 6.7533 59.9974 0 49.464 0ZM49.464 48.8352C41.9577 48.8352 35.7485 44.3743 34.7571 38.6087H64.1687C63.1795 44.3759 56.9702 48.8352 49.464 48.8352ZM64.3237 35.3913H34.6043V15.0526C34.6043 8.52609 41.2699 3.21739 49.464 3.21739C57.658 3.21739 64.3237 8.52609 64.3237 15.0526V35.3913Z" fill="#FFB400"/>
<path d="M79.1835 28.9565C78.0117 28.9565 77.0606 29.6772 77.0606 30.5652V37C77.0606 48.5312 64.6804 57.9131 49.4641 57.9131C34.2477 57.9131 21.8675 48.5312 21.8675 37V30.5652C21.8675 29.6772 20.9164 28.9565 19.7446 28.9565C18.5728 28.9565 17.6218 29.6772 17.6218 30.5652V37C17.6218 49.7618 30.7727 60.2151 47.3412 61.0484V70.7826H36.7272C35.5554 70.7826 34.6043 71.5033 34.6043 72.3913C34.6043 73.2793 35.5554 74 36.7272 74H62.2009C63.3727 74 64.3238 73.2793 64.3238 72.3913C64.3238 71.5033 63.3727 70.7826 62.2009 70.7826H51.5869V61.0484C68.1554 60.2151 81.3063 49.7618 81.3063 37V30.5652C81.3063 29.6772 80.3553 28.9565 79.1835 28.9565Z" fill="#FFB400"/>
</g>
<defs>
<clipPath id="clip0_0_323">
<rect width="97.6495" height="74" fill="white" transform="translate(0.639282)"/>
</clipPath>
</defs>
</svg>
