<svg width="96" height="78" viewBox="0 0 96 78" fill="none" xmlns="http://www.w3.org/2000/svg">
<path d="M69.5816 72.9677H95.126L88.5685 58.0584C86.8536 54.1597 82.4775 51.2686 77.1468 50.5113L59.6209 48.0203V44.9469C63.8193 42.6509 66.7827 39.1535 67.6426 35.1201C71.5605 34.6182 74.562 32.0454 74.562 28.9355V20.129C74.562 9.03039 62.6456 0 48 0C33.3543 0 21.438 9.03039 21.438 20.129V28.9355C21.438 32.0416 24.4245 34.6295 28.3358 35.1365C29.199 39.1698 32.179 42.671 36.3791 44.9657V48.0216L18.8515 50.5126C13.5225 51.2699 9.14471 54.1609 7.4298 58.0597L0.873962 72.9677H26.4183V70.4516H21.9044L24.7084 61.9496L21.4878 61.3407L18.4813 70.4516H5.47915L10.5807 58.8548C11.9138 55.8228 15.3187 53.5734 19.4641 52.9834L30.0391 51.4813L32.7434 60.7004C30.977 61.2816 29.7386 62.6126 29.7386 64.1613V74.2258C29.7386 76.3066 31.9731 78 34.719 78H61.281C64.0268 78 66.2614 76.3066 66.2614 74.2258V64.1613C66.2614 62.6126 65.0229 61.2816 63.2582 60.7004L65.9625 51.4813L76.5376 52.9834C80.6829 53.5734 84.0862 55.8228 85.4209 58.8548L90.5208 70.4516H77.5187L74.5122 61.3407L71.2915 61.9496L74.0955 70.4516H69.5816V72.9677ZM62.6971 51.017L60.4044 58.8346L59.2573 55.3548H52.0075L58.5152 50.4232L62.6971 51.017ZM57.4942 60.3871H38.5057L39.3358 57.871H56.6642L57.4942 60.3871ZM48 54.834L39.6993 48.5437V46.4226C42.2294 47.3057 45.0367 47.8064 48 47.8064C50.965 47.8064 53.7706 47.2995 56.3006 46.4163V48.5437L48 54.834ZM67.9215 32.4782V25.394C69.8489 25.9149 71.2418 27.2987 71.2418 28.9367C71.2418 30.5747 69.8489 31.9574 67.9215 32.4782ZM28.0785 32.4945C26.1461 31.975 24.7582 30.576 24.7582 28.9355C24.7582 27.295 26.1461 25.896 28.0785 25.3764V32.4945ZM24.7582 23.9359V20.129C24.7582 10.4168 35.1838 2.51613 48 2.51613C60.8162 2.51613 71.2418 10.4168 71.2418 20.129V23.9359C70.259 23.3723 69.1234 22.9559 67.8684 22.7685C67.6077 21.2827 65.9443 20.129 63.9139 20.129C62.8598 20.129 61.8272 20.4536 60.9971 21.0826C58.1932 23.2075 54.6405 24.5625 50.7923 25.0028L50.8986 24.8417C51.1741 24.4215 51.3202 23.9523 51.3202 23.483V23.166C51.3202 21.4915 49.5223 20.129 47.3127 20.129C46.2585 20.129 45.2259 20.4536 44.4788 21.0185C40.981 23.668 36.3409 25.1374 31.3987 25.1613V22.6452H29.7386C27.8626 22.6452 26.1494 23.1371 24.7582 23.9359ZM31.3987 32.7097V27.6774C37.2274 27.6535 42.7025 25.9224 46.8246 22.7986C47.2247 22.4942 48 22.742 48 23.166V23.483C48 23.5635 47.9751 23.6441 47.9269 23.717L45.3139 27.6774H48C53.7971 27.6774 59.2457 25.9677 63.4259 22.7986C63.8276 22.4942 64.6012 22.742 64.6012 23.166V32.7097C64.6012 39.6466 57.1539 45.2903 48 45.2903C38.846 45.2903 31.3987 39.6466 31.3987 32.7097ZM37.4847 50.4232L43.9924 55.3548H36.7427L35.5955 58.8346L33.3029 51.017L37.4847 50.4232ZM34.719 75.4839C33.8042 75.4839 33.0588 74.9203 33.0588 74.2258V64.1613C33.0588 63.4668 33.8042 62.9032 34.719 62.9032H39.8836C37.7238 64.5035 36.3791 66.7303 36.3791 69.1936C36.3791 71.6568 37.7238 73.8836 39.8836 75.4839H34.719ZM48 75.4839C43.423 75.4839 39.6993 72.662 39.6993 69.1936C39.6993 65.7251 43.423 62.9032 48 62.9032C52.5769 62.9032 56.3006 65.7251 56.3006 69.1936C56.3006 72.662 52.5769 75.4839 48 75.4839ZM62.9411 74.2258C62.9411 74.9203 62.1957 75.4839 61.281 75.4839H56.1163C58.2762 73.8836 59.6209 71.6568 59.6209 69.1936C59.6209 66.7303 58.2762 64.5035 56.1163 62.9032H61.281C62.1957 62.9032 62.9411 63.4668 62.9411 64.1613V74.2258Z" fill="#FFB400"/>
</svg>
