<svg width="90" height="68" viewBox="0 0 90 68" fill="none" xmlns="http://www.w3.org/2000/svg">
<path d="M85.9227 6.7048H85.4304L85.7976 6.42655C86.8973 5.59316 86.8973 4.23701 85.7976 3.40361L82.9202 1.22309C81.8204 0.389828 80.0311 0.389828 78.9311 1.22309L71.6981 6.70466H4.07733C1.90308 6.70466 0.134033 8.04514 0.134033 9.69294V51.0593C0.134033 53.0732 2.29601 54.7116 4.95362 54.7116H36.0873V61.758H29.7526C28.0615 61.758 26.6856 62.8007 26.6856 64.0822V65.0775C26.6856 66.359 28.0615 67.4017 29.7526 67.4017H60.2474C61.9385 67.4017 63.3144 66.359 63.3144 65.0775V64.0822C63.3144 62.8007 61.9385 61.758 60.2474 61.758H53.9127V54.7116H67.9588C68.6849 54.7116 69.2732 54.2656 69.2732 53.7155C69.2732 53.1654 68.6849 52.7194 67.9588 52.7194H4.95362C3.74557 52.7194 2.7629 51.9747 2.7629 51.0593V48.1108H87.2371V51.0593C87.2371 51.9747 86.2545 52.7194 85.0464 52.7194H74.0928C73.3667 52.7194 72.7784 53.1654 72.7784 53.7155C72.7784 54.2656 73.3667 54.7116 74.0928 54.7116H85.0464C87.704 54.7116 89.866 53.0732 89.866 51.0593V9.69308C89.866 8.04541 88.0969 6.7048 85.9227 6.7048ZM60.2474 63.7503C60.4891 63.7503 60.6856 63.8993 60.6856 64.0823V65.0776C60.6856 65.2606 60.4891 65.4096 60.2474 65.4096H29.7526C29.5109 65.4096 29.3144 65.2606 29.3144 65.0776V64.0823C29.3144 63.8993 29.5109 63.7503 29.7526 63.7503H60.2474ZM38.7161 54.7119H51.284V61.7582H38.7161V54.7119ZM80.7901 2.63197C80.8651 2.57526 80.9867 2.57539 81.0614 2.63197L83.9386 4.81235C84.0134 4.86906 84.0134 4.96137 83.9386 5.01795L81.1932 7.09845L78.0447 4.71248L80.7901 2.63197ZM76.1857 6.12122L79.3341 8.50719L78.4173 9.20194L75.269 6.81596L76.1857 6.12122ZM73.41 8.2247L76.5585 10.6107L61.0042 22.3979L57.8557 20.0119L73.41 8.2247ZM71.4639 17.3315C73.2517 17.3315 74.7062 18.4337 74.7062 19.7886C74.7062 21.1434 73.2517 22.2456 71.4639 22.2456C69.6761 22.2456 68.2217 21.1434 68.2217 19.7886C68.2217 19.7727 68.2245 19.7575 68.2248 19.7417L71.4026 17.3339C71.4231 17.3336 71.4432 17.3315 71.4639 17.3315ZM58.7216 23.4857L54.8314 24.6897L56.4203 21.7417L58.7216 23.4857ZM87.2371 46.1189H2.7629V9.69308C2.7629 9.1439 3.35247 8.69698 4.07733 8.69698H69.0694L67.0651 10.2158H22.3918C21.6657 10.2158 21.0773 10.6618 21.0773 11.2119C21.0773 11.762 21.6657 12.208 22.3918 12.208H64.4364L55.1651 19.2343C54.9031 19.4346 54.6982 19.6684 54.5572 19.93L51.6211 25.3774C51.3517 25.8777 51.5035 26.4479 52.0077 26.8299C52.3461 27.0863 52.7962 27.2223 53.2552 27.2223C53.4802 27.2223 53.7072 27.1897 53.9243 27.1226L61.1125 24.8977C61.4479 24.7939 61.748 24.6435 62.0074 24.4529L66.0061 21.4231C66.8674 23.0698 68.9881 24.2379 71.4641 24.2379C74.7015 24.2379 77.3352 22.242 77.3352 19.7887C77.3352 17.9126 75.7942 16.3057 73.6215 15.6528L78.1675 12.2081H82.604V42.608H81.9074L77.1439 36.3556C76.7811 35.879 75.9766 35.7158 75.3483 35.991C74.7197 36.2661 74.5043 36.8753 74.8673 37.3517L78.8719 42.608H60.5101L58.5408 40.0231L67.7216 27.9726L71.8001 33.326C72.1632 33.8024 72.9671 33.9658 73.5956 33.6906C74.2242 33.4155 74.4396 32.8063 74.0767 32.3299L69.7255 26.6188C69.3072 26.0698 68.5582 25.742 67.7215 25.742C66.8848 25.742 66.1356 26.0698 65.7172 26.6188L57.0227 38.031L45.8668 23.3883C45.4485 22.8393 44.6994 22.5115 43.8626 22.5115C43.0261 22.5115 42.2769 22.8393 41.8585 23.3883L38.8947 27.2785V16.6013C38.8947 15.3198 37.5188 14.2771 35.8277 14.2771H13.2784C11.5873 14.2771 10.2114 15.3198 10.2114 16.6013V38.3826C10.2114 39.298 11.194 40.0427 12.4021 40.0427H29.1706L27.2161 42.6081H7.39619V12.208H16.2577C16.9838 12.208 17.5722 11.762 17.5722 11.2119C17.5722 10.6618 16.9838 10.2158 16.2577 10.2158H6.95804C5.74999 10.2158 4.76732 10.9605 4.76732 11.876V42.9399C4.76732 43.8554 5.74999 44.6001 6.95804 44.6001H83.0422C84.2502 44.6001 85.2329 43.8554 85.2329 42.9399V11.876C85.2329 10.9605 84.2502 10.2158 83.0422 10.2158H80.7968L82.8014 8.69698H85.9227C86.6476 8.69698 87.2371 9.1439 87.2371 9.69308V46.1189ZM36.2664 22.1178V38.0503H12.8402V22.1178H36.2664ZM12.8402 20.1256V16.6011C12.8402 16.418 13.0367 16.269 13.2784 16.269H35.8283C36.0699 16.269 36.2664 16.418 36.2664 16.6011V20.1256H12.8402ZM32.2062 40.0425H36.7045C37.9126 40.0425 38.8953 39.2978 38.8953 38.3823V36.2723C39.224 36.3918 39.5902 36.4565 39.9736 36.4565C40.8709 36.4565 41.6743 36.1048 42.1228 35.5161L44.3598 32.58C44.4274 32.4913 44.5308 32.4725 44.6053 32.4725C44.6802 32.4725 44.7836 32.4913 44.851 32.58L46.2301 34.3901C46.6788 34.9791 47.4824 35.3307 48.3799 35.3307C49.2772 35.3307 50.0807 34.9791 50.5292 34.3902L50.8717 33.9408L57.4747 42.6077H30.2517L32.2062 40.0425ZM38.8953 32.9379V31.2626L43.8633 24.7419L49.3538 31.9486L48.3797 33.2271L47.1276 31.5838C46.6012 30.8927 45.6583 30.4802 44.6052 30.4802C43.5522 30.4802 42.6093 30.8927 42.0828 31.5838L39.9731 34.3529L38.8953 32.9379Z" fill="#FFB400"/>
</svg>
