<svg width="91" height="68" viewBox="0 0 91 68" fill="none" xmlns="http://www.w3.org/2000/svg">
<path d="M84.0928 7.4375H6.97941C5.67837 7.43859 4.43104 7.83074 3.51107 8.5279C2.5911 9.22507 2.07363 10.1703 2.07219 11.1562V48.3438C2.07363 49.3297 2.5911 50.2749 3.51107 50.9721C4.43104 51.6693 5.67837 52.0614 6.97941 52.0625H35.0522L33.3697 55.25H25.9072C25.5354 55.25 25.1788 55.3619 24.9158 55.5612C24.6529 55.7605 24.5052 56.0307 24.5052 56.3125V58.4375H16.0928C15.721 58.4375 15.3643 58.5494 15.1014 58.7487C14.8385 58.948 14.6907 59.2182 14.6907 59.5C14.6907 59.7818 14.8385 60.052 15.1014 60.2513C15.3643 60.4506 15.721 60.5625 16.0928 60.5625H74.9794C75.3513 60.5625 75.7079 60.4506 75.9708 60.2513C76.2337 60.052 76.3815 59.7818 76.3815 59.5C76.3815 59.2182 76.2337 58.948 75.9708 58.7487C75.7079 58.5494 75.3513 58.4375 74.9794 58.4375H66.567V56.3125C66.567 56.0307 66.4193 55.7605 66.1564 55.5612C65.8934 55.3619 65.5368 55.25 65.165 55.25H57.7025L56.02 52.0625H84.0928C85.3938 52.0614 86.6412 51.6693 87.5611 50.9721C88.4811 50.2749 88.9986 49.3297 89 48.3438V11.1562C88.9986 10.1703 88.4811 9.22507 87.5611 8.5279C86.6412 7.83074 85.3938 7.43859 84.0928 7.4375ZM63.7629 57.375V58.4375H27.3093V57.375H63.7629ZM36.3912 55.25L38.0736 52.0625H52.9986L54.6811 55.25H36.3912ZM86.1959 48.3438C86.1954 48.7663 85.9737 49.1715 85.5794 49.4703C85.1851 49.7691 84.6504 49.9371 84.0928 49.9375H6.97941C6.42177 49.9371 5.88711 49.7691 5.49281 49.4703C5.0985 49.1715 4.87678 48.7663 4.87631 48.3438V45.6875H86.1959V48.3438ZM86.1959 43.5625H4.87631V11.1562C4.87678 10.7337 5.0985 10.3285 5.49281 10.0297C5.88711 9.73088 6.42177 9.56285 6.97941 9.5625H84.0928C84.6504 9.56285 85.1851 9.73088 85.5794 10.0297C85.9737 10.3285 86.1954 10.7337 86.1959 11.1562V43.5625Z" fill="#FFB400"/>
<path d="M39.1585 34.8883C39.3124 34.9648 39.4848 35.0177 39.6656 35.0438C39.8465 35.0698 40.0324 35.0687 40.2127 35.0403C40.393 35.0119 40.5641 34.9569 40.7164 34.8784C40.8686 34.7999 40.999 34.6995 41.1 34.5828L52.1412 21.8328C52.3453 21.5972 52.4175 21.3099 52.3419 21.034C52.2664 20.758 52.0493 20.5162 51.7385 20.3615C51.4276 20.2069 51.0484 20.1522 50.6843 20.2094C50.3202 20.2666 50.001 20.4311 49.797 20.6667L38.7557 33.4167C38.6546 33.5334 38.5849 33.664 38.5504 33.8011C38.5159 33.9382 38.5174 34.0791 38.5548 34.2157C38.5922 34.3524 38.6648 34.4821 38.7684 34.5975C38.8719 34.7129 39.0045 34.8117 39.1585 34.8883Z" fill="#FFB400"/>
<path d="M54.453 34.8162C54.7386 34.9966 55.1072 35.0836 55.4775 35.0581C55.8478 35.0326 56.1896 34.8966 56.4276 34.6801L63.4379 28.3051C63.6478 28.1142 63.7628 27.8735 63.7628 27.625C63.7628 27.3764 63.6478 27.1358 63.4379 26.9448L56.4276 20.5698C56.3101 20.4618 56.1656 20.3723 56.0023 20.3067C55.8391 20.2411 55.6603 20.2006 55.4764 20.1875C55.2924 20.1744 55.1068 20.189 54.9303 20.2305C54.7538 20.272 54.5898 20.3394 54.4479 20.4291C54.3059 20.5187 54.1887 20.6287 54.1031 20.7528C54.0174 20.8769 53.965 21.0126 53.9487 21.1521C53.9325 21.2916 53.9528 21.4321 54.0085 21.5657C54.0643 21.6992 54.1542 21.823 54.2733 21.9301L60.5356 27.625L54.2733 33.3198C54.0353 33.5363 53.9205 33.8156 53.9542 34.0962C53.9879 34.3769 54.1673 34.6359 54.453 34.8162Z" fill="#FFB400"/>
<path d="M34.6445 34.6801C34.762 34.7882 34.9065 34.8776 35.0698 34.9432C35.233 35.0088 35.4118 35.0494 35.5957 35.0624C35.7797 35.0755 35.9653 35.0609 36.1418 35.0195C36.3183 34.978 36.4823 34.9105 36.6242 34.8209C36.7662 34.7312 36.8834 34.6212 36.969 34.4971C37.0547 34.373 37.1071 34.2374 37.1234 34.0979C37.1396 33.9584 37.1193 33.8178 37.0635 33.6843C37.0078 33.5508 36.9179 33.4269 36.7988 33.3198L30.5365 27.625L36.7988 21.9301C36.9179 21.823 37.0078 21.6992 37.0635 21.5657C37.1193 21.4321 37.1396 21.2916 37.1234 21.1521C37.1071 21.0126 37.0547 20.8769 36.969 20.7528C36.8834 20.6287 36.7662 20.5187 36.6242 20.4291C36.4823 20.3394 36.3183 20.272 36.1418 20.2305C35.9653 20.189 35.7797 20.1744 35.5957 20.1875C35.4118 20.2006 35.233 20.2411 35.0698 20.3067C34.9065 20.3723 34.762 20.4618 34.6445 20.5698L27.6342 26.9448C27.4243 27.1358 27.3093 27.3764 27.3093 27.625C27.3093 27.8735 27.4243 28.1142 27.6342 28.3051L34.6445 34.6801Z" fill="#FFB400"/>
</svg>
